<svg width="74" height="85" viewBox="0 0 74 85" fill="none" xmlns="http://www.w3.org/2000/svg">
<path d="M18.6746 11.0217L36.8475 0.576703L55.0204 11.0217L55.0221 11.0226L73.1541 21.5384L73.195 42.499V42.501L73.1541 63.4616L55.0221 73.9774L55.0204 73.9783L36.8475 84.4233L18.6746 73.9783L18.6729 73.9774L0.540863 63.4616L0.499999 42.501V42.499L0.540863 21.5384L18.6729 11.0226L18.6746 11.0217Z" stroke="white"/>
<g clip-path="url(#clip0_33_142)">
<path d="M59.6953 43.2258V37.402C59.6953 35.787 58.6559 34.39 57.1093 33.9261L52.4372 32.5244V31.4219C53.7517 30.5026 54.6147 28.9804 54.6147 27.2588V25.0806C54.6147 22.2791 52.3355 20 49.534 20C46.7325 20 44.4534 22.2791 44.4534 25.0806V27.2581C44.4534 28.9804 45.3163 30.5026 46.6308 31.4212V32.5237L42.5134 33.7591C40.9682 32.3773 38.9996 31.6129 36.9093 31.6129C34.8276 31.6129 32.923 32.3756 31.4512 33.6323L27.7598 32.5244V31.4219C29.0743 30.5026 29.9372 28.9804 29.9372 27.2588V25.0806C29.9372 22.2791 27.6581 20 24.8566 20C22.0551 20 19.776 22.2791 19.776 25.0806V27.2581C19.776 28.9804 20.6389 30.5026 21.9534 31.4212V32.5237L17.2814 33.9253C15.7348 34.39 14.6953 35.787 14.6953 37.402V43.2258H16.1469V37.402C16.1469 36.4331 16.7703 35.5946 17.6988 35.3167L22.3723 33.9144C22.7947 34.463 23.612 35.2419 24.8566 35.2419C26.1012 35.2419 26.9185 34.463 27.3409 33.9144L30.3175 34.8071C29.3727 35.9954 28.7433 37.4417 28.5523 39.0241C27.6255 38.0392 26.3132 37.4194 24.8566 37.4194C22.0551 37.4194 19.776 39.6985 19.776 42.5V44.6774C19.776 46.3998 20.6389 47.9219 21.9534 48.8405V49.9431L17.2814 51.3447C15.7348 51.8093 14.6953 53.2064 14.6953 54.8213V61.371H23.405C23.8048 61.371 24.1308 61.697 24.1308 62.0968V65H50.2598V62.0968C50.2598 61.697 50.5859 61.371 50.9856 61.371H59.6953V54.8213C59.6953 53.2064 58.6559 51.8093 57.1093 51.3454L52.4372 49.9438V48.8412C53.7517 47.9219 54.6147 46.3998 54.6147 44.6781V42.5007C54.6147 39.6992 52.3355 37.4201 49.534 37.4201C48.1129 37.4201 46.8282 38.008 45.905 38.9514V38.2635C45.905 36.83 45.126 35.5396 43.9104 34.8574L47.0497 33.9151C47.4721 34.463 48.2894 35.2419 49.534 35.2419C50.7787 35.2419 51.5959 34.463 52.0184 33.9144L56.6925 35.3167C57.6203 35.5946 58.2437 36.4331 58.2437 37.402V43.2258H59.6953ZM24.8566 21.4516C26.8575 21.4516 28.4856 23.0797 28.4856 25.0806H25.1571C24.6961 25.0806 24.2438 24.8935 23.9182 24.5675L23.405 24.0543L22.8918 24.5675C22.5661 24.8935 22.1139 25.0806 21.6528 25.0806H21.2276C21.2276 23.0797 22.8557 21.4516 24.8566 21.4516ZM21.2276 27.2581V26.5323H21.6528C22.2851 26.5323 22.889 26.3508 23.405 26.012C23.921 26.3508 24.5249 26.5323 25.1571 26.5323H28.4856V27.2581C28.4856 29.259 26.8575 30.8871 24.8566 30.8871C22.8557 30.8871 21.2276 29.259 21.2276 27.2581ZM24.8566 33.7903C24.0851 33.7903 23.585 33.1421 23.405 32.865V32.1254C23.865 32.2625 24.3523 32.3387 24.8566 32.3387C25.3609 32.3387 25.8482 32.2625 26.3082 32.1247V32.8643C26.1282 33.1428 25.6281 33.7903 24.8566 33.7903ZM44.8074 46.5295C45.1771 47.4683 45.815 48.271 46.6308 48.8412V49.9438L41.9595 51.3454C41.8057 51.3911 41.6561 51.4507 41.5101 51.5166L40.8243 51.3585V49.9285C41.6001 49.3051 42.2115 48.4865 42.5868 47.548C43.4228 47.4747 44.2067 47.1189 44.8074 46.5295ZM37.1953 51.2097C37.9654 51.2097 38.7001 51.0559 39.3727 50.7823V51.5726L37.1953 53.2056L35.0179 51.5726V50.7823C35.6905 51.0559 36.4252 51.2097 37.1953 51.2097ZM34.1266 52.7187L35.8961 54.0463L34.0759 55.1385L33.6155 52.8371L34.1266 52.7187ZM36.3933 58.4677H37.9973L38.5619 63.5484H35.8288L36.3933 58.4677ZM38.1235 57.0161H36.2664L35.8497 55.7662L37.1953 54.9592L38.5403 55.7662L38.1235 57.0161ZM38.4945 54.0463L40.264 52.7187L40.7751 52.8364L40.3147 55.1378L38.4945 54.0463ZM43.8874 45.4163C43.6361 45.6921 43.3168 45.8852 42.9706 46.0029C42.9908 45.8055 43.0018 45.6056 43.0018 45.4032V41.9301C43.7829 42.2264 44.3641 42.9136 44.4424 43.7347C44.5019 44.3595 44.3052 44.956 43.8874 45.4163ZM41.5502 45.4032C41.5502 47.805 39.5971 49.7581 37.1953 49.7581C34.7936 49.7581 32.8405 47.805 32.8405 45.4032V41.7742H35.3046C36.8863 41.7742 38.4254 41.3794 39.8016 40.6252L40.3757 41.7742H41.5502V45.4032ZM31.42 46.0029C31.0738 45.8852 30.7545 45.6921 30.5032 45.4163C30.0854 44.9567 29.8887 44.3595 29.9482 43.7354C30.0266 42.9143 30.6078 42.2264 31.3889 41.9308V45.4032C31.3889 45.6056 31.3998 45.8055 31.42 46.0029ZM31.8039 47.548C32.1785 48.4865 32.7898 49.3051 33.5663 49.9285V51.3585L32.8805 51.5166C32.7338 51.4507 32.585 51.3918 32.4319 51.3454L27.7598 49.9438V48.8412C28.5749 48.271 29.2136 47.4683 29.5832 46.5295C30.1839 47.1189 30.9678 47.4747 31.8039 47.548ZM24.8566 38.871C26.8575 38.871 28.4856 40.4991 28.4856 42.5H28.0604C27.5993 42.5 27.1471 42.3129 26.8214 41.9868L26.3082 41.4737L25.795 41.9868C25.4694 42.3129 25.0171 42.5 24.5561 42.5H21.2276C21.2276 40.4991 22.8557 38.871 24.8566 38.871ZM21.2276 44.6774V43.9516H24.5561C25.1883 43.9516 25.7922 43.7702 26.3082 43.4314C26.8242 43.7702 27.4281 43.9516 28.0604 43.9516H28.4856V44.6774C28.4856 46.6784 26.8575 48.3065 24.8566 48.3065C22.8557 48.3065 21.2276 46.6784 21.2276 44.6774ZM24.8566 49.7581C25.3609 49.7581 25.8482 49.6819 26.3082 49.544V50.2836C26.1282 50.5622 25.6281 51.2097 24.8566 51.2097C24.0851 51.2097 23.585 50.5615 23.405 50.2843V49.5447C23.865 49.6819 24.3523 49.7581 24.8566 49.7581ZM23.405 59.9194H20.5018V54.8387H19.0502V59.9194H16.1469V54.8213C16.1469 53.8524 16.7703 53.0139 17.6988 52.7361L22.3723 51.3337C22.7947 51.8823 23.612 52.6613 24.8566 52.6613C26.1012 52.6613 26.9185 51.8823 27.3409 51.3337L30.0932 52.1598L28.0689 52.6266C25.75 53.1621 24.1308 55.1981 24.1308 57.5771V58.4677H25.5824V57.5771C25.5824 55.8774 26.7395 54.4237 28.3956 54.041L32.2004 53.1628L33.0559 57.4421L34.5745 56.5313L35.0041 57.8203L34.3683 63.5484H30.6631V57.7419H29.2114V63.5484H25.5824V62.0968C25.5824 60.8964 24.6053 59.9194 23.405 59.9194ZM56.6918 52.7361C57.6203 53.0139 58.2437 53.8524 58.2437 54.8213V59.9194H55.3405V54.8387H53.8889V59.9194H50.9856C49.7853 59.9194 48.8082 60.8964 48.8082 62.0968V63.5484H45.1792V57.7419H43.7276V63.5484H40.0223L39.3858 57.8203L39.8154 56.5313L41.334 57.4421L42.1895 53.1628L45.995 54.041C47.6511 54.4237 48.8082 55.8774 48.8082 57.5771V58.4677H50.2598V57.5771C50.2598 55.1981 48.6406 53.1621 46.3218 52.6266L44.2974 52.1598L47.0497 51.3337C47.4721 51.8823 48.2894 52.6613 49.534 52.6613C50.7787 52.6613 51.5959 51.8823 52.0184 51.3337L56.6918 52.7361ZM50.9856 50.2843C50.8056 50.5622 50.3055 51.2097 49.534 51.2097C48.7611 51.2097 48.2603 50.5594 48.0824 50.2843V49.544C48.5424 49.6819 49.0297 49.7581 49.534 49.7581C50.0383 49.7581 50.5256 49.6819 50.9856 49.544V50.2843ZM49.534 48.3065C47.5331 48.3065 45.905 46.6784 45.905 44.6774V43.9516H46.3303C46.9625 43.9516 47.5664 43.7702 48.0824 43.4314C48.5984 43.7702 49.2023 43.9516 49.8346 43.9516H53.1631V44.6774C53.1631 46.6784 51.535 48.3065 49.534 48.3065ZM49.534 38.871C51.535 38.871 53.1631 40.4991 53.1631 42.5H49.8346C49.3735 42.5 48.9213 42.3129 48.5956 41.9868L48.0824 41.4737L47.5692 41.9868C47.2435 42.3129 46.7913 42.5 46.3303 42.5H45.905C45.905 40.4991 47.5331 38.871 49.534 38.871ZM44.4534 41.1101C43.8112 40.6238 43.0135 40.3226 42.1512 40.3226H41.273L40.3803 38.5371L39.6963 38.9929C38.3907 39.8633 36.8725 40.3226 35.3046 40.3226H32.2394C31.3772 40.3226 30.5794 40.6238 29.9372 41.1101V40.0366C29.9372 36.1928 33.0655 33.0645 36.9093 33.0645C38.7717 33.0645 40.5231 33.7896 41.8397 35.1062L42.6098 35.8763L42.7725 35.9309C43.7775 36.2661 44.4534 37.2032 44.4534 38.2628V41.1101ZM49.534 21.4516C51.535 21.4516 53.1631 23.0797 53.1631 25.0806H52.7378C52.2767 25.0806 51.8245 24.8935 51.4988 24.5675L50.9856 24.0543L50.4725 24.5675C50.1468 24.8935 49.6946 25.0806 49.2335 25.0806H45.905C45.905 23.0797 47.5331 21.4516 49.534 21.4516ZM45.905 27.2581V26.5323H49.2335C49.8657 26.5323 50.4696 26.3508 50.9856 26.012C51.5016 26.3508 52.1055 26.5323 52.7378 26.5323H53.1631V27.2581C53.1631 29.259 51.535 30.8871 49.534 30.8871C47.5331 30.8871 45.905 29.259 45.905 27.2581ZM49.534 33.7903C48.7611 33.7903 48.2603 33.14 48.0824 32.865V32.1247C48.5424 32.2625 49.0297 32.3387 49.534 32.3387C50.0383 32.3387 50.5256 32.2625 50.9856 32.1247V32.8643C50.8056 33.1428 50.3055 33.7903 49.534 33.7903Z" fill="white"/>
<path d="M31.3889 20H32.8405V21.4516H31.3889V20Z" fill="white"/>
<path d="M31.3889 22.9032H32.8405V30.8871H31.3889V22.9032Z" fill="white"/>
<path d="M41.55 20H43.0017V21.4516H41.55V20Z" fill="white"/>
<path d="M41.55 22.9032H43.0017V30.8871H41.55V22.9032Z" fill="white"/>
<path d="M34.292 22.9032H35.7436V27.9838H34.292V22.9032Z" fill="white"/>
<path d="M34.292 29.4355H35.7436V30.8871H34.292V29.4355Z" fill="white"/>
<path d="M38.647 22.9032H40.0986V27.9838H38.647V22.9032Z" fill="white"/>
<path d="M38.647 29.4355H40.0986V30.8871H38.647V29.4355Z" fill="white"/>
</g>
<defs>
<clipPath id="clip0_33_142">
<rect width="45" height="45" fill="white" transform="translate(14.6953 20)"/>
</clipPath>
</defs>
</svg>
