<svg width="75" height="85" viewBox="0 0 75 85" fill="none" xmlns="http://www.w3.org/2000/svg">
<path d="M19.3697 11.0217L37.5426 0.576703L55.7155 11.0217L55.7172 11.0226L73.8492 21.5384L73.8901 42.499V42.501L73.8492 63.4616L55.7172 73.9774L55.7155 73.9783L37.5426 84.4233L19.3697 73.9783L19.368 73.9774L1.23593 63.4616L1.19507 42.501V42.499L1.23593 21.5384L19.368 11.0226L19.3697 11.0217Z" stroke="white"/>
<path d="M58.2183 51.25H55.3847C55.8521 50.646 56.1068 49.9044 56.1089 49.1406C56.1068 48.593 55.9766 48.0534 55.7288 47.5651C55.4809 47.0768 55.1223 46.6531 54.6815 46.3281C55.1238 46.0046 55.4836 45.5813 55.7316 45.0926C55.9796 44.6039 56.1088 44.0636 56.1088 43.5156C56.1088 42.9676 55.9796 42.4273 55.7316 41.9387C55.4836 41.45 55.1238 41.0267 54.6815 40.7031C55.277 40.2649 55.7186 39.6497 55.9433 38.9454C56.168 38.241 56.1643 37.4837 55.9326 36.7816C55.7009 36.0796 55.2532 35.4688 54.6534 35.0365C54.0536 34.6043 53.3326 34.3727 52.5933 34.375H44.1558C43.4165 34.3727 42.6954 34.6043 42.0956 35.0365C41.4958 35.4688 41.0481 36.0796 40.8164 36.7816C40.5847 37.4837 40.581 38.241 40.8057 38.9454C41.0304 39.6497 41.472 40.2649 42.0675 40.7031C41.6252 41.0267 41.2654 41.45 41.0174 41.9387C40.7694 42.4273 40.6402 42.9676 40.6402 43.5156C40.6402 44.0636 40.7694 44.6039 41.0174 45.0926C41.2654 45.5813 41.6252 46.0046 42.0675 46.3281C41.6267 46.6531 41.2681 47.0768 41.0203 47.5651C40.7724 48.0534 40.6423 48.593 40.6401 49.1406C40.6423 49.9044 40.8969 50.646 41.3644 51.25H39.2339V46.2367C39.2325 45.5312 39.0798 44.8341 38.7863 44.1925C38.4928 43.5509 38.0652 42.9796 37.5323 42.5172L37.5464 42.4539C37.5964 42.1518 37.58 41.8425 37.4985 41.5474C37.4169 41.2523 37.2721 40.9785 37.074 40.745C36.876 40.5115 36.6295 40.3239 36.3517 40.1952C36.0738 40.0666 35.7713 40 35.4651 40H32.4979L31.4995 39.55V38.5305C32.1481 38.1562 32.7154 37.6561 33.1682 37.0597C33.6209 36.4632 33.9501 35.7824 34.1362 35.057C34.1925 35.057 34.2558 35.0781 34.312 35.0781C34.847 35.0784 35.362 34.8749 35.7523 34.509C36.1425 34.143 36.3787 33.6421 36.4128 33.1082C36.4468 32.5743 36.2762 32.0475 35.9355 31.635C35.5949 31.2224 35.1099 30.9551 34.5792 30.8875L35.5144 29.9523C35.6439 29.8183 35.7169 29.6395 35.7183 29.4531V27.3438C35.7183 26.4113 35.3479 25.5171 34.6886 24.8578C34.0293 24.1985 33.135 23.8281 32.2026 23.8281H20.9526C20.8328 23.8285 20.715 23.8595 20.6105 23.9182C20.506 23.9769 20.4182 24.0613 20.3555 24.1634C20.2928 24.2656 20.2573 24.3821 20.2523 24.5018C20.2472 24.6216 20.2729 24.7406 20.3269 24.8477L21.5714 27.3438L21.03 28.4336C20.9624 28.5655 20.9383 28.7154 20.961 28.8619C20.9837 29.0084 21.0522 29.144 21.1565 29.2492L22.7948 30.8875C22.2641 30.9551 21.7791 31.2224 21.4385 31.635C21.0979 32.0475 20.9272 32.5743 20.9613 33.1082C20.9953 33.6421 21.2315 34.143 21.6217 34.509C22.012 34.8749 22.527 35.0784 23.062 35.0781C23.1253 35.0781 23.1815 35.057 23.2378 35.057C23.4878 36.0373 23.9951 36.933 24.7073 37.6516C25.0566 37.99 25.449 38.2808 25.8745 38.5164V39.55L24.8761 40H21.9089C21.6027 40 21.3002 40.0666 21.0224 40.1952C20.7445 40.3239 20.498 40.5115 20.3 40.745C20.102 40.9785 19.9571 41.2523 19.8755 41.5474C19.794 41.8425 19.7776 42.1518 19.8276 42.4539L19.8417 42.5172C19.3088 42.9796 18.8812 43.5509 18.5877 44.1925C18.2942 44.8341 18.1416 45.5312 18.1401 46.2367V51.25H17.437C17.2505 51.25 17.0717 51.3241 16.9398 51.4559C16.808 51.5878 16.7339 51.7666 16.7339 51.9531V54.7656C16.7339 54.9521 16.808 55.1309 16.9398 55.2628C17.0717 55.3947 17.2505 55.4688 17.437 55.4688H18.8433V60.3906C18.8433 60.5771 18.9173 60.7559 19.0492 60.8878C19.1811 61.0197 19.3599 61.0938 19.5464 61.0938H56.1089C56.2954 61.0938 56.4742 61.0197 56.6061 60.8878C56.7379 60.7559 56.812 60.5771 56.812 60.3906V55.4688H58.2183C58.4047 55.4688 58.5836 55.3947 58.7154 55.2628C58.8473 55.1309 58.9214 54.9521 58.9214 54.7656V51.9531C58.9214 51.7666 58.8473 51.5878 58.7154 51.4559C58.5836 51.3241 58.4047 51.25 58.2183 51.25ZM42.0464 37.8906C42.0481 37.3317 42.2708 36.7961 42.6661 36.4009C43.0613 36.0057 43.5968 35.7829 44.1558 35.7812H52.5933C53.1527 35.7812 53.6892 36.0035 54.0848 36.3991C54.4804 36.7947 54.7026 37.3312 54.7026 37.8906C54.7026 38.4501 54.4804 38.9866 54.0848 39.3822C53.6892 39.7778 53.1527 40 52.5933 40H44.1558C43.5968 39.9983 43.0613 39.7756 42.6661 39.3803C42.2708 38.9851 42.0481 38.4496 42.0464 37.8906ZM42.0464 43.5156C42.0481 42.9567 42.2708 42.4211 42.6661 42.0259C43.0613 41.6307 43.5968 41.4079 44.1558 41.4062H52.5933C53.1527 41.4062 53.6892 41.6285 54.0848 42.0241C54.4804 42.4197 54.7026 42.9562 54.7026 43.5156C54.7026 44.0751 54.4804 44.6116 54.0848 45.0072C53.6892 45.4028 53.1527 45.625 52.5933 45.625H44.1558C43.5968 45.6233 43.0613 45.4006 42.6661 45.0053C42.2708 44.6101 42.0481 44.0746 42.0464 43.5156ZM44.1558 47.0312H52.5933C53.1527 47.0312 53.6892 47.2535 54.0848 47.6491C54.4804 48.0447 54.7026 48.5812 54.7026 49.1406C54.7026 49.7001 54.4804 50.2366 54.0848 50.6322C53.6892 51.0278 53.1527 51.25 52.5933 51.25H44.1558C43.5963 51.25 43.0598 51.0278 42.6642 50.6322C42.2686 50.2366 42.0464 49.7001 42.0464 49.1406C42.0464 48.5812 42.2686 48.0447 42.6642 47.6491C43.0598 47.2535 43.5963 47.0312 44.1558 47.0312ZM36.4214 50.5469V49.1969L37.237 44.2891C37.622 44.8657 37.8275 45.5434 37.8276 46.2367V51.25H36.2948C36.3767 51.0245 36.4195 50.7867 36.4214 50.5469ZM35.0151 32.9688C35.0151 33.1552 34.9411 33.3341 34.8092 33.4659C34.6773 33.5978 34.4985 33.6719 34.312 33.6719V32.2656C34.4985 32.2656 34.6773 32.3397 34.8092 32.4716C34.9411 32.6034 35.0151 32.7823 35.0151 32.9688ZM23.062 33.6719C22.8755 33.6719 22.6967 33.5978 22.5648 33.4659C22.433 33.3341 22.3589 33.1552 22.3589 32.9688C22.3589 32.7823 22.433 32.6034 22.5648 32.4716C22.6967 32.3397 22.8755 32.2656 23.062 32.2656V33.6719ZM22.5136 28.6094L22.9847 27.6602C23.0366 27.5628 23.0638 27.4541 23.0638 27.3438C23.0638 27.2334 23.0366 27.1247 22.9847 27.0273L22.0917 25.2344H32.2026C32.7616 25.236 33.2971 25.4588 33.6923 25.854C34.0876 26.2493 34.3103 26.7848 34.312 27.3438V29.1648L33.3206 30.1562H33.2151C33.0677 30.1566 32.9239 30.1107 32.8041 30.0249C32.6842 29.9391 32.5943 29.8178 32.5472 29.6781L32.1675 28.525C32.1328 28.4197 32.0731 28.3244 31.9935 28.2473C31.9139 28.1701 31.8168 28.1134 31.7104 28.082C31.6431 28.0567 31.5714 28.0448 31.4995 28.0469C31.3476 28.0483 31.2 28.0975 31.0776 28.1875L29.7628 29.1719C28.9098 29.8089 27.8743 30.1541 26.8097 30.1562H24.0534L22.5136 28.6094ZM25.7058 36.6531C25.0141 35.9623 24.5841 35.0526 24.4894 34.0797C24.4751 33.9442 24.4681 33.8081 24.4683 33.6719V31.5625H26.8097C28.1786 31.5609 29.5104 31.117 30.6065 30.2969L31.1409 29.8961L31.2183 30.1211C31.3404 30.4902 31.563 30.818 31.8611 31.0676C32.1592 31.3173 32.5209 31.4789 32.9058 31.5344V33.6719C32.9064 33.8153 32.897 33.9586 32.8776 34.1008C32.8103 34.7731 32.582 35.4193 32.2121 35.9847C31.8423 36.5501 31.3416 37.0182 30.7526 37.3492C30.1636 37.6803 29.5036 37.8646 28.8283 37.8867C28.153 37.9087 27.4823 37.7677 26.8729 37.4758C26.4367 37.2754 26.0411 36.9966 25.7058 36.6531ZM30.0933 39.1141V40H27.2808V39.1141C28.2024 39.3578 29.1716 39.3578 30.0933 39.1141ZM21.3745 41.6523C21.4405 41.5752 21.5225 41.5132 21.6147 41.4707C21.707 41.4282 21.8073 41.4062 21.9089 41.4062H35.4651C35.5667 41.4062 35.6671 41.4282 35.7593 41.4707C35.8515 41.5132 35.9335 41.5752 35.9995 41.6523C36.0667 41.731 36.1159 41.8233 36.1438 41.9228C36.1718 42.0224 36.1777 42.1268 36.1612 42.2289L35.1206 48.4375H22.2534L21.2128 42.2289C21.1963 42.1268 21.2023 42.0224 21.2302 41.9228C21.2581 41.8233 21.3074 41.731 21.3745 41.6523ZM35.0151 49.8438V50.5469C35.0151 50.7334 34.9411 50.9122 34.8092 51.0441C34.6773 51.1759 34.4985 51.25 34.312 51.25H23.062C22.8755 51.25 22.6967 51.1759 22.5648 51.0441C22.433 50.9122 22.3589 50.7334 22.3589 50.5469V49.8438H35.0151ZM19.5464 46.2367C19.5465 45.5434 19.752 44.8657 20.137 44.2891L20.9526 49.1969V50.5469C20.9545 50.7867 20.9973 51.0245 21.0792 51.25H19.5464V46.2367ZM55.4058 59.6875H20.2495V55.4688H55.4058V59.6875ZM57.5151 54.0625H18.1401V52.6562H57.5151V54.0625Z" fill="white"/>
<path d="M28.687 47.0313C29.1042 47.0313 29.512 46.9075 29.8589 46.6758C30.2058 46.444 30.4762 46.1145 30.6358 45.7291C30.7955 45.3437 30.8372 44.9195 30.7559 44.5104C30.6745 44.1012 30.4736 43.7253 30.1786 43.4303C29.8836 43.1353 29.5077 42.9344 29.0985 42.853C28.6894 42.7716 28.2652 42.8134 27.8798 42.9731C27.4944 43.1327 27.1649 43.4031 26.9331 43.75C26.7013 44.0969 26.5776 44.5047 26.5776 44.9219C26.5776 45.4813 26.7999 46.0178 27.1955 46.4134C27.591 46.809 28.1276 47.0313 28.687 47.0313ZM28.687 44.2188C28.8261 44.2188 28.962 44.26 29.0776 44.3373C29.1933 44.4145 29.2834 44.5243 29.3366 44.6528C29.3898 44.7813 29.4038 44.9227 29.3766 45.0591C29.3495 45.1954 29.2825 45.3207 29.1842 45.4191C29.0859 45.5174 28.9606 45.5844 28.8242 45.6115C28.6878 45.6386 28.5464 45.6247 28.4179 45.5715C28.2895 45.5183 28.1796 45.4281 28.1024 45.3125C28.0251 45.1969 27.9839 45.0609 27.9839 44.9219C27.9839 44.7354 28.058 44.5566 28.1898 44.4247C28.3217 44.2928 28.5005 44.2188 28.687 44.2188Z" fill="white"/>
<path d="M51.8901 42.8125H53.2964V44.2188H51.8901V42.8125Z" fill="white"/>
<path d="M49.0776 42.8125H50.4839V44.2188H49.0776V42.8125Z" fill="white"/>
<path d="M43.4526 42.8125H44.8589V44.2188H43.4526V42.8125Z" fill="white"/>
<path d="M51.8901 37.1875H53.2964V38.5938H51.8901V37.1875Z" fill="white"/>
<path d="M49.0776 37.1875H50.4839V38.5938H49.0776V37.1875Z" fill="white"/>
<path d="M43.4526 37.1875H44.8589V38.5938H43.4526V37.1875Z" fill="white"/>
<path d="M51.8901 48.4375H53.2964V49.8438H51.8901V48.4375Z" fill="white"/>
<path d="M49.0776 48.4375H50.4839V49.8438H49.0776V48.4375Z" fill="white"/>
<path d="M43.4526 48.4375H44.8589V49.8438H43.4526V48.4375Z" fill="white"/>
</svg>
