<svg width="75" height="85" viewBox="0 0 75 85" fill="none" xmlns="http://www.w3.org/2000/svg">
<path d="M19.0647 11.0217L37.2376 0.576703L55.4105 11.0217L55.4122 11.0226L73.5443 21.5384L73.5851 42.499V42.501L73.5443 63.4616L55.4122 73.9774L55.4105 73.9783L37.2376 84.4233L19.0647 73.9783L19.063 73.9774L0.930999 63.4616L0.890136 42.501V42.499L0.930999 21.5384L19.063 11.0226L19.0647 11.0217Z" stroke="white"/>
<path fill-rule="evenodd" clip-rule="evenodd" d="M55.002 37.5042L59.6655 38.282C59.8406 38.3111 59.9997 38.4014 60.1145 38.5368C60.2293 38.6722 60.2924 38.844 60.2925 39.0215V46.5215C60.2924 46.6989 60.2295 46.8706 60.1148 47.006C60.0002 47.1413 59.8412 47.2317 59.6662 47.261L55.6425 47.9315C55.2699 49.6617 54.2338 51.1769 52.7565 52.1517C54.0796 52.6123 55.2268 53.4727 56.0394 54.6138C56.8521 55.755 57.29 57.1205 57.2925 58.5215V64.5215C57.2925 64.7204 57.2135 64.9112 57.0728 65.0518C56.9322 65.1925 56.7414 65.2715 56.5425 65.2715H34.0425C33.8651 65.2714 33.6934 65.2085 33.558 65.0938C33.4226 64.9792 33.3323 64.8202 33.303 64.6452L32.526 59.981C31.4259 59.6463 30.3611 59.2049 29.3467 58.6632L25.5007 61.412C25.3563 61.5151 25.1799 61.5636 25.003 61.5489C24.8261 61.5342 24.6602 61.4572 24.5347 61.3317L19.2322 56.0292C19.1067 55.9037 19.0298 55.7378 19.0151 55.5609C19.0004 55.3841 19.0489 55.2077 19.152 55.0632L21.9007 51.2172C21.3593 50.203 20.918 49.1385 20.583 48.0387L15.9195 47.261C15.7444 47.2319 15.5852 47.1416 15.4704 47.0062C15.3556 46.8708 15.2926 46.699 15.2925 46.5215V39.0215C15.2926 38.844 15.3556 38.6722 15.4704 38.5368C15.5852 38.4014 15.7444 38.3111 15.9195 38.282L20.583 37.5042C20.918 36.4045 21.3593 35.3399 21.9007 34.3257L19.152 30.4797C19.0489 30.3353 19.0004 30.1589 19.0151 29.982C19.0298 29.8052 19.1067 29.6392 19.2322 29.5137L24.5347 24.2112C24.6602 24.0857 24.8261 24.0088 25.003 23.9941C25.1799 23.9794 25.3563 24.0279 25.5007 24.131L29.3467 26.8797C30.3611 26.338 31.4259 25.8967 32.526 25.562L33.303 20.8977C33.3323 20.7227 33.4226 20.5638 33.558 20.4491C33.6934 20.3345 33.8651 20.2715 34.0425 20.2715H41.5425C41.7199 20.2715 41.8916 20.3345 42.027 20.4491C42.1623 20.5638 42.2527 20.7227 42.282 20.8977L43.059 25.562C44.1591 25.8967 45.2239 26.338 46.2382 26.8797L50.0842 24.131C50.2287 24.0279 50.4051 23.9794 50.5819 23.9941C50.7588 24.0088 50.9247 24.0857 51.0502 24.2112L56.3527 29.5137C56.4782 29.6392 56.5552 29.8052 56.5699 29.982C56.5846 30.1589 56.5361 30.3353 56.433 30.4797L53.6842 34.3257C54.2257 35.3399 54.667 36.4045 55.002 37.5042ZM34.0596 55.7467C36.451 56.431 38.985 56.4413 41.382 55.7765C41.7589 54.9358 42.3033 54.1808 42.9818 53.5576C43.6604 52.9344 44.4589 52.456 45.3285 52.1517C44.396 51.5378 43.6305 50.702 43.1007 49.7194C42.5708 48.7367 42.2931 47.6379 42.2925 46.5215V44.2715H41.5425C41.3436 44.2715 41.1528 44.1925 41.0121 44.0518C40.8715 43.9112 40.7925 43.7204 40.7925 43.5215C40.7925 41.3406 41.656 39.2484 43.1942 37.7024C44.7325 36.1564 46.8203 35.2824 49.0012 35.2715C47.62 33.2028 45.6941 31.5559 43.4361 30.5125C41.178 29.4692 38.6756 29.07 36.205 29.3591C33.7345 29.6481 31.3918 30.6141 29.4355 32.1505C27.4792 33.6868 25.9855 35.7338 25.1191 38.0654C24.2527 40.3971 24.0473 42.9228 24.5257 45.3638C25.004 47.8048 26.1475 50.0662 27.8299 51.8984C29.5123 53.7306 31.6681 55.0623 34.0596 55.7467ZM42.3337 42.7715H42.9502L48.861 41.294C48.9801 41.264 49.1048 41.264 49.224 41.294L55.1347 42.7715H55.7512C55.5679 41.1204 54.7821 39.595 53.5443 38.4871C52.3065 37.3792 50.7037 36.7666 49.0425 36.7666C47.3813 36.7666 45.7784 37.3792 44.5406 38.4871C43.3029 39.595 42.5171 41.1204 42.3337 42.7715ZM33.7444 58.8921C33.8405 58.9985 33.9041 59.1301 33.9277 59.2715L34.6777 63.7715H40.7925V58.5215C40.7956 58.1592 40.828 57.7978 40.8892 57.4407C38.1712 58.0197 35.3459 57.8326 32.7279 56.9004C30.11 55.9681 27.8023 54.3272 26.0621 52.1606C24.3218 49.994 23.2173 47.3868 22.8716 44.6294C22.5259 41.872 22.9527 39.0728 24.1042 36.5436C25.2558 34.0145 27.087 31.8547 29.3938 30.3051C31.7006 28.7554 34.3923 27.8767 37.1691 27.7668C39.9459 27.6569 42.6987 28.3202 45.1207 29.6827C47.5428 31.0452 49.5389 33.0535 50.8867 35.4837C51.6033 35.644 52.2948 35.9006 52.9425 36.2465C52.7078 35.6986 52.4436 35.1639 52.1512 34.6445C52.0804 34.5201 52.0466 34.378 52.0539 34.235C52.0612 34.092 52.1093 33.954 52.1925 33.8375L54.8422 30.1257L50.4382 25.7217L46.7257 28.3752C46.6093 28.4584 46.4716 28.5065 46.3287 28.514C46.1859 28.5214 46.0439 28.4879 45.9195 28.4172C44.7487 27.7501 43.499 27.2324 42.1995 26.876C42.0612 26.8382 41.9367 26.7617 41.8406 26.6553C41.7445 26.549 41.6808 26.4174 41.6572 26.276L40.9072 21.776H34.6777L33.9277 26.276C33.9041 26.4174 33.8405 26.549 33.7444 26.6553C33.6483 26.7617 33.5237 26.8382 33.3855 26.876C32.086 27.2324 30.8362 27.7501 29.6655 28.4172C29.5411 28.4879 29.3991 28.5214 29.2562 28.514C29.1134 28.5065 28.9756 28.4584 28.8592 28.3752L25.1467 25.7217L20.7427 30.1257L23.3955 33.8382C23.4787 33.9548 23.5268 34.0927 23.5341 34.2357C23.5414 34.3787 23.5076 34.5208 23.4367 34.6452C22.7701 35.8161 22.2525 37.0658 21.8962 38.3652C21.8584 38.5034 21.7817 38.6278 21.6754 38.7237C21.5691 38.8197 21.4375 38.8832 21.2962 38.9067L16.7962 39.6567V45.887L21.2962 46.637C21.4375 46.6605 21.5691 46.724 21.6754 46.82C21.7817 46.916 21.8584 47.0404 21.8962 47.1785C22.2525 48.4779 22.7701 49.7276 23.4367 50.8985C23.5076 51.0229 23.5414 51.165 23.5341 51.308C23.5268 51.451 23.4787 51.5889 23.3955 51.7055L20.7427 55.418L25.1467 59.8257L28.8592 57.1722C28.9756 57.0891 29.1134 57.0409 29.2562 57.0335C29.3991 57.0261 29.5411 57.0596 29.6655 57.1302C30.8362 57.7973 32.086 58.3151 33.3855 58.6715C33.5237 58.7092 33.6483 58.7858 33.7444 58.8921ZM52.7548 50.2338C53.7394 49.2492 54.2925 47.9139 54.2925 46.5215V44.1072L49.0425 42.7947L43.7925 44.1072V46.5215C43.7925 47.9139 44.3456 49.2492 45.3302 50.2338C46.3147 51.2184 47.6501 51.7715 49.0425 51.7715C50.4349 51.7715 51.7702 51.2184 52.7548 50.2338ZM55.7925 44.2715V46.3865L58.7925 45.8862V39.6567L56.0632 39.2015C56.8677 40.4987 57.2935 41.995 57.2925 43.5215C57.2925 43.7204 57.2135 43.9112 57.0728 44.0518C56.9322 44.1925 56.7414 44.2715 56.5425 44.2715H55.7925ZM55.7925 63.7715V58.5215C55.7909 57.1296 55.2373 55.7952 54.253 54.8109C53.2688 53.8267 51.9344 53.2731 50.5425 53.2715H49.7925H48.2925H47.5425C46.1506 53.2731 44.8161 53.8267 43.8319 54.8109C42.8477 55.7952 42.2941 57.1296 42.2925 58.5215V63.7715H55.7925Z" fill="white"/>
<path d="M33.1258 35.8776L26.7621 42.2413C26.6215 42.382 26.5425 42.5727 26.5425 42.7716C26.5425 42.9704 26.6215 43.1612 26.7621 43.3018L33.1258 49.6656L34.1863 48.6051L28.3528 42.7716L34.1863 36.9381L33.1258 35.8776Z" fill="white"/>
<path d="M35.5613 49.3698L38.5622 35.8724L40.0269 36.1981L37.026 49.6955L35.5613 49.3698Z" fill="white"/>
<path d="M36.2925 23.2715H39.2925V24.7715H36.2925V23.2715Z" fill="white"/>
<path d="M22.9424 30.0433L25.0637 27.9219L26.1244 28.9826L24.003 31.1039L22.9424 30.0433Z" fill="white"/>
<path d="M18.2925 41.2715H19.7925V44.2715H18.2925V41.2715Z" fill="white"/>
<path d="M22.9363 55.4973L23.9969 54.4367L26.1183 56.558L25.0576 57.6186L22.9363 55.4973Z" fill="white"/>
<path d="M36.2925 60.7715H39.2925V62.2715H36.2925V60.7715Z" fill="white"/>
<path d="M49.4551 28.9852L50.5157 27.9246L52.6371 30.0459L51.5764 31.1066L49.4551 28.9852Z" fill="white"/>
</svg>
