<svg width="74" height="85" viewBox="0 0 74 85" fill="none" xmlns="http://www.w3.org/2000/svg">
<g clip-path="url(#clip0_33_181)">
<path d="M47.8834 29.8896C47.6945 29.8267 47.5012 29.7608 47.3084 29.6922V26.827C47.817 26.9365 48.1202 27.1787 48.146 27.2C48.4139 27.4287 48.8167 27.3988 49.0482 27.1323C49.281 26.8643 49.2523 26.4584 48.9844 26.2256C48.9475 26.1936 48.3251 25.6656 47.3084 25.5232V25.3079C47.3084 24.9529 47.0207 24.6652 46.6657 24.6652C46.3107 24.6652 46.023 24.953 46.023 25.3079V25.5697C45.9263 25.5898 45.8283 25.6128 45.7281 25.6412C44.7749 25.9116 44.0719 26.6897 43.8932 27.6717C43.7353 28.5397 44.0365 29.3738 44.6791 29.8486C45.0197 30.1001 45.4433 30.3306 46.0229 30.574V34.2182C45.5014 34.1845 45.1468 34.0681 44.5601 33.7066C44.2578 33.5204 43.8618 33.6144 43.6757 33.9167C43.4895 34.2189 43.5836 34.6148 43.8858 34.8011C44.7191 35.3145 45.2875 35.4664 46.0228 35.5046V35.7915C46.0228 36.1465 46.3105 36.4342 46.6655 36.4342C47.0206 36.4342 47.3083 36.1464 47.3083 35.7915V35.4545C48.7463 35.1813 49.6538 34.0366 49.8329 32.9084C50.0502 31.5411 49.2849 30.3562 47.8834 29.8896ZM46.0229 29.1606C45.8039 29.0504 45.6061 28.9351 45.4428 28.8145C45.1497 28.598 45.1034 28.201 45.1579 27.9016C45.2262 27.5259 45.4898 27.0724 46.0229 26.896V29.1606ZM48.5635 32.7066C48.4719 33.2837 48.0473 33.8961 47.3084 34.1302V31.0524C47.3642 31.0713 47.4195 31.0901 47.4773 31.1094C48.2742 31.3746 48.6802 31.9717 48.5635 32.7066Z" fill="white"/>
<path d="M38.0749 39.4484C40.3581 41.7006 43.4333 42.9724 46.6653 42.9724C46.6826 42.9724 46.6999 42.9724 46.7172 42.9723C53.4798 42.9439 58.9303 37.4482 58.9018 30.6846C58.8737 24.0226 53.4816 18.5 46.6671 18.5C46.6495 18.5 46.6316 18.5 46.6141 18.5001C42.8629 18.5159 39.3246 20.2634 37.0233 23.2045C36.0624 22.6064 34.9516 22.287 33.7935 22.293L28.1819 22.3167C26.9127 22.322 25.7821 23.1317 25.3687 24.3315C25.34 24.4148 25.2583 24.471 25.1654 24.4715C23.5034 24.4785 22.1635 25.8292 22.1707 27.4916L22.19 32.0823C21.7547 32.4472 21.4976 32.9884 21.5 33.5719L21.5061 35.0037C21.5083 35.5204 21.7116 36.0055 22.0785 36.3694C22.4182 36.7062 22.8604 36.902 23.3342 36.9275C23.5512 38.9432 24.5293 40.8181 26.4309 42.1697L26.4423 44.8731C26.4434 45.1278 26.2535 45.3454 26.0007 45.3794H26.0006C24.1192 45.6317 20.6817 46.1814 18.7978 47.0298C16.5515 48.0413 15.1067 50.2867 15.117 52.7503L15.1219 53.9185C15.1234 54.2725 15.4109 54.5585 15.7645 54.5584H15.7673C16.1223 54.5569 16.4088 54.268 16.4073 53.913L16.4025 52.7448C16.3943 50.7883 17.5416 49.0051 19.3254 48.2018C20.368 47.7323 22.0097 47.3531 23.4904 47.0789C23.403 47.6954 23.6313 48.307 24.1177 48.7208L27.0176 51.1886C27.3593 51.4795 27.7807 51.6264 28.2034 51.6264C28.3662 51.6264 28.5288 51.6032 28.6876 51.5595L29.293 52.4023L28.1385 61.2144H21.4626L21.4478 57.6971C21.4463 57.3431 21.1588 57.0571 20.8052 57.0571C20.8043 57.0571 20.8034 57.0571 20.8025 57.0571C20.4474 57.0586 20.1609 57.3475 20.1624 57.7025L20.1772 61.2143H18.5257C18.5226 61.2143 18.5197 61.2143 18.5166 61.2143C17.3795 61.2143 16.4342 60.298 16.4293 59.1355L16.4201 56.9297C16.4185 56.5756 16.1311 56.2897 15.7774 56.2897C15.7765 56.2897 15.7756 56.2897 15.7747 56.2897C15.4197 56.2913 15.1332 56.5802 15.1346 56.9352L15.1439 59.141C15.1516 61.0013 16.6609 62.5 18.5138 62.5H18.5283H43.8336C45.6622 62.4923 47.2004 60.8923 47.1924 59.006L47.1655 52.6151C47.155 50.1516 45.6914 47.9183 43.4366 46.9258C41.5455 46.0934 38.1036 45.5726 36.2201 45.3363C36.22 45.3363 36.2199 45.3363 36.2197 45.3363C35.9667 45.3043 35.7752 45.0885 35.7741 44.8337L35.7626 42.1303C36.7131 41.4427 37.4917 40.622 38.0749 39.4484ZM46.6195 19.7856C46.6354 19.7855 46.6511 19.7855 46.667 19.7855C52.6328 19.7855 57.5906 24.593 57.6163 30.6901C57.6419 36.7421 52.7648 41.6614 46.7118 41.6869C46.6961 41.687 46.681 41.687 46.6653 41.687C43.5816 41.687 40.6566 40.3925 38.5805 38.1202C38.6927 37.7118 38.7728 37.2914 38.8154 36.8622C38.9562 36.8534 39.0936 36.8278 39.2268 36.7896C41.0422 39.0157 43.7827 40.3277 46.666 40.3277C46.6793 40.3277 46.6928 40.3277 46.7061 40.3276C51.4385 40.3077 55.3865 36.8509 56.1312 32.2941C56.1885 31.9437 55.9509 31.6133 55.6006 31.5561C55.249 31.4987 54.9198 31.7364 54.8627 32.0867C54.22 36.0183 50.8121 39.0248 46.7008 39.0422C46.6891 39.0422 46.6777 39.0422 46.666 39.0422C44.1968 39.0422 41.8479 37.9306 40.2755 36.041C40.5046 35.7155 40.6288 35.3291 40.6271 34.923L40.6211 33.4911C40.6185 32.9077 40.3568 32.3687 39.9185 32.0076L39.9031 28.3514C39.9003 27.6791 39.7876 27.0245 39.5766 26.4063C41.0753 23.9584 43.7511 22.4423 46.6305 22.4302C46.6427 22.4302 46.6544 22.4301 46.6665 22.4301C50.7039 22.4301 54.1399 25.3041 54.8438 29.2761C54.8991 29.5877 55.1701 29.8069 55.4759 29.8069C55.5131 29.8069 55.5509 29.8036 55.5888 29.7969C55.9384 29.735 56.1715 29.4014 56.1095 29.0519C55.2942 24.4504 51.3072 21.123 46.6251 21.1447C43.5692 21.1576 40.713 22.6378 38.9271 25.0713C38.6916 24.709 38.4171 24.3684 38.1029 24.0569C38.0813 24.0355 38.0588 24.0156 38.037 23.9947C40.097 21.3633 43.263 19.7997 46.6195 19.7856ZM25.1707 25.757C25.8095 25.7543 26.3776 25.3497 26.584 24.7503C26.8195 24.0667 27.4638 23.6053 28.1871 23.6023L33.7988 23.5786H33.8196C35.0936 23.5786 36.2926 24.0723 37.1978 24.9698C37.6594 25.4276 38.0162 25.963 38.2568 26.5465C38.2642 26.5689 38.2727 26.5909 38.2826 26.6124C38.4991 27.1607 38.615 27.7497 38.6175 28.3569L38.6319 31.7716C38.2028 31.8531 37.639 32.0376 37.1621 32.4519C37.0525 32.4579 36.89 32.4498 36.7465 32.4331L36.7347 29.6228C36.7285 28.1485 35.5272 26.9535 34.0537 26.9535C34.0499 26.9535 34.046 26.9535 34.0423 26.9535L34.0183 26.9536C33.6173 26.9553 33.2197 27.0182 32.8366 27.1407C31.6591 27.517 30.4026 27.5197 29.2303 27.1559C28.846 27.0366 28.4448 26.9775 28.0465 26.9788L28.0225 26.9789C26.5411 26.9851 25.347 28.1889 25.3532 29.6708L25.3638 32.1765C24.7542 31.9216 24.0108 31.8274 23.4741 31.7938L23.4559 27.4861C23.4521 26.5346 24.219 25.7609 25.1707 25.757ZM28.5237 50.2357C28.3196 50.3839 28.0428 50.3734 27.8505 50.2098L24.9507 47.7419C24.7032 47.5313 24.7575 47.2571 24.7801 47.178C24.8025 47.0996 24.8999 46.8417 25.2152 46.79C25.4842 46.7494 25.7304 46.714 25.9435 46.6845L29.9742 49.1819L28.5237 50.2357ZM27.7195 42.9235C28.7667 43.4145 29.8956 43.6677 31.096 43.6761H31.1004C31.1038 43.6761 31.107 43.6761 31.1104 43.676C32.3109 43.6575 33.4375 43.3947 34.4805 42.895L34.4888 44.8392C34.4906 45.2736 34.6504 45.6751 34.9147 45.9876L31.1231 48.3814L27.3114 46.0197C27.5731 45.7049 27.7295 45.302 27.7277 44.8677L27.7195 42.9235ZM31.1296 49.9316L32.4709 50.8887L31.9813 51.5828L30.292 51.5899L29.7965 50.9001L31.1296 49.9316ZM29.4349 61.2145L30.5276 52.8742L31.7564 52.8691L32.9214 61.2145H29.4349ZM38.7446 47.0146C40.2276 47.2763 41.8724 47.6417 42.9189 48.1023C44.7095 48.8905 45.8719 50.664 45.8801 52.6205L45.907 59.0115C45.9118 60.1566 44.9868 61.2096 43.831 61.2145H42.1773L42.1621 57.6098C42.1606 57.2558 41.8731 56.9698 41.5195 56.9698C41.5185 56.9698 41.5176 56.9698 41.5167 56.9698C41.1617 56.9714 40.8752 57.2603 40.8767 57.6153L40.8919 61.2145H34.2194L32.987 52.3869L33.5851 51.539C33.7392 51.5801 33.8969 51.6018 34.0546 51.6018C34.4825 51.6018 34.9087 51.4513 35.2522 51.154L38.1311 48.6618C38.6139 48.2438 38.8371 47.6303 38.7446 47.0146ZM36.288 46.6408C36.5015 46.6685 36.7479 46.7019 37.0173 46.7402C37.3329 46.7891 37.4326 47.0462 37.4556 47.1244C37.4788 47.2033 37.5354 47.4771 37.2897 47.6898L34.4108 50.1821C34.2201 50.3471 33.9435 50.3602 33.7379 50.2136L32.2785 49.1721L36.288 46.6408ZM31.0978 42.3905C27.793 42.3643 24.6721 39.9544 24.5774 36.2691C24.5686 35.9205 24.2833 35.6429 23.935 35.6429C23.9341 35.6429 23.9332 35.6429 23.9323 35.6429L23.4436 35.645C23.4425 35.645 23.4417 35.645 23.4407 35.645C23.2683 35.645 23.1062 35.5782 22.9836 35.4568C22.8605 35.3346 22.7923 35.1719 22.7916 34.9984L22.7855 33.5666C22.7847 33.3683 22.8741 33.1855 23.0237 33.063C23.7627 33.0754 24.8434 33.2212 25.1643 33.535C25.332 33.6991 25.5526 33.7858 25.7772 33.7857C25.8924 33.7857 26.0086 33.7629 26.1192 33.7161C26.4448 33.5783 26.6542 33.2605 26.6526 32.9068L26.6389 29.6654C26.6356 28.8965 27.2549 28.2677 28.0287 28.2645L28.0527 28.2644C28.3258 28.2646 28.5905 28.3034 28.8496 28.3838C30.2709 28.8249 31.7989 28.8221 33.2282 28.3653C33.4863 28.2828 33.7541 28.2403 34.0245 28.2392L34.0484 28.2391H34.0544C34.8208 28.2391 35.4462 28.8611 35.4495 29.6284L35.4631 32.8697C35.4637 33.0153 35.5153 33.3748 35.9798 33.5669C36.2046 33.6598 37.4784 33.9422 37.9421 33.4813C38.3003 33.125 38.8367 33.0291 39.103 33.0032C39.2477 33.1245 39.3349 33.303 39.3357 33.497L39.3417 34.9288C39.3425 35.1022 39.2757 35.2655 39.1535 35.3887C39.0313 35.5118 38.8686 35.5801 38.6951 35.5808L38.2064 35.5828C37.8568 35.5844 37.5726 35.865 37.5665 36.2145C37.5029 39.8901 34.4115 42.3365 31.0978 42.3905Z" fill="white"/>
</g>
<path d="M18.7596 11.0217L36.9325 0.576703L55.1054 11.0217L55.1071 11.0226L73.2391 21.5384L73.28 42.499V42.501L73.2391 63.4616L55.1071 73.9774L55.1054 73.9783L36.9325 84.4233L18.7596 73.9783L18.7579 73.9774L0.625824 63.4616L0.58496 42.501V42.499L0.625824 21.5384L18.7579 11.0226L18.7596 11.0217Z" stroke="white"/>
<defs>
<clipPath id="clip0_33_181">
<rect width="44" height="44" fill="white" transform="translate(15.0088 18.5)"/>
</clipPath>
</defs>
</svg>
