<svg width="75" height="85" viewBox="0 0 75 85" fill="none" xmlns="http://www.w3.org/2000/svg">
<g clip-path="url(#clip0_33_188)">
<path d="M55.3108 52.7589C54.8652 51.6155 53.7867 50.877 52.5599 50.877H46.4252V49.707L51.1568 44.9754H53.907C54.2367 46.245 55.3824 47.1885 56.753 47.1885C58.3804 47.1885 59.7039 45.8651 59.7039 44.2377C59.7039 42.6103 58.3804 41.2869 56.753 41.2869C55.3824 41.2869 54.2367 42.2304 53.907 43.5H50.8514C50.6559 43.5 50.4678 43.5774 50.3298 43.7161L46.4252 47.6208V45.2808L55.0615 36.6445C55.2002 36.5065 55.2776 36.3192 55.2776 36.1229V27.1657C56.5465 26.836 57.4907 25.691 57.4907 24.3197C57.4907 22.6923 56.1673 21.3688 54.5399 21.3688C52.9125 21.3688 51.5891 22.6923 51.5891 24.3197C51.5891 25.691 52.5334 26.836 53.8022 27.1657V35.8175L53.0645 36.5552L50.8514 34.3421V30.959H49.376V34.6475C49.376 34.8438 49.4534 35.0311 49.5921 35.1691L52.0214 37.5983L47.9006 41.7192L46.4252 40.2438V37.5983H44.9498V40.5492C44.9498 40.7454 45.0272 40.9328 45.1659 41.0707L46.8575 42.7623L45.1659 44.4538C45.0272 44.5918 44.9498 44.7792 44.9498 44.9754V50.877H41.9989V38.6415L46.209 34.4314C46.3477 34.2934 46.4252 34.106 46.4252 33.9098V29.3788C47.694 29.0491 48.6383 27.9042 48.6383 26.5328C48.6383 24.9054 47.3148 23.582 45.6875 23.582C44.0601 23.582 42.7366 24.9054 42.7366 26.5328C42.7366 27.9042 43.6809 29.0491 44.9498 29.3788V33.6044L40.7397 37.8145C40.601 37.9524 40.5235 38.1398 40.5235 38.336V50.877H37.5727V27.1657C38.8416 26.836 39.7858 25.691 39.7858 24.3197C39.7858 22.6923 38.4624 21.3688 36.835 21.3688C35.2076 21.3688 33.8842 22.6923 33.8842 24.3197C33.8842 25.691 34.8284 26.836 36.0973 27.1657V42.4569L33.8842 40.2438V34.6475H32.4088V40.5492C32.4088 40.7454 32.4862 40.9328 32.6249 41.0707L36.0973 44.5431V50.877H33.1465V47.1885C33.1465 46.9923 33.069 46.8049 32.9303 46.667L26.0748 39.8115L29.9795 35.9068C30.1182 35.7688 30.1957 35.5815 30.1957 35.3852V30.1165C31.4645 29.7868 32.4088 28.6419 32.4088 27.2705C32.4088 25.6431 31.0853 24.3197 29.458 24.3197C27.8306 24.3197 26.5071 25.6431 26.5071 27.2705C26.5071 28.6419 27.4514 29.7868 28.7203 30.1165V35.0798L25.0317 38.7683L23.5563 37.2929V34.5428C24.8252 34.213 25.7694 33.0681 25.7694 31.6967C25.7694 30.0693 24.446 28.7459 22.8186 28.7459C21.1912 28.7459 19.8678 30.0693 19.8678 31.6967C19.8678 33.0681 20.8121 34.213 22.0809 34.5428V37.5983C22.0809 37.7946 22.1584 37.982 22.2971 38.1199L31.6711 47.4939V50.877H28.7203V48.6639C28.7203 48.4677 28.6428 48.2803 28.5041 48.1424L18.3924 38.0306V27.1657C19.6612 26.836 20.6055 25.691 20.6055 24.3197C20.6055 22.6923 19.2821 21.3688 17.6547 21.3688C16.0273 21.3688 14.7039 22.6923 14.7039 24.3197C14.7039 25.691 15.6481 26.836 16.917 27.1657V38.336C16.917 38.5323 16.9944 38.7197 17.1331 38.8576L21.0378 42.7623H20.6055C20.41 42.7623 20.2219 42.8397 20.0839 42.9784L19.1441 43.9183C18.7052 43.6586 18.2006 43.5 17.6547 43.5C16.0273 43.5 14.7039 44.8234 14.7039 46.4508C14.7039 48.0782 16.0273 49.4016 17.6547 49.4016C19.2821 49.4016 20.6055 48.0782 20.6055 46.4508C20.6055 45.9049 20.4469 45.4003 20.1872 44.9614L20.9109 44.2377H22.5132L27.2448 48.9693V50.877H21.1101C19.8833 50.877 18.8048 51.6155 18.3599 52.7589L14.9171 61.6114C14.5637 62.5188 14.6817 63.542 15.2321 64.3461C15.7824 65.1509 16.6927 65.6311 17.668 65.6311H56.0028C56.9773 65.6311 57.8884 65.1509 58.4387 64.3461C58.989 63.542 59.1063 62.5188 58.7537 61.6114L55.3108 52.7589ZM56.753 42.7623C57.5667 42.7623 58.2284 43.424 58.2284 44.2377C58.2284 45.0514 57.5667 45.7131 56.753 45.7131C55.9394 45.7131 55.2776 45.0514 55.2776 44.2377C55.2776 43.424 55.9394 42.7623 56.753 42.7623ZM53.0645 24.3197C53.0645 23.506 53.7262 22.8442 54.5399 22.8442C55.3536 22.8442 56.0153 23.506 56.0153 24.3197C56.0153 25.1333 55.3536 25.7951 54.5399 25.7951C53.7262 25.7951 53.0645 25.1333 53.0645 24.3197ZM44.2121 26.5328C44.2121 25.7191 44.8738 25.0574 45.6875 25.0574C46.5012 25.0574 47.1629 25.7191 47.1629 26.5328C47.1629 27.3465 46.5012 28.0082 45.6875 28.0082C44.8738 28.0082 44.2121 27.3465 44.2121 26.5328ZM27.9825 27.2705C27.9825 26.4568 28.6443 25.7951 29.458 25.7951C30.2716 25.7951 30.9334 26.4568 30.9334 27.2705C30.9334 28.0842 30.2716 28.7459 29.458 28.7459C28.6443 28.7459 27.9825 28.0842 27.9825 27.2705ZM21.3432 31.6967C21.3432 30.883 22.0049 30.2213 22.8186 30.2213C23.6323 30.2213 24.294 30.883 24.294 31.6967C24.294 32.5104 23.6323 33.1721 22.8186 33.1721C22.0049 33.1721 21.3432 32.5104 21.3432 31.6967ZM16.1793 24.3197C16.1793 23.506 16.841 22.8442 17.6547 22.8442C18.4684 22.8442 19.1301 23.506 19.1301 24.3197C19.1301 25.1333 18.4684 25.7951 17.6547 25.7951C16.841 25.7951 16.1793 25.1333 16.1793 24.3197ZM17.6547 47.9262C16.841 47.9262 16.1793 47.2645 16.1793 46.4508C16.1793 45.6371 16.841 44.9754 17.6547 44.9754C18.4684 44.9754 19.1301 45.6371 19.1301 46.4508C19.1301 47.2645 18.4684 47.9262 17.6547 47.9262ZM41.9989 52.3524H44.9498V53.8279H41.9989V52.3524ZM40.5235 52.3524V53.8279H37.5727V52.3524H40.5235ZM35.3596 24.3197C35.3596 23.506 36.0213 22.8442 36.835 22.8442C37.6487 22.8442 38.3104 23.506 38.3104 24.3197C38.3104 25.1333 37.6487 25.7951 36.835 25.7951C36.0213 25.7951 35.3596 25.1333 35.3596 24.3197ZM33.1465 52.3524H36.0973V53.8279H33.1465V52.3524ZM28.7203 52.3524H31.6711V53.8279H28.7203V52.3524ZM28.7203 58.2541V55.3033H31.6711V58.2541H33.1465V55.3033H36.0973V58.2541H37.5727V55.3033H40.5235V58.2541H41.9989V55.3033H44.9498V58.2541H46.4252V55.3033H49.5818L51.3029 60.4672H22.3664L24.0875 55.3033H27.2448V58.2541H28.7203ZM57.2207 63.5132C56.9412 63.9219 56.4971 64.1557 56.0021 64.1557H17.668C17.1737 64.1557 16.7296 63.9219 16.45 63.5132C16.1704 63.1045 16.1129 62.6065 16.2921 62.1455L19.735 53.293C19.9578 52.722 20.4971 52.3524 21.1101 52.3524H27.2448V53.8279H23.5563C23.2384 53.8279 22.9573 54.0307 22.8562 54.3324L20.6431 60.9718C20.5679 61.1968 20.6062 61.4447 20.7449 61.6365C20.8836 61.8283 21.1064 61.9426 21.3432 61.9426H52.3268C52.5636 61.9426 52.7864 61.829 52.9251 61.6365C53.0638 61.4439 53.1014 61.196 53.0269 60.9718L50.8138 54.3324C50.7127 54.0307 50.4316 53.8279 50.1137 53.8279H46.4252V52.3524H52.5599C53.173 52.3524 53.7122 52.722 53.935 53.293L57.3779 62.1455C57.5571 62.6065 57.5003 63.1045 57.2207 63.5132Z" fill="white"/>
<path d="M33.8841 30.2213H32.4087V33.1721H33.8841V30.2213Z" fill="white"/>
<path d="M50.8514 28.0082H49.376V29.4836H50.8514V28.0082Z" fill="white"/>
</g>
<path d="M19.4546 11.0217L37.6275 0.576703L55.8004 11.0217L55.8021 11.0226L73.9342 21.5384L73.975 42.499V42.501L73.9342 63.4616L55.8021 73.9774L55.8004 73.9783L37.6275 84.4233L19.4546 73.9783L19.4529 73.9774L1.32089 63.4616L1.28003 42.501V42.499L1.32089 21.5384L19.4529 11.0226L19.4546 11.0217Z" stroke="white"/>
<defs>
<clipPath id="clip0_33_188">
<rect width="45" height="45" fill="white" transform="translate(14.7039 21)"/>
</clipPath>
</defs>
</svg>
