<svg width="75" height="85" viewBox="0 0 75 85" fill="none" xmlns="http://www.w3.org/2000/svg">
<g clip-path="url(#clip0_33_200)">
<path d="M52.3677 28.7891C51.8825 28.7891 51.4888 29.1828 51.4888 29.668C51.4888 30.1531 51.8825 30.5469 52.3677 30.5469C52.8528 30.5469 53.2466 30.1531 53.2466 29.668C53.2466 29.1828 52.8528 28.7891 52.3677 28.7891Z" fill="white"/>
<path d="M21.4302 28.7891C20.945 28.7891 20.5513 29.1828 20.5513 29.668C20.5513 30.1531 20.945 30.5469 21.4302 30.5469C21.9153 30.5469 22.3091 30.1531 22.3091 29.668C22.3091 29.1828 21.9153 28.7891 21.4302 28.7891Z" fill="white"/>
<path d="M58.5197 39.3359H57.4685C57.14 36.8043 56.3461 34.3918 55.1004 32.1548C54.8642 31.7309 54.329 31.5784 53.9049 31.8145C53.4808 32.0507 53.3284 32.5859 53.5645 33.01C54.6639 34.9843 55.3791 37.1082 55.6961 39.3359H55.004C54.5186 39.3359 54.1251 39.7294 54.1251 40.2149V43.7305C54.1251 44.2159 54.5186 44.6094 55.004 44.6094H58.5197C59.0051 44.6094 59.3986 44.2159 59.3986 43.7305V40.2149C59.3986 39.7294 59.0051 39.3359 58.5197 39.3359ZM57.6408 42.8516H55.8829V41.0938H56.6808C56.6811 41.0938 56.6814 41.0938 56.6817 41.0938C56.682 41.0938 56.6823 41.0938 56.6827 41.0938H57.6408V42.8516Z" fill="white"/>
<path d="M46.5652 45.7186C46.5647 45.705 46.5643 45.6914 46.5632 45.6778C46.5616 45.6591 46.5591 45.6408 46.5563 45.6225C46.5547 45.6112 46.5534 45.6 46.5512 45.5887C46.5471 45.5672 46.5418 45.5461 46.5363 45.5251C46.5342 45.5171 46.5325 45.5091 46.5302 45.5012C46.5223 45.4749 46.5132 45.4492 46.503 45.4239C46.5019 45.4212 46.5011 45.4183 46.4999 45.4156C46.4878 45.3862 46.4742 45.3577 46.4591 45.3301L37.6702 29.2464C37.5161 28.9645 37.2203 28.7891 36.8989 28.7891C36.5775 28.7891 36.2818 28.9645 36.1277 29.2465L27.3388 45.3302C27.3237 45.3578 27.3101 45.3863 27.2979 45.4157C27.2968 45.4184 27.296 45.4212 27.2949 45.424C27.2847 45.4493 27.2755 45.475 27.2677 45.5013C27.2653 45.5092 27.2637 45.5172 27.2615 45.5252C27.2559 45.5462 27.2507 45.5672 27.2467 45.5888C27.2446 45.6 27.2433 45.6112 27.2415 45.6226C27.2388 45.6409 27.2362 45.6592 27.2346 45.6779C27.2335 45.6915 27.2331 45.7051 27.2326 45.7187C27.2322 45.7298 27.231 45.7407 27.231 45.752C27.231 45.7578 27.2317 45.7633 27.2318 45.7691C27.2321 45.7829 27.233 45.7966 27.2339 45.8104C27.2351 45.8279 27.2365 45.8453 27.2387 45.8625C27.2403 45.8746 27.2422 45.8867 27.2442 45.8988C27.2474 45.9178 27.2512 45.9366 27.2556 45.9552C27.258 45.9656 27.2608 45.9761 27.2637 45.9864C27.2692 46.0065 27.2755 46.0262 27.2824 46.0456C27.2843 46.0511 27.2855 46.0568 27.2876 46.0623L30.4573 54.4619C30.2031 54.5879 29.9679 54.7554 29.7612 54.9619C29.2631 55.4601 28.9888 56.1222 28.9888 56.8262C28.9888 57.9719 29.7236 58.9489 30.7466 59.3117V64.1211C30.7466 64.6065 31.1401 65 31.6255 65H42.1724C42.6578 65 43.0513 64.6065 43.0513 64.1211V59.3132C43.4177 59.1839 43.7537 58.9734 44.0367 58.6904C44.5348 58.1923 44.8091 57.5302 44.8091 56.8262C44.8091 55.7914 44.2098 54.8945 43.3402 54.4631L46.5103 46.0623C46.5124 46.0568 46.5136 46.0511 46.5156 46.0456C46.5224 46.0262 46.5287 46.0065 46.5343 45.9864C46.5372 45.9761 46.5398 45.9656 46.5424 45.9552C46.5468 45.9366 46.5505 45.9178 46.5537 45.8988C46.5557 45.8867 46.5578 45.8746 46.5592 45.8625C46.5614 45.8453 46.5629 45.8279 46.564 45.8104C46.5649 45.7966 46.5658 45.7829 46.5661 45.7691C46.5662 45.7634 46.567 45.7578 46.567 45.752C46.5669 45.7407 46.5657 45.7298 46.5652 45.7186ZM36.8989 44.873C37.3836 44.873 37.7778 45.2673 37.7778 45.752C37.7778 46.2366 37.3836 46.6309 36.8989 46.6309C36.4143 46.6309 36.02 46.2366 36.02 45.752C36.02 45.2673 36.4143 44.873 36.8989 44.873ZM41.2935 63.2422H32.5044V59.4629H41.2935V63.2422ZM42.7937 57.4474C42.6275 57.6136 42.4069 57.7051 42.1724 57.7051H31.6255C31.1409 57.7051 30.7466 57.3108 30.7466 56.8262C30.7466 56.5917 30.8381 56.371 31.0042 56.205C31.1704 56.0388 31.391 55.9473 31.6255 55.9473H42.1665C42.1684 55.9473 42.1703 55.9475 42.1723 55.9475C42.1732 55.9475 42.1743 55.9474 42.1753 55.9474C42.6586 55.949 43.0514 56.3425 43.0514 56.8262C43.0513 57.0607 42.9598 57.2814 42.7937 57.4474ZM41.5646 54.1895H32.2333L29.3809 46.6309H31.6255C32.1109 46.6309 32.5044 46.2374 32.5044 45.752C32.5044 45.2665 32.1109 44.873 31.6255 44.873H29.5917L36.02 33.1092V43.2664C34.9971 43.6292 34.2622 44.6061 34.2622 45.752C34.2622 47.2058 35.445 48.3887 36.8989 48.3887C38.3528 48.3887 39.5356 47.2058 39.5356 45.752C39.5356 44.6062 38.8008 43.6292 37.7778 43.2664V33.1092L44.2062 44.873H42.1724C41.6869 44.873 41.2935 45.2665 41.2935 45.752C41.2935 46.2374 41.6869 46.6309 42.1724 46.6309H44.4169L41.5646 54.1895Z" fill="white"/>
<path d="M19.8925 31.8145C19.4684 31.5783 18.9331 31.7307 18.697 32.1549C17.4514 34.3918 16.6575 36.8044 16.329 39.336H15.2778C14.7924 39.336 14.3989 39.7294 14.3989 40.2149V43.7305C14.3989 44.2159 14.7924 44.6094 15.2778 44.6094H18.7935C19.2789 44.6094 19.6724 44.2159 19.6724 43.7305V40.2149C19.6724 39.7294 19.2789 39.336 18.7935 39.336H18.1013C18.4183 37.1082 19.1335 34.9843 20.2328 33.01C20.469 32.586 20.3167 32.0507 19.8925 31.8145ZM17.9146 42.8516H16.1567V41.0938H17.1148C17.1152 41.0938 17.1154 41.0938 17.1158 41.0938C17.1161 41.0938 17.1164 41.0938 17.1167 41.0938H17.9146V42.8516Z" fill="white"/>
<path d="M56.7622 20C55.6165 20 54.6395 20.7349 54.2767 21.7578H39.5356V20.8789C39.5356 20.3935 39.1422 20 38.6567 20H35.1411C34.6557 20 34.2622 20.3935 34.2622 20.8789V21.7578H19.5212C19.1584 20.7349 18.1814 20 17.0356 20C15.5818 20 14.3989 21.1828 14.3989 22.6367C14.3989 24.0906 15.5818 25.2734 17.0356 25.2734C18.1814 25.2734 19.1584 24.5386 19.5212 23.5156H28.3572C26.4826 24.3 24.7634 25.3183 23.3484 26.5113C22.9772 26.8242 22.93 27.3787 23.2429 27.7498C23.4168 27.956 23.6652 28.0622 23.9153 28.0622C24.1153 28.0622 24.3164 27.9944 24.4813 27.8553C27.0031 25.7294 30.6018 24.2111 34.2622 23.7019V24.3945C34.2622 24.88 34.6557 25.2734 35.1411 25.2734H38.6567C39.1422 25.2734 39.5356 24.88 39.5356 24.3945V23.7019C43.196 24.2111 46.7948 25.7294 49.3166 27.8552C49.4814 27.9943 49.6825 28.0622 49.8826 28.0621C50.1327 28.0621 50.3812 27.9559 50.5549 27.7497C50.8679 27.3787 50.8206 26.8242 50.4495 26.5113C49.0344 25.3183 47.3153 24.3 45.4407 23.5156H54.2767C54.6395 24.5386 55.6164 25.2734 56.7622 25.2734C58.2161 25.2734 59.3989 24.0906 59.3989 22.6367C59.3989 21.1828 58.2161 20 56.7622 20ZM17.0356 23.5156C16.551 23.5156 16.1567 23.1213 16.1567 22.6367C16.1567 22.1521 16.551 21.7578 17.0356 21.7578C17.5203 21.7578 17.9146 22.1521 17.9146 22.6367C17.9146 23.1213 17.5203 23.5156 17.0356 23.5156ZM37.7778 22.6367V22.7158V23.5156H36.02V22.7158V22.6367V21.7578H37.7778V22.6367ZM56.7622 23.5156C56.2776 23.5156 55.8833 23.1213 55.8833 22.6367C55.8833 22.1521 56.2776 21.7578 56.7622 21.7578C57.2468 21.7578 57.6411 22.1521 57.6411 22.6367C57.6411 23.1213 57.2468 23.5156 56.7622 23.5156Z" fill="white"/>
</g>
<path d="M19.1497 11.0217L37.3226 0.576703L55.4955 11.0217L55.4972 11.0226L73.6292 21.5384L73.6701 42.499V42.501L73.6292 63.4616L55.4972 73.9774L55.4955 73.9783L37.3226 84.4233L19.1497 73.9783L19.148 73.9774L1.01596 63.4616L0.975097 42.501V42.499L1.01596 21.5384L19.148 11.0226L19.1497 11.0217Z" stroke="white"/>
<defs>
<clipPath id="clip0_33_200">
<rect width="45" height="45" fill="white" transform="translate(14.3989 20)"/>
</clipPath>
</defs>
</svg>
