<svg width="375" height="166" viewBox="0 0 375 166" fill="none" xmlns="http://www.w3.org/2000/svg">
<path d="M146.312 121.066L154 105.441H154.953L146.64 122.347H145.984L137.703 105.441H138.625L146.312 121.066ZM138.312 105.441V122.347H137.468V105.441H138.312ZM154.156 122.347V105.441H155.015V122.347H154.156ZM159.109 114.222V113.566C159.109 112.326 159.286 111.191 159.64 110.16C160.005 109.128 160.51 108.238 161.156 107.488C161.812 106.738 162.593 106.16 163.5 105.753C164.406 105.337 165.406 105.128 166.5 105.128C167.604 105.128 168.609 105.337 169.515 105.753C170.421 106.16 171.203 106.738 171.859 107.488C172.515 108.238 173.02 109.128 173.375 110.16C173.729 111.191 173.906 112.326 173.906 113.566V114.222C173.906 115.462 173.729 116.597 173.375 117.628C173.02 118.66 172.515 119.55 171.859 120.3C171.213 121.05 170.437 121.634 169.531 122.05C168.625 122.457 167.625 122.66 166.531 122.66C165.427 122.66 164.421 122.457 163.515 122.05C162.609 121.634 161.828 121.05 161.171 120.3C160.515 119.55 160.005 118.66 159.64 117.628C159.286 116.597 159.109 115.462 159.109 114.222ZM159.953 113.566V114.222C159.953 115.233 160.099 116.196 160.39 117.113C160.692 118.019 161.125 118.826 161.687 119.535C162.25 120.243 162.937 120.8 163.75 121.207C164.562 121.613 165.489 121.816 166.531 121.816C167.562 121.816 168.479 121.613 169.281 121.207C170.093 120.8 170.781 120.243 171.343 119.535C171.906 118.826 172.333 118.019 172.625 117.113C172.916 116.196 173.062 115.233 173.062 114.222V113.566C173.062 112.576 172.916 111.628 172.625 110.722C172.333 109.816 171.901 109.009 171.328 108.3C170.765 107.582 170.078 107.014 169.265 106.597C168.453 106.18 167.531 105.972 166.5 105.972C165.468 105.972 164.546 106.18 163.734 106.597C162.932 107.014 162.244 107.582 161.671 108.3C161.109 109.009 160.682 109.816 160.39 110.722C160.099 111.628 159.953 112.576 159.953 113.566ZM179.843 105.441H180.687L180.375 111.316C180.291 112.951 180.114 114.378 179.843 115.597C179.583 116.816 179.265 117.858 178.89 118.722C178.526 119.587 178.135 120.311 177.718 120.894C177.312 121.477 176.911 121.962 176.515 122.347H175.89V121.503H176.25C176.5 121.17 176.791 120.759 177.125 120.269C177.458 119.779 177.791 119.154 178.125 118.394C178.458 117.634 178.75 116.68 179 115.535C179.26 114.378 179.437 112.972 179.531 111.316L179.843 105.441ZM180.343 105.441H188.921V122.347H188.078V106.285H180.343V105.441ZM175.125 121.503H190.265V127.316H189.421V122.347H175.812V127.316H175.125V121.503ZM200.343 122.66C199.312 122.66 198.349 122.457 197.453 122.05C196.557 121.634 195.77 121.05 195.093 120.3C194.416 119.55 193.885 118.665 193.5 117.644C193.125 116.613 192.937 115.483 192.937 114.253V113.566C192.937 112.326 193.119 111.196 193.484 110.175C193.859 109.144 194.369 108.253 195.015 107.503C195.671 106.743 196.427 106.16 197.281 105.753C198.135 105.337 199.052 105.128 200.031 105.128C200.968 105.128 201.828 105.305 202.609 105.66C203.39 106.003 204.067 106.493 204.64 107.128C205.224 107.764 205.671 108.524 205.984 109.41C206.296 110.295 206.453 111.274 206.453 112.347V113.332H193.484V112.488H205.609V112.285C205.609 111.149 205.38 110.108 204.921 109.16C204.463 108.201 203.817 107.43 202.984 106.847C202.151 106.264 201.166 105.972 200.031 105.972C199.093 105.972 198.239 106.17 197.468 106.566C196.708 106.962 196.052 107.509 195.5 108.207C194.947 108.894 194.52 109.696 194.218 110.613C193.927 111.529 193.781 112.514 193.781 113.566V114.253C193.781 115.305 193.947 116.29 194.281 117.207C194.614 118.123 195.078 118.93 195.671 119.628C196.265 120.316 196.958 120.858 197.75 121.253C198.552 121.639 199.416 121.832 200.343 121.832C201.312 121.832 202.213 121.67 203.046 121.347C203.89 121.024 204.661 120.41 205.359 119.503L205.953 119.925C205.578 120.457 205.125 120.93 204.593 121.347C204.072 121.753 203.458 122.076 202.75 122.316C202.052 122.545 201.25 122.66 200.343 122.66ZM222.031 105.441V106.3H213.093V105.441H222.031ZM222.546 105.441V122.347H221.687V105.441H222.546ZM212.781 105.441H213.625L213.312 113.128C213.26 114.441 213.171 115.602 213.046 116.613C212.932 117.623 212.77 118.493 212.562 119.222C212.354 119.941 212.083 120.535 211.75 121.003C211.427 121.462 211.031 121.8 210.562 122.019C210.093 122.238 209.536 122.347 208.89 122.347H208.39V121.519H208.937C209.385 121.519 209.786 121.441 210.14 121.285C210.494 121.118 210.802 120.847 211.062 120.472C211.333 120.097 211.562 119.592 211.75 118.957C211.937 118.311 212.088 117.509 212.203 116.55C212.328 115.592 212.416 114.451 212.468 113.128L212.781 105.441ZM228.359 111.878H234.296C235.599 111.878 236.697 112.108 237.593 112.566C238.5 113.014 239.182 113.634 239.64 114.425C240.109 115.217 240.343 116.113 240.343 117.113C240.343 117.873 240.213 118.571 239.953 119.207C239.692 119.842 239.302 120.394 238.781 120.863C238.27 121.332 237.64 121.696 236.89 121.957C236.14 122.217 235.276 122.347 234.296 122.347H228.062V105.441H228.906V121.503H234.296C235.526 121.503 236.52 121.295 237.281 120.878C238.052 120.462 238.614 119.92 238.968 119.253C239.322 118.576 239.5 117.852 239.5 117.082C239.5 116.342 239.322 115.639 238.968 114.972C238.614 114.305 238.052 113.764 237.281 113.347C236.52 112.93 235.526 112.722 234.296 112.722H228.359V111.878ZM144.359 152.207H138.031L138 151.363H143.593C144.729 151.363 145.677 151.227 146.437 150.957C147.208 150.686 147.791 150.285 148.187 149.753C148.583 149.212 148.781 148.55 148.781 147.769C148.781 147.165 148.661 146.644 148.421 146.207C148.192 145.769 147.843 145.41 147.375 145.128C146.916 144.847 146.343 144.639 145.656 144.503C144.968 144.368 144.177 144.3 143.281 144.3H138.312V160.347H137.468V143.441H143.281C144.26 143.441 145.14 143.529 145.921 143.707C146.703 143.884 147.369 144.149 147.921 144.503C148.474 144.858 148.895 145.311 149.187 145.863C149.479 146.415 149.625 147.066 149.625 147.816C149.625 148.337 149.531 148.826 149.343 149.285C149.166 149.733 148.901 150.139 148.546 150.503C148.192 150.858 147.76 151.149 147.25 151.378C146.739 151.597 146.151 151.733 145.484 151.785L144.359 152.207ZM144.359 160.347H137.906V159.503H144.359C145.421 159.503 146.338 159.363 147.109 159.082C147.89 158.8 148.489 158.384 148.906 157.832C149.322 157.269 149.531 156.587 149.531 155.785C149.531 155.076 149.322 154.457 148.906 153.925C148.489 153.384 147.89 152.962 147.109 152.66C146.338 152.358 145.421 152.207 144.359 152.207H140.109L140.14 151.363H145.765L146.296 151.675C147.078 151.759 147.77 151.993 148.375 152.378C148.989 152.764 149.474 153.253 149.828 153.847C150.182 154.43 150.359 155.071 150.359 155.769C150.359 156.529 150.213 157.196 149.921 157.769C149.63 158.332 149.218 158.805 148.687 159.191C148.156 159.576 147.52 159.868 146.781 160.066C146.052 160.253 145.244 160.347 144.359 160.347ZM160.25 152.05H157.921V151.285H160.187C161.458 151.285 162.474 151.144 163.234 150.863C163.994 150.571 164.541 150.16 164.875 149.628C165.218 149.097 165.39 148.477 165.39 147.769C165.39 147.05 165.213 146.404 164.859 145.832C164.515 145.259 163.963 144.805 163.203 144.472C162.453 144.139 161.458 143.972 160.218 143.972C159.312 143.972 158.463 144.134 157.671 144.457C156.88 144.779 156.239 145.233 155.75 145.816C155.26 146.389 155.015 147.071 155.015 147.863H154.156C154.156 146.894 154.442 146.055 155.015 145.347C155.588 144.639 156.333 144.092 157.25 143.707C158.177 143.321 159.166 143.128 160.218 143.128C161.156 143.128 161.994 143.233 162.734 143.441C163.484 143.639 164.119 143.941 164.64 144.347C165.161 144.743 165.557 145.233 165.828 145.816C166.109 146.399 166.25 147.066 166.25 147.816C166.25 148.399 166.119 148.946 165.859 149.457C165.609 149.967 165.234 150.42 164.734 150.816C164.234 151.201 163.609 151.503 162.859 151.722C162.109 151.941 161.239 152.05 160.25 152.05ZM157.921 151.41H160.25C161.333 151.41 162.265 151.509 163.046 151.707C163.838 151.894 164.494 152.175 165.015 152.55C165.536 152.925 165.921 153.389 166.171 153.941C166.421 154.483 166.546 155.108 166.546 155.816C166.546 156.576 166.395 157.253 166.093 157.847C165.791 158.441 165.359 158.946 164.796 159.363C164.234 159.779 163.567 160.097 162.796 160.316C162.026 160.535 161.171 160.644 160.234 160.644C159.244 160.644 158.26 160.467 157.281 160.113C156.302 159.748 155.489 159.196 154.843 158.457C154.197 157.717 153.875 156.779 153.875 155.644H154.734C154.734 156.436 154.974 157.144 155.453 157.769C155.942 158.394 156.599 158.889 157.421 159.253C158.255 159.608 159.192 159.785 160.234 159.785C161.432 159.785 162.432 159.628 163.234 159.316C164.046 158.993 164.656 158.54 165.062 157.957C165.479 157.363 165.687 156.665 165.687 155.863C165.687 154.988 165.484 154.279 165.078 153.738C164.671 153.186 164.062 152.785 163.25 152.535C162.437 152.274 161.416 152.144 160.187 152.144H157.921V151.41ZM181.656 157.175V148.441C181.656 147.503 181.453 146.701 181.046 146.035C180.651 145.368 180.067 144.858 179.296 144.503C178.536 144.149 177.604 143.972 176.5 143.972C175.479 143.972 174.557 144.154 173.734 144.519C172.921 144.873 172.276 145.363 171.796 145.988C171.328 146.613 171.093 147.316 171.093 148.097L170.25 148.066C170.25 147.41 170.401 146.785 170.703 146.191C171.015 145.597 171.447 145.071 172 144.613C172.562 144.154 173.224 143.795 173.984 143.535C174.755 143.264 175.593 143.128 176.5 143.128C177.677 143.128 178.713 143.326 179.609 143.722C180.515 144.118 181.224 144.712 181.734 145.503C182.244 146.295 182.5 147.285 182.5 148.472V156.941C182.5 157.545 182.536 158.154 182.609 158.769C182.692 159.384 182.802 159.863 182.937 160.207V160.347H181.968C181.864 159.941 181.786 159.451 181.734 158.878C181.682 158.295 181.656 157.727 181.656 157.175ZM182.031 150.91L182.062 151.769H177.656C176.562 151.769 175.583 151.878 174.718 152.097C173.854 152.305 173.119 152.602 172.515 152.988C171.911 153.373 171.447 153.832 171.125 154.363C170.802 154.894 170.64 155.483 170.64 156.128C170.64 156.805 170.822 157.425 171.187 157.988C171.562 158.55 172.078 158.998 172.734 159.332C173.39 159.665 174.145 159.832 175 159.832C176.187 159.832 177.239 159.639 178.156 159.253C179.072 158.858 179.849 158.305 180.484 157.597C181.119 156.889 181.604 156.05 181.937 155.082L182.312 155.863C182.114 156.446 181.817 157.024 181.421 157.597C181.036 158.16 180.541 158.675 179.937 159.144C179.333 159.602 178.619 159.972 177.796 160.253C176.984 160.524 176.052 160.66 175 160.66C173.947 160.66 173.031 160.467 172.25 160.082C171.468 159.686 170.864 159.144 170.437 158.457C170.01 157.759 169.796 156.962 169.796 156.066C169.796 155.316 169.974 154.628 170.328 154.003C170.682 153.368 171.192 152.821 171.859 152.363C172.536 151.894 173.359 151.535 174.328 151.285C175.296 151.035 176.39 150.91 177.609 150.91H182.031ZM188.796 158.847L199.25 143.441H200.109V160.347H199.25V144.941L188.796 160.347H187.953V143.441H188.796V158.847ZM214.468 159.066L222.156 143.441H223.109L214.796 160.347H214.14L205.859 143.441H206.781L214.468 159.066ZM206.468 143.441V160.347H205.625V143.441H206.468ZM222.312 160.347V143.441H223.171V160.347H222.312ZM227.265 152.222V151.566C227.265 150.326 227.442 149.191 227.796 148.16C228.161 147.128 228.666 146.238 229.312 145.488C229.968 144.738 230.75 144.16 231.656 143.753C232.562 143.337 233.562 143.128 234.656 143.128C235.76 143.128 236.765 143.337 237.671 143.753C238.578 144.16 239.359 144.738 240.015 145.488C240.671 146.238 241.177 147.128 241.531 148.16C241.885 149.191 242.062 150.326 242.062 151.566V152.222C242.062 153.462 241.885 154.597 241.531 155.628C241.177 156.66 240.671 157.55 240.015 158.3C239.369 159.05 238.593 159.634 237.687 160.05C236.781 160.457 235.781 160.66 234.687 160.66C233.583 160.66 232.578 160.457 231.671 160.05C230.765 159.634 229.984 159.05 229.328 158.3C228.671 157.55 228.161 156.66 227.796 155.628C227.442 154.597 227.265 153.462 227.265 152.222ZM228.109 151.566V152.222C228.109 153.233 228.255 154.196 228.546 155.113C228.849 156.019 229.281 156.826 229.843 157.535C230.406 158.243 231.093 158.8 231.906 159.207C232.718 159.613 233.645 159.816 234.687 159.816C235.718 159.816 236.635 159.613 237.437 159.207C238.25 158.8 238.937 158.243 239.5 157.535C240.062 156.826 240.489 156.019 240.781 155.113C241.072 154.196 241.218 153.233 241.218 152.222V151.566C241.218 150.576 241.072 149.628 240.781 148.722C240.489 147.816 240.057 147.009 239.484 146.3C238.921 145.582 238.234 145.014 237.421 144.597C236.609 144.18 235.687 143.972 234.656 143.972C233.625 143.972 232.703 144.18 231.89 144.597C231.088 145.014 230.401 145.582 229.828 146.3C229.265 147.009 228.838 147.816 228.546 148.722C228.255 149.628 228.109 150.576 228.109 151.566ZM248 143.441H248.843L248.531 149.316C248.447 150.951 248.27 152.378 248 153.597C247.739 154.816 247.421 155.858 247.046 156.722C246.682 157.587 246.291 158.311 245.875 158.894C245.468 159.477 245.067 159.962 244.671 160.347H244.046V159.503H244.406C244.656 159.17 244.947 158.759 245.281 158.269C245.614 157.779 245.947 157.154 246.281 156.394C246.614 155.634 246.906 154.68 247.156 153.535C247.416 152.378 247.593 150.972 247.687 149.316L248 143.441ZM248.5 143.441H257.078V160.347H256.234V144.285H248.5V143.441ZM243.281 159.503H258.421V165.316H257.578V160.347H243.968V165.316H243.281V159.503ZM268.5 160.66C267.468 160.66 266.505 160.457 265.609 160.05C264.713 159.634 263.927 159.05 263.25 158.3C262.572 157.55 262.041 156.665 261.656 155.644C261.281 154.613 261.093 153.483 261.093 152.253V151.566C261.093 150.326 261.276 149.196 261.64 148.175C262.015 147.144 262.526 146.253 263.171 145.503C263.828 144.743 264.583 144.16 265.437 143.753C266.291 143.337 267.208 143.128 268.187 143.128C269.125 143.128 269.984 143.305 270.765 143.66C271.546 144.003 272.224 144.493 272.796 145.128C273.38 145.764 273.828 146.524 274.14 147.41C274.453 148.295 274.609 149.274 274.609 150.347V151.332H261.64V150.488H273.765V150.285C273.765 149.149 273.536 148.108 273.078 147.16C272.619 146.201 271.974 145.43 271.14 144.847C270.307 144.264 269.322 143.972 268.187 143.972C267.25 143.972 266.395 144.17 265.625 144.566C264.864 144.962 264.208 145.509 263.656 146.207C263.104 146.894 262.677 147.696 262.375 148.613C262.083 149.529 261.937 150.514 261.937 151.566V152.253C261.937 153.305 262.104 154.29 262.437 155.207C262.77 156.123 263.234 156.93 263.828 157.628C264.421 158.316 265.114 158.858 265.906 159.253C266.708 159.639 267.572 159.832 268.5 159.832C269.468 159.832 270.369 159.67 271.203 159.347C272.046 159.024 272.817 158.41 273.515 157.503L274.109 157.925C273.734 158.457 273.281 158.93 272.75 159.347C272.229 159.753 271.614 160.076 270.906 160.316C270.208 160.545 269.406 160.66 268.5 160.66ZM279.39 158.847L289.843 143.441H290.703V160.347H289.843V144.941L279.39 160.347H278.546V143.441H279.39V158.847ZM288.015 137.425H288.859C288.859 138.186 288.687 138.858 288.343 139.441C288 140.024 287.5 140.483 286.843 140.816C286.197 141.139 285.421 141.3 284.515 141.3C283.161 141.3 282.093 140.941 281.312 140.222C280.541 139.493 280.156 138.561 280.156 137.425H281C281 138.248 281.26 138.957 281.781 139.55C282.312 140.134 283.224 140.425 284.515 140.425C285.755 140.425 286.645 140.128 287.187 139.535C287.739 138.93 288.015 138.227 288.015 137.425ZM301.812 159.816C302.697 159.816 303.536 159.66 304.328 159.347C305.13 159.024 305.796 158.524 306.328 157.847C306.869 157.17 307.171 156.295 307.234 155.222H308.078C308.026 156.368 307.708 157.347 307.125 158.16C306.541 158.972 305.786 159.592 304.859 160.019C303.932 160.446 302.916 160.66 301.812 160.66C300.718 160.66 299.739 160.457 298.875 160.05C298.02 159.634 297.296 159.05 296.703 158.3C296.119 157.55 295.671 156.66 295.359 155.628C295.057 154.597 294.906 153.462 294.906 152.222V151.566C294.906 150.326 295.057 149.191 295.359 148.16C295.671 147.128 296.119 146.238 296.703 145.488C297.296 144.738 298.015 144.16 298.859 143.753C299.713 143.337 300.687 143.128 301.781 143.128C302.875 143.128 303.885 143.352 304.812 143.8C305.75 144.238 306.515 144.894 307.109 145.769C307.703 146.644 308.026 147.727 308.078 149.019H307.234C307.182 147.894 306.895 146.962 306.375 146.222C305.864 145.472 305.203 144.91 304.39 144.535C303.578 144.16 302.708 143.972 301.781 143.972C300.75 143.972 299.854 144.17 299.093 144.566C298.333 144.951 297.703 145.493 297.203 146.191C296.713 146.889 296.349 147.696 296.109 148.613C295.869 149.529 295.75 150.514 295.75 151.566V152.222C295.75 153.285 295.869 154.274 296.109 155.191C296.349 156.108 296.713 156.915 297.203 157.613C297.703 158.3 298.333 158.842 299.093 159.238C299.864 159.623 300.77 159.816 301.812 159.816ZM317.406 143.441V160.347H316.562V143.441H317.406ZM324.046 143.441V144.3H310.265V143.441H324.046ZM334.39 152.207H328.062L328.031 151.363H333.625C334.76 151.363 335.708 151.227 336.468 150.957C337.239 150.686 337.822 150.285 338.218 149.753C338.614 149.212 338.812 148.55 338.812 147.769C338.812 147.165 338.692 146.644 338.453 146.207C338.224 145.769 337.875 145.41 337.406 145.128C336.947 144.847 336.375 144.639 335.687 144.503C335 144.368 334.208 144.3 333.312 144.3H328.343V160.347H327.5V143.441H333.312C334.291 143.441 335.171 143.529 335.953 143.707C336.734 143.884 337.401 144.149 337.953 144.503C338.505 144.858 338.927 145.311 339.218 145.863C339.51 146.415 339.656 147.066 339.656 147.816C339.656 148.337 339.562 148.826 339.375 149.285C339.197 149.733 338.932 150.139 338.578 150.503C338.224 150.858 337.791 151.149 337.281 151.378C336.77 151.597 336.182 151.733 335.515 151.785L334.39 152.207ZM334.39 160.347H327.937V159.503H334.39C335.453 159.503 336.369 159.363 337.14 159.082C337.921 158.8 338.52 158.384 338.937 157.832C339.354 157.269 339.562 156.587 339.562 155.785C339.562 155.076 339.354 154.457 338.937 153.925C338.52 153.384 337.921 152.962 337.14 152.66C336.369 152.358 335.453 152.207 334.39 152.207H330.14L330.171 151.363H335.796L336.328 151.675C337.109 151.759 337.802 151.993 338.406 152.378C339.02 152.764 339.505 153.253 339.859 153.847C340.213 154.43 340.39 155.071 340.39 155.769C340.39 156.529 340.244 157.196 339.953 157.769C339.661 158.332 339.25 158.805 338.718 159.191C338.187 159.576 337.552 159.868 336.812 160.066C336.083 160.253 335.276 160.347 334.39 160.347ZM345.734 158.847L356.187 143.441H357.046V160.347H356.187V144.941L345.734 160.347H344.89V143.441H345.734V158.847ZM366.375 152.91H367.39L362.906 160.347H361.906L366.375 152.91ZM367.921 143.441H374.171V160.347H373.328V144.3H367.921C366.776 144.3 365.843 144.493 365.125 144.878C364.406 145.253 363.88 145.753 363.546 146.378C363.224 147.003 363.062 147.68 363.062 148.41C363.062 149.097 363.203 149.748 363.484 150.363C363.776 150.977 364.229 151.483 364.843 151.878C365.468 152.264 366.276 152.457 367.265 152.457H373.875V153.316H367.265C366.453 153.316 365.729 153.196 365.093 152.957C364.468 152.707 363.942 152.363 363.515 151.925C363.088 151.477 362.765 150.951 362.546 150.347C362.328 149.743 362.218 149.087 362.218 148.378C362.218 147.67 362.343 147.019 362.593 146.425C362.843 145.821 363.208 145.295 363.687 144.847C364.166 144.399 364.76 144.055 365.468 143.816C366.187 143.566 367.005 143.441 367.921 143.441Z" fill="white"/>
<path d="M74.0715 133.367L183.099 35.6961" stroke="url(#paint0_linear_33_53)" stroke-width="3"/>
<path d="M145.837 56.6552L204.737 0.731188" stroke="url(#paint1_linear_33_53)"/>
<path d="M24.585 34.2233V35.5416H0.65918V34.2233H24.585ZM1.31836 17.6217V53.1686H0V17.6217H1.31836ZM25.3418 17.6217V53.1686H24.0234V17.6217H25.3418ZM51.001 48.2125V34.5651C51.001 33.1002 50.6836 31.847 50.0488 30.8053C49.4304 29.7636 48.5189 28.9661 47.3145 28.4127C46.1263 27.8593 44.6696 27.5827 42.9443 27.5827C41.3493 27.5827 39.9089 27.8675 38.6231 28.4371C37.3535 28.9905 36.3444 29.7555 35.5957 30.7321C34.8633 31.7086 34.4971 32.8073 34.4971 34.028L33.1787 33.9791C33.1787 32.9537 33.4147 31.9772 33.8867 31.0495C34.375 30.1217 35.0505 29.2998 35.9131 28.5836C36.792 27.8675 37.8255 27.306 39.0137 26.8991C40.2181 26.4759 41.5283 26.2643 42.9443 26.2643C44.7835 26.2643 46.403 26.5735 47.8027 27.192C49.2188 27.8105 50.3255 28.7383 51.1231 29.9752C51.9206 31.2122 52.3193 32.7584 52.3193 34.6139V47.8463C52.3193 48.7903 52.3763 49.7425 52.4902 50.7028C52.6205 51.6631 52.7914 52.4118 53.0029 52.9489V53.1686H51.4893C51.3265 52.5338 51.2044 51.7689 51.1231 50.8737C51.0417 49.9622 51.001 49.0752 51.001 48.2125ZM51.5869 38.4225L51.6358 39.7653H44.751C43.042 39.7653 41.5121 39.9362 40.1611 40.278C38.8102 40.6035 37.6628 41.0674 36.7188 41.6696C35.7748 42.2718 35.0505 42.9879 34.5459 43.818C34.0414 44.6481 33.7891 45.5677 33.7891 46.5768C33.7891 47.6347 34.0739 48.6032 34.6436 49.4821C35.2295 50.361 36.0352 51.0608 37.0606 51.5817C38.086 52.1025 39.266 52.3629 40.6006 52.3629C42.4561 52.3629 44.0999 52.0618 45.5322 51.4596C46.9645 50.8411 48.1771 49.9785 49.1699 48.8717C50.1628 47.7649 50.9196 46.4547 51.4404 44.9411L52.0264 46.1618C51.7171 47.0732 51.2533 47.9765 50.6348 48.8717C50.0326 49.7506 49.2595 50.5563 48.3154 51.2887C47.3714 52.0049 46.2565 52.5827 44.9707 53.0221C43.7012 53.4453 42.2445 53.6569 40.6006 53.6569C38.9567 53.6569 37.5244 53.3558 36.3037 52.7536C35.083 52.1351 34.139 51.2887 33.4717 50.2145C32.8044 49.124 32.4707 47.8789 32.4707 46.4791C32.4707 45.3073 32.7474 44.233 33.3008 43.2565C33.8542 42.2636 34.6517 41.4092 35.6934 40.693C36.7513 39.9606 38.0371 39.3991 39.5508 39.0084C41.0645 38.6178 42.7734 38.4225 44.6777 38.4225H51.5869ZM60.8399 26.7526H62.1582V51.8502H76.001V26.7526H77.3438V51.8502H90.9668V26.7526H92.2852V53.1686H60.8399V26.7526ZM116.333 48.2125V34.5651C116.333 33.1002 116.015 31.847 115.381 30.8053C114.762 29.7636 113.851 28.9661 112.646 28.4127C111.458 27.8593 110.001 27.5827 108.276 27.5827C106.681 27.5827 105.241 27.8675 103.955 28.4371C102.685 28.9905 101.676 29.7555 100.928 30.7321C100.195 31.7086 99.8292 32.8073 99.8292 34.028L98.5112 33.9791C98.5112 32.9537 98.7472 31.9772 99.2192 31.0495C99.7072 30.1217 100.382 29.2998 101.245 28.5836C102.124 27.8675 103.157 27.306 104.346 26.8991C105.55 26.4759 106.86 26.2643 108.276 26.2643C110.115 26.2643 111.735 26.5735 113.135 27.192C114.551 27.8105 115.657 28.7383 116.455 29.9752C117.252 31.2122 117.651 32.7584 117.651 34.6139V47.8463C117.651 48.7903 117.708 49.7425 117.822 50.7028C117.952 51.6631 118.123 52.4118 118.335 52.9489V53.1686H116.821C116.658 52.5338 116.536 51.7689 116.455 50.8737C116.374 49.9622 116.333 49.0752 116.333 48.2125ZM116.919 38.4225L116.968 39.7653H110.083C108.374 39.7653 106.844 39.9362 105.493 40.278C104.142 40.6035 102.995 41.0674 102.051 41.6696C101.107 42.2718 100.382 42.9879 99.8782 43.818C99.3732 44.6481 99.1212 45.5677 99.1212 46.5768C99.1212 47.6347 99.4062 48.6032 99.9752 49.4821C100.561 50.361 101.367 51.0608 102.392 51.5817C103.418 52.1025 104.598 52.3629 105.932 52.3629C107.788 52.3629 109.432 52.0618 110.864 51.4596C112.296 50.8411 113.509 49.9785 114.502 48.8717C115.495 47.7649 116.251 46.4547 116.772 44.9411L117.358 46.1618C117.049 47.0732 116.585 47.9765 115.967 48.8717C115.364 49.7506 114.591 50.5563 113.647 51.2887C112.703 52.0049 111.588 52.5827 110.303 53.0221C109.033 53.4453 107.576 53.6569 105.932 53.6569C104.289 53.6569 102.856 53.3558 101.636 52.7536C100.415 52.1351 99.4712 51.2887 98.8042 50.2145C98.1362 49.124 97.8032 47.8789 97.8032 46.4791C97.8032 45.3073 98.0792 44.233 98.6332 43.2565C99.1862 42.2636 99.9842 41.4092 101.025 40.693C102.083 39.9606 103.369 39.3991 104.883 39.0084C106.396 38.6178 108.105 38.4225 110.01 38.4225H116.919Z" fill="white"/>
<defs>
<linearGradient id="paint0_linear_33_53" x1="-nan" y1="-nan" x2="-nan" y2="-nan" gradientUnits="userSpaceOnUse">
<stop stop-color="#DA22FF"/>
<stop offset="1" stop-color="#9733EE"/>
</linearGradient>
<linearGradient id="paint1_linear_33_53" x1="-nan" y1="-nan" x2="-nan" y2="-nan" gradientUnits="userSpaceOnUse">
<stop stop-color="#DA22FF"/>
<stop offset="1" stop-color="#9733EE"/>
</linearGradient>
</defs>
</svg>
