<svg width="385" height="135" viewBox="0 0 385 135" fill="none" xmlns="http://www.w3.org/2000/svg">
<path d="M261.224 117.359L269.442 95.8699H270.761L260.192 123.599C260.001 124.097 259.767 124.669 259.489 125.313C259.225 125.958 258.866 126.58 258.412 127.181C257.958 127.782 257.365 128.272 256.632 128.653C255.914 129.049 255.014 129.246 253.93 129.246C253.695 129.246 253.388 129.224 253.007 129.18C252.626 129.137 252.348 129.078 252.172 129.005L252.15 127.884C252.37 127.943 252.655 127.987 253.007 128.016C253.358 128.06 253.607 128.082 253.754 128.082C254.735 128.082 255.548 127.877 256.193 127.467C256.852 127.071 257.401 126.514 257.841 125.797C258.28 125.094 258.668 124.288 259.005 123.38L261.224 117.359ZM252.26 95.8699L261.246 118.238L261.62 119.425L260.675 120.106L250.963 95.8699H252.26ZM283.043 118.897C284.288 118.897 285.468 118.678 286.581 118.238C287.709 117.784 288.646 117.081 289.393 116.129C290.155 115.177 290.58 113.946 290.668 112.437H291.854C291.781 114.049 291.334 115.426 290.514 116.568C289.694 117.711 288.632 118.582 287.328 119.183C286.024 119.784 284.596 120.084 283.043 120.084C281.505 120.084 280.128 119.798 278.912 119.227C277.711 118.641 276.693 117.821 275.858 116.766C275.038 115.711 274.408 114.459 273.969 113.009C273.544 111.558 273.331 109.962 273.331 108.219V107.296C273.331 105.553 273.544 103.956 273.969 102.506C274.408 101.055 275.038 99.803 275.858 98.7484C276.693 97.6937 277.704 96.8807 278.891 96.3094C280.092 95.7234 281.461 95.4305 282.999 95.4305C284.537 95.4305 285.958 95.7454 287.262 96.3753C288.58 96.9905 289.657 97.9134 290.492 99.1439C291.327 100.374 291.781 101.898 291.854 103.714H290.668C290.595 102.132 290.192 100.821 289.459 99.7811C288.742 98.7264 287.811 97.9354 286.669 97.408C285.526 96.8807 284.303 96.617 282.999 96.617C281.549 96.617 280.289 96.8953 279.22 97.452C278.151 97.994 277.265 98.7557 276.561 99.7371C275.873 100.719 275.36 101.854 275.023 103.143C274.686 104.432 274.518 105.816 274.518 107.296V108.219C274.518 109.713 274.686 111.104 275.023 112.393C275.36 113.682 275.873 114.818 276.561 115.799C277.265 116.766 278.151 117.528 279.22 118.084C280.304 118.626 281.578 118.897 283.043 118.897ZM314.201 95.8699V97.0784H301.632V95.8699H314.201ZM314.926 95.8699V119.644H313.717V95.8699H314.926ZM301.193 95.8699H302.379L301.94 106.68C301.867 108.526 301.742 110.159 301.566 111.58C301.405 113.001 301.178 114.224 300.885 115.25C300.592 116.261 300.211 117.096 299.743 117.755C299.288 118.399 298.732 118.875 298.073 119.183C297.413 119.491 296.63 119.644 295.722 119.644H295.018V118.48H295.787C296.417 118.48 296.981 118.37 297.479 118.15C297.977 117.916 298.41 117.535 298.776 117.008C299.157 116.48 299.479 115.77 299.743 114.876C300.006 113.968 300.219 112.84 300.38 111.492C300.556 110.145 300.68 108.541 300.753 106.68L301.193 95.8699ZM329.911 117.359L338.129 95.8699H339.447L328.878 123.599C328.688 124.097 328.453 124.669 328.175 125.313C327.911 125.958 327.553 126.58 327.099 127.181C326.644 127.782 326.051 128.272 325.319 128.653C324.601 129.049 323.7 129.246 322.616 129.246C322.382 129.246 322.074 129.224 321.693 129.18C321.312 129.137 321.034 129.078 320.858 129.005L320.836 127.884C321.056 127.943 321.342 127.987 321.693 128.016C322.045 128.06 322.294 128.082 322.44 128.082C323.422 128.082 324.235 127.877 324.879 127.467C325.538 127.071 326.088 126.514 326.527 125.797C326.967 125.094 327.355 124.288 327.692 123.38L329.911 117.359ZM320.946 95.8699L329.933 118.238L330.307 119.425L329.362 120.106L319.65 95.8699H320.946ZM358.256 95.8699V97.0784H345.16V119.644H343.974V95.8699H358.256ZM364.232 117.535L378.932 95.8699H380.141V119.644H378.932V97.9793L364.232 119.644H363.046V95.8699H364.232V117.535Z" fill="white"/>
<path d="M173.296 133.805L282.5 35.8059" stroke="url(#paint0_linear_33_19)" stroke-width="3"/>
<path d="M245.177 56.8331L304.173 0.720729" stroke="url(#paint1_linear_33_19)"/>
<path d="M30.4582 30.3828V35.4922C30.4582 37.7109 30.1535 39.7422 29.5442 41.5859C28.9504 43.4141 28.091 44.9922 26.966 46.3203C25.8567 47.6484 24.5129 48.6719 22.9348 49.3906C21.3567 50.1094 19.5832 50.4688 17.6145 50.4688C15.6614 50.4688 13.8879 50.1094 12.2942 49.3906C10.716 48.6719 9.35669 47.6484 8.21607 46.3203C7.09107 44.9922 6.22388 43.4141 5.61451 41.5859C5.02076 39.7422 4.72388 37.7109 4.72388 35.4922V30.3828C4.72388 28.1484 5.02076 26.1172 5.61451 24.2891C6.22388 22.4609 7.09107 20.8828 8.21607 19.5547C9.34107 18.2266 10.6926 17.2031 12.2707 16.4844C13.8489 15.7656 15.6145 15.4062 17.5676 15.4062C19.5364 15.4062 21.3098 15.7656 22.8879 16.4844C24.466 17.2031 25.8176 18.2266 26.9426 19.5547C28.0832 20.8828 28.9504 22.4609 29.5442 24.2891C30.1535 26.1172 30.4582 28.1484 30.4582 30.3828ZM29.1926 35.4922V30.3359C29.1926 28.3359 28.9348 26.5078 28.4192 24.8516C27.9035 23.1797 27.1457 21.7344 26.1457 20.5156C25.1457 19.2969 23.927 18.3516 22.4895 17.6797C21.052 17.0078 19.4114 16.6719 17.5676 16.6719C15.7395 16.6719 14.1067 17.0078 12.6692 17.6797C11.2473 18.3516 10.0364 19.2969 9.03638 20.5156C8.05201 21.7344 7.30201 23.1797 6.78638 24.8516C6.27076 26.5078 6.01294 28.3359 6.01294 30.3359V35.4922C6.01294 37.5078 6.27076 39.3516 6.78638 41.0234C7.31763 42.6953 8.07544 44.1406 9.05982 45.3594C10.0598 46.5781 11.2785 47.5234 12.716 48.1953C14.1535 48.8672 15.7864 49.2031 17.6145 49.2031C19.4582 49.2031 21.091 48.8672 22.5129 48.1953C23.9504 47.5234 25.1614 46.5781 26.1457 45.3594C27.1457 44.1406 27.9035 42.6953 28.4192 41.0234C28.9348 39.3516 29.1926 37.5078 29.1926 35.4922ZM46.2082 49.2031C47.5364 49.2031 48.7942 48.9688 49.9817 48.5C51.1848 48.0156 52.1848 47.2656 52.9817 46.25C53.7942 45.2344 54.2473 43.9219 54.341 42.3125H55.6067C55.5285 44.0312 55.052 45.5 54.177 46.7188C53.302 47.9375 52.1692 48.8672 50.7785 49.5078C49.3879 50.1484 47.8645 50.4688 46.2082 50.4688C44.5676 50.4688 43.0989 50.1641 41.802 49.5547C40.5207 48.9297 39.4348 48.0547 38.5442 46.9297C37.6692 45.8047 36.9973 44.4688 36.5285 42.9219C36.0754 41.375 35.8489 39.6719 35.8489 37.8125V36.8281C35.8489 34.9688 36.0754 33.2656 36.5285 31.7188C36.9973 30.1719 37.6692 28.8359 38.5442 27.7109C39.4348 26.5859 40.5129 25.7188 41.7785 25.1094C43.0598 24.4844 44.5207 24.1719 46.1614 24.1719C47.802 24.1719 49.3176 24.5078 50.7082 25.1797C52.1145 25.8359 53.2629 26.8203 54.1535 28.1328C55.0442 29.4453 55.5285 31.0703 55.6067 33.0078H54.341C54.2629 31.3203 53.8332 29.9219 53.052 28.8125C52.2864 27.6875 51.2942 26.8438 50.0754 26.2812C48.8567 25.7188 47.552 25.4375 46.1614 25.4375C44.6145 25.4375 43.2707 25.7344 42.1301 26.3281C40.9895 26.9062 40.0442 27.7188 39.2942 28.7656C38.5598 29.8125 38.0129 31.0234 37.6535 32.3984C37.2942 33.7734 37.1145 35.25 37.1145 36.8281V37.8125C37.1145 39.4062 37.2942 40.8906 37.6535 42.2656C38.0129 43.6406 38.5598 44.8516 39.2942 45.8984C40.0442 46.9297 40.9895 47.7422 42.1301 48.3359C43.2864 48.9141 44.6457 49.2031 46.2082 49.2031ZM79.3723 36.3359V37.6016H62.7317V36.3359H79.3723ZM63.2473 24.6406V50H61.9817V24.6406H63.2473ZM80.216 24.6406V50H78.927V24.6406H80.216ZM86.3567 37.8125V36.8281C86.3567 34.9688 86.6223 33.2656 87.1535 31.7188C87.7004 30.1719 88.4582 28.8359 89.427 27.7109C90.4114 26.5859 91.5832 25.7188 92.9426 25.1094C94.302 24.4844 95.802 24.1719 97.4426 24.1719C99.0989 24.1719 100.607 24.4844 101.966 25.1094C103.325 25.7188 104.497 26.5859 105.482 27.7109C106.466 28.8359 107.224 30.1719 107.755 31.7188C108.286 33.2656 108.552 34.9688 108.552 36.8281V37.8125C108.552 39.6719 108.286 41.375 107.755 42.9219C107.224 44.4688 106.466 45.8047 105.482 46.9297C104.513 48.0547 103.349 48.9297 101.989 49.5547C100.63 50.1641 99.1301 50.4688 97.4895 50.4688C95.8332 50.4688 94.3254 50.1641 92.966 49.5547C91.6067 48.9297 90.4348 48.0547 89.4504 46.9297C88.466 45.8047 87.7004 44.4688 87.1535 42.9219C86.6223 41.375 86.3567 39.6719 86.3567 37.8125ZM87.6223 36.8281V37.8125C87.6223 39.3281 87.841 40.7734 88.2785 42.1484C88.7317 43.5078 89.3801 44.7188 90.2239 45.7812C91.0676 46.8438 92.0989 47.6797 93.3176 48.2891C94.5364 48.8984 95.927 49.2031 97.4895 49.2031C99.0364 49.2031 100.411 48.8984 101.614 48.2891C102.833 47.6797 103.864 46.8438 104.708 45.7812C105.552 44.7188 106.193 43.5078 106.63 42.1484C107.068 40.7734 107.286 39.3281 107.286 37.8125V36.8281C107.286 35.3438 107.068 33.9219 106.63 32.5625C106.193 31.2031 105.544 29.9922 104.685 28.9297C103.841 27.8516 102.81 27 101.591 26.375C100.372 25.75 98.9895 25.4375 97.4426 25.4375C95.8957 25.4375 94.5129 25.75 93.2942 26.375C92.091 27 91.0598 27.8516 90.2004 28.9297C89.3567 29.9922 88.716 31.2031 88.2785 32.5625C87.841 33.9219 87.6223 35.3438 87.6223 36.8281ZM125.263 37.7891H115.771L115.724 36.5234H124.114C125.818 36.5234 127.239 36.3203 128.38 35.9141C129.536 35.5078 130.411 34.9062 131.005 34.1094C131.599 33.2969 131.896 32.3047 131.896 31.1328C131.896 30.2266 131.716 29.4453 131.357 28.7891C131.013 28.1328 130.489 27.5938 129.786 27.1719C129.099 26.75 128.239 26.4375 127.208 26.2344C126.177 26.0312 124.989 25.9297 123.646 25.9297H116.193V50H114.927V24.6406H123.646C125.114 24.6406 126.435 24.7734 127.607 25.0391C128.779 25.3047 129.779 25.7031 130.607 26.2344C131.435 26.7656 132.068 27.4453 132.505 28.2734C132.943 29.1016 133.161 30.0781 133.161 31.2031C133.161 31.9844 133.021 32.7188 132.739 33.4062C132.474 34.0781 132.075 34.6875 131.544 35.2344C131.013 35.7656 130.364 36.2031 129.599 36.5469C128.833 36.875 127.95 37.0781 126.95 37.1562L125.263 37.7891ZM125.263 50H115.583V48.7344H125.263C126.857 48.7344 128.232 48.5234 129.388 48.1016C130.56 47.6797 131.458 47.0547 132.083 46.2266C132.708 45.3828 133.021 44.3594 133.021 43.1562C133.021 42.0938 132.708 41.1641 132.083 40.3672C131.458 39.5547 130.56 38.9219 129.388 38.4688C128.232 38.0156 126.857 37.7891 125.263 37.7891H118.888L118.935 36.5234H127.372L128.169 36.9922C129.341 37.1172 130.38 37.4688 131.286 38.0469C132.208 38.625 132.935 39.3594 133.466 40.25C133.997 41.125 134.263 42.0859 134.263 43.1328C134.263 44.2734 134.044 45.2734 133.607 46.1328C133.169 46.9766 132.552 47.6875 131.755 48.2656C130.958 48.8438 130.005 49.2812 128.896 49.5781C127.802 49.8594 126.591 50 125.263 50ZM158.404 36.3359V37.6016H141.763V36.3359H158.404ZM142.279 24.6406V50H141.013V24.6406H142.279ZM159.247 24.6406V50H157.958V24.6406H159.247ZM167.966 34.2969H176.872C178.825 34.2969 180.474 34.6406 181.818 35.3281C183.177 36 184.2 36.9297 184.888 38.1172C185.591 39.3047 185.943 40.6484 185.943 42.1484C185.943 43.2891 185.747 44.3359 185.357 45.2891C184.966 46.2422 184.38 47.0703 183.599 47.7734C182.833 48.4766 181.888 49.0234 180.763 49.4141C179.638 49.8047 178.341 50 176.872 50H167.521V24.6406H168.786V48.7344H176.872C178.716 48.7344 180.208 48.4219 181.349 47.7969C182.505 47.1719 183.349 46.3594 183.88 45.3594C184.411 44.3438 184.677 43.2578 184.677 42.1016C184.677 40.9922 184.411 39.9375 183.88 38.9375C183.349 37.9375 182.505 37.125 181.349 36.5C180.208 35.875 178.716 35.5625 176.872 35.5625H167.966V34.2969ZM194.099 24.6406V50H192.833V24.6406H194.099ZM211.255 50.4688C209.708 50.4688 208.263 50.1641 206.919 49.5547C205.575 48.9297 204.396 48.0547 203.38 46.9297C202.364 45.8047 201.568 44.4766 200.989 42.9453C200.427 41.3984 200.146 39.7031 200.146 37.8594V36.8281C200.146 34.9688 200.419 33.2734 200.966 31.7422C201.529 30.1953 202.294 28.8594 203.263 27.7344C204.247 26.5938 205.38 25.7188 206.661 25.1094C207.943 24.4844 209.318 24.1719 210.786 24.1719C212.193 24.1719 213.482 24.4375 214.654 24.9688C215.825 25.4844 216.841 26.2188 217.7 27.1719C218.575 28.125 219.247 29.2656 219.716 30.5938C220.185 31.9219 220.419 33.3906 220.419 35V36.4766H200.966V35.2109H219.154V34.9062C219.154 33.2031 218.81 31.6406 218.122 30.2188C217.435 28.7812 216.466 27.625 215.216 26.75C213.966 25.875 212.489 25.4375 210.786 25.4375C209.38 25.4375 208.099 25.7344 206.943 26.3281C205.802 26.9219 204.818 27.7422 203.989 28.7891C203.161 29.8203 202.521 31.0234 202.068 32.3984C201.63 33.7734 201.411 35.25 201.411 36.8281V37.8594C201.411 39.4375 201.661 40.9141 202.161 42.2891C202.661 43.6641 203.357 44.875 204.247 45.9219C205.138 46.9531 206.177 47.7656 207.364 48.3594C208.568 48.9375 209.864 49.2266 211.255 49.2266C212.708 49.2266 214.06 48.9844 215.31 48.5C216.575 48.0156 217.732 47.0938 218.779 45.7344L219.669 46.3672C219.107 47.1641 218.427 47.875 217.63 48.5C216.849 49.1094 215.927 49.5938 214.864 49.9531C213.818 50.2969 212.614 50.4688 211.255 50.4688Z" fill="white"/>
<defs>
<linearGradient id="paint0_linear_33_19" x1="-nan" y1="-nan" x2="-nan" y2="-nan" gradientUnits="userSpaceOnUse">
<stop stop-color="#DA22FF"/>
<stop offset="1" stop-color="#9733EE"/>
</linearGradient>
<linearGradient id="paint1_linear_33_19" x1="-nan" y1="-nan" x2="-nan" y2="-nan" gradientUnits="userSpaceOnUse">
<stop stop-color="#DA22FF"/>
<stop offset="1" stop-color="#9733EE"/>
</linearGradient>
</defs>
</svg>
