<svg width="353" height="143" viewBox="0 0 353 143" fill="none" xmlns="http://www.w3.org/2000/svg">
<path d="M268.709 108.955C268.709 107.45 268.448 106.109 267.924 104.931C267.401 103.754 266.561 102.696 265.405 101.758C264.249 100.82 262.734 99.9586 260.858 99.1735C259.004 98.3883 256.725 97.625 254.021 96.8834C251.6 96.2291 249.419 95.5312 247.478 94.7897C245.536 94.0263 243.879 93.1539 242.505 92.1725C241.153 91.191 240.117 90.0242 239.397 88.672C238.677 87.298 238.317 85.6513 238.317 83.7321C238.317 81.9218 238.71 80.297 239.495 78.8575C240.302 77.4181 241.414 76.1967 242.832 75.1935C244.271 74.1902 245.951 73.4269 247.87 72.9034C249.789 72.3582 251.872 72.0856 254.119 72.0856C257.216 72.0856 259.953 72.6744 262.33 73.8522C264.707 75.0299 266.572 76.6766 267.924 78.7921C269.298 80.8859 269.985 83.3395 269.985 86.153H268.219C268.219 83.7975 267.63 81.6928 266.452 79.839C265.274 77.9851 263.628 76.5239 261.512 75.4552C259.418 74.3865 256.954 73.8522 254.119 73.8522C251.131 73.8522 248.59 74.3102 246.496 75.2262C244.402 76.1422 242.81 77.3527 241.72 78.8575C240.629 80.3406 240.084 81.9436 240.084 83.6666C240.084 84.9316 240.302 86.1093 240.738 87.1998C241.196 88.2903 241.96 89.3045 243.028 90.2423C244.097 91.1583 245.569 92.0307 247.445 92.8595C249.32 93.6665 251.676 94.4407 254.511 95.1823C256.867 95.7929 259.015 96.4799 260.956 97.2433C262.919 98.0066 264.609 98.9117 266.027 99.9586C267.466 101.005 268.568 102.26 269.331 103.721C270.116 105.16 270.509 106.883 270.509 108.89C270.509 110.831 270.083 112.554 269.233 114.059C268.404 115.564 267.248 116.839 265.765 117.886C264.282 118.911 262.559 119.697 260.596 120.242C258.655 120.765 256.572 121.027 254.348 121.027C252.319 121.027 250.269 120.787 248.197 120.307C246.125 119.827 244.228 119.053 242.505 117.984C240.782 116.894 239.397 115.444 238.35 113.633C237.303 111.823 236.78 109.588 236.78 106.927H238.546C238.546 109.304 239.037 111.289 240.019 112.881C241 114.473 242.276 115.738 243.846 116.676C245.438 117.592 247.15 118.257 248.982 118.672C250.836 119.064 252.625 119.26 254.348 119.26C257.139 119.26 259.615 118.824 261.774 117.952C263.933 117.079 265.623 115.869 266.845 114.32C268.088 112.772 268.709 110.984 268.709 108.955ZM276.234 103.361V101.987C276.234 99.3916 276.605 97.0143 277.346 94.8551C278.11 92.6959 279.167 90.8312 280.52 89.2609C281.894 87.6906 283.529 86.4801 285.427 85.6295C287.324 84.7571 289.418 84.3209 291.708 84.3209C294.02 84.3209 296.125 84.7571 298.022 85.6295C299.919 86.4801 301.555 87.6906 302.929 89.2609C304.303 90.8312 305.361 92.6959 306.103 94.8551C306.844 97.0143 307.215 99.3916 307.215 101.987V103.361C307.215 105.956 306.844 108.334 306.103 110.493C305.361 112.652 304.303 114.517 302.929 116.087C301.577 117.657 299.952 118.879 298.055 119.751C296.157 120.602 294.063 121.027 291.773 121.027C289.462 121.027 287.357 120.602 285.459 119.751C283.562 118.879 281.926 117.657 280.552 116.087C279.178 114.517 278.11 112.652 277.346 110.493C276.605 108.334 276.234 105.956 276.234 103.361ZM278 101.987V103.361C278 105.477 278.306 107.494 278.917 109.413C279.549 111.311 280.454 113.001 281.632 114.484C282.81 115.967 284.249 117.134 285.95 117.984C287.651 118.835 289.592 119.26 291.773 119.26C293.933 119.26 295.852 118.835 297.531 117.984C299.232 117.134 300.672 115.967 301.85 114.484C303.027 113.001 303.922 111.311 304.532 109.413C305.143 107.494 305.448 105.477 305.448 103.361V101.987C305.448 99.915 305.143 97.9303 304.532 96.0328C303.922 94.1354 303.016 92.4451 301.817 90.962C300.639 89.4572 299.2 88.2685 297.499 87.3961C295.797 86.5237 293.867 86.0875 291.708 86.0875C289.549 86.0875 287.619 86.5237 285.917 87.3961C284.238 88.2685 282.799 89.4572 281.599 90.962C280.421 92.4451 279.527 94.1354 278.917 96.0328C278.306 97.9303 278 99.915 278 101.987ZM320.268 120.373H318.501V79.9371C318.501 77.6689 318.872 75.7605 319.614 74.212C320.355 72.6417 321.413 71.4531 322.787 70.6461C324.183 69.8392 325.84 69.4357 327.76 69.4357C328.436 69.4357 329.134 69.4793 329.854 69.5665C330.573 69.632 331.271 69.7737 331.947 69.9918L331.686 71.693C331.075 71.5185 330.497 71.3986 329.952 71.3331C329.406 71.2459 328.687 71.2023 327.792 71.2023C326.244 71.2023 324.903 71.5512 323.769 72.2491C322.656 72.9253 321.795 73.9176 321.184 75.2262C320.573 76.513 320.268 78.0833 320.268 79.9371V120.373ZM329.625 84.9752V86.7745H312.351V84.9752H329.625ZM348.959 84.9752V86.7745H332.569V84.9752H348.959ZM339.112 75.4225H340.911V111.9C340.911 113.971 341.151 115.542 341.631 116.61C342.132 117.657 342.787 118.366 343.594 118.737C344.423 119.086 345.306 119.26 346.244 119.26C346.92 119.26 347.52 119.239 348.043 119.195C348.566 119.13 349.133 119.053 349.744 118.966L350.039 120.634C349.559 120.787 348.937 120.885 348.174 120.929C347.41 120.994 346.8 121.027 346.342 121.027C344.837 121.027 343.539 120.765 342.449 120.242C341.38 119.697 340.551 118.759 339.962 117.428C339.395 116.098 339.112 114.255 339.112 111.9V75.4225Z" fill="white"/>
<line x1="140.897" y1="141.094" x2="249.71" y2="43.0948" stroke="url(#paint0_linear_1_21)" stroke-width="3"/>
<line x1="212.521" y1="64.1233" x2="271.306" y2="8.01092" stroke="url(#paint1_linear_1_21)"/>
<path d="M34.1809 14.7128H35.8157V44.5927C35.8157 47.8824 35.1597 50.6272 33.8479 52.827C32.5361 55.0269 30.7398 56.6718 28.4592 57.7616C26.1988 58.8514 23.6357 59.3964 20.7698 59.3964C17.9039 59.3964 15.3306 58.8514 13.05 57.7616C10.7896 56.6718 8.99341 55.0269 7.66138 52.827C6.34953 50.6272 5.6936 47.8824 5.6936 44.5927V14.7128H7.32837V44.5927C7.32837 47.4182 7.91366 49.8199 9.08423 51.7977C10.275 53.7554 11.8795 55.2388 13.8977 56.2479C15.9361 57.257 18.2268 57.7616 20.7698 57.7616C23.3127 57.7616 25.5933 57.257 27.6116 56.2479C29.65 55.2388 31.2545 53.7554 32.425 51.7977C33.5956 49.8199 34.1809 47.4182 34.1809 44.5927V14.7128ZM48.2883 33.0282V58.7909H46.6536V26.035H48.2883V33.0282ZM48.0159 39.5975L47.1379 37.8719C47.3398 36.2574 47.7838 34.7134 48.47 33.2401C49.1562 31.7466 50.0543 30.4146 51.1643 29.244C52.2743 28.0734 53.566 27.1451 55.0393 26.4589C56.5126 25.7727 58.1373 25.4296 59.9133 25.4296C61.5683 25.4296 63.0416 25.6617 64.3333 26.1259C65.6249 26.5699 66.7148 27.2863 67.6028 28.2753C68.4908 29.244 69.1669 30.4953 69.6311 32.0292C70.0953 33.563 70.3274 35.4198 70.3274 37.5995V58.7909H68.6926V37.5995C68.6926 34.8143 68.3092 32.6649 67.5422 31.1512C66.7955 29.6174 65.7561 28.5477 64.4241 27.9423C63.092 27.3368 61.5582 27.0341 59.8225 27.0341C57.7639 27.0341 55.998 27.4983 54.5247 28.4266C53.0715 29.3348 51.8707 30.4751 50.9221 31.8475C49.9937 33.2199 49.2874 34.6125 48.803 36.0253C48.3388 37.438 48.0764 38.6288 48.0159 39.5975ZM82.6487 26.035V58.7909H81.0139V26.035H82.6487ZM80.1663 15.8026C80.1663 15.3384 80.3277 14.9449 80.6506 14.6219C80.9736 14.2788 81.3671 14.1073 81.8313 14.1073C82.2955 14.1073 82.689 14.2788 83.012 14.6219C83.3551 14.9449 83.5266 15.3384 83.5266 15.8026C83.5266 16.2668 83.3551 16.6604 83.012 16.9833C82.689 17.3062 82.2955 17.4677 81.8313 17.4677C81.3671 17.4677 80.9736 17.3062 80.6506 16.9833C80.3277 16.6604 80.1663 16.2668 80.1663 15.8026ZM103.295 49.3153L110.652 26.035H112.105L109.804 34.1786L101.842 58.7909H100.298L103.295 49.3153ZM92.5784 26.035L99.2688 49.3153L101.691 58.7909H100.207L90.7014 26.035H92.5784ZM123.699 49.3153L130.36 26.035H132.267L122.731 58.7909H121.247L123.699 49.3153ZM112.317 26.035L119.643 49.3153L122.64 58.7909H121.096L113.013 34.1786L110.864 26.035H112.317ZM152.096 59.3964C150.098 59.3964 148.231 59.0028 146.495 58.2157C144.76 57.4084 143.236 56.2782 141.924 54.8251C140.612 53.3719 139.583 51.6565 138.836 49.6786C138.11 47.6805 137.746 45.4908 137.746 43.1093V41.7772C137.746 39.3755 138.1 37.1858 138.806 35.2079C139.532 33.2098 140.521 31.4843 141.773 30.0311C143.044 28.5578 144.507 27.4276 146.162 26.6405C147.817 25.8332 149.593 25.4296 151.49 25.4296C153.307 25.4296 154.972 25.7727 156.486 26.4589C157.999 27.1249 159.311 28.0734 160.421 29.3046C161.551 30.5357 162.419 32.009 163.025 33.7245C163.63 35.44 163.933 37.3371 163.933 39.4159V41.3231H138.806V39.6884H162.298V39.2948C162.298 37.0949 161.854 35.0767 160.966 33.2401C160.078 31.3833 158.827 29.8899 157.212 28.7596C155.598 27.6294 153.69 27.0643 151.49 27.0643C149.674 27.0643 148.019 27.4478 146.526 28.2147C145.052 28.9816 143.781 30.0412 142.711 31.3934C141.642 32.7255 140.814 34.2795 140.229 36.0555C139.664 37.8316 139.381 39.7388 139.381 41.7772V43.1093C139.381 45.1477 139.704 47.0549 140.35 48.8309C140.996 50.607 141.894 52.1711 143.044 53.5233C144.195 54.8553 145.537 55.9048 147.071 56.6718C148.625 57.4185 150.3 57.7919 152.096 57.7919C153.973 57.7919 155.719 57.479 157.333 56.8534C158.968 56.2277 160.462 55.037 161.814 53.2811L162.964 54.0985C162.238 55.1278 161.36 56.0461 160.33 56.8534C159.321 57.6405 158.13 58.2662 156.758 58.7303C155.406 59.1744 153.852 59.3964 152.096 59.3964ZM170.684 26.035L181.158 40.5663L191.603 26.035H193.661L182.157 41.9891L194.267 58.7909H192.239L181.128 43.412L170.048 58.7909H168.02L180.129 41.9891L168.625 26.035H170.684Z" fill="white"/>
<defs>
<linearGradient id="paint0_linear_1_21" x1="196.308" y1="93.2092" x2="196.977" y2="93.9523" gradientUnits="userSpaceOnUse">
<stop stop-color="#DA22FF"/>
<stop offset="1" stop-color="#9733EE"/>
</linearGradient>
<linearGradient id="paint1_linear_1_21" x1="242.259" y1="36.4288" x2="242.949" y2="37.1521" gradientUnits="userSpaceOnUse">
<stop stop-color="#DA22FF"/>
<stop offset="1" stop-color="#9733EE"/>
</linearGradient>
</defs>
</svg>
