<svg width="202" height="28" viewBox="0 0 202 28" fill="none" xmlns="http://www.w3.org/2000/svg">
<path d="M11.256 27.216C8.04 27.216 5.508 26.292 3.66 24.444C1.812 22.596 0.888 19.86 0.888 16.236V1.8H3.552V16.128C3.552 19.104 4.224 21.3 5.568 22.716C6.912 24.132 8.808 24.84 11.256 24.84C13.728 24.84 15.636 24.132 16.98 22.716C18.324 21.3 18.996 19.104 18.996 16.128V1.8H21.588V16.236C21.588 19.86 20.664 22.596 18.816 24.444C16.992 26.292 14.472 27.216 11.256 27.216ZM38.7237 7.92C40.2597 7.92 41.6037 8.22 42.7557 8.82C43.9317 9.396 44.8437 10.284 45.4917 11.484C46.1637 12.684 46.4997 14.196 46.4997 16.02V27H43.9437V16.272C43.9437 14.28 43.4397 12.78 42.4317 11.772C41.4477 10.74 40.0557 10.224 38.2557 10.224C36.9117 10.224 35.7357 10.5 34.7277 11.052C33.7437 11.58 32.9757 12.36 32.4237 13.392C31.8957 14.4 31.6317 15.624 31.6317 17.064V27H29.0757V8.1H31.5237V13.284L31.1277 12.312C31.7277 10.944 32.6877 9.876 34.0077 9.108C35.3277 8.316 36.8997 7.92 38.7237 7.92ZM53.4038 27V8.1H55.9598V27H53.4038ZM54.6998 3.924C54.1718 3.924 53.7278 3.744 53.3678 3.384C53.0078 3.024 52.8278 2.592 52.8278 2.088C52.8278 1.584 53.0078 1.164 53.3678 0.827998C53.7278 0.467998 54.1718 0.287998 54.6998 0.287998C55.2278 0.287998 55.6718 0.455998 56.0318 0.791998C56.3918 1.128 56.5718 1.548 56.5718 2.052C56.5718 2.58 56.3918 3.024 56.0318 3.384C55.6958 3.744 55.2518 3.924 54.6998 3.924ZM66.9238 27L59.7958 8.1H62.2438L68.7238 25.632H67.6078L74.2678 8.1H76.4638L83.0518 25.632H81.9358L88.5238 8.1H90.8638L83.6998 27H81.2878L74.9518 10.512H75.7078L69.3358 27H66.9238ZM102.213 27.18C100.245 27.18 98.5171 26.772 97.0291 25.956C95.5411 25.116 94.3771 23.976 93.5371 22.536C92.6971 21.072 92.2771 19.404 92.2771 17.532C92.2771 15.66 92.6731 14.004 93.4651 12.564C94.2811 11.124 95.3851 9.996 96.7771 9.18C98.1931 8.34 99.7771 7.92 101.529 7.92C103.305 7.92 104.877 8.328 106.245 9.144C107.637 9.936 108.729 11.064 109.521 12.528C110.313 13.968 110.709 15.636 110.709 17.532C110.709 17.652 110.697 17.784 110.673 17.928C110.673 18.048 110.673 18.18 110.673 18.324H94.2211V16.416H109.305L108.297 17.172C108.297 15.804 107.997 14.592 107.397 13.536C106.821 12.456 106.029 11.616 105.021 11.016C104.013 10.416 102.849 10.116 101.529 10.116C100.233 10.116 99.0691 10.416 98.0371 11.016C97.0051 11.616 96.2011 12.456 95.6251 13.536C95.0491 14.616 94.7611 15.852 94.7611 17.244V17.64C94.7611 19.08 95.0731 20.352 95.6971 21.456C96.3451 22.536 97.2331 23.388 98.3611 24.012C99.5131 24.612 100.821 24.912 102.285 24.912C103.437 24.912 104.505 24.708 105.489 24.3C106.497 23.892 107.361 23.268 108.081 22.428L109.521 24.084C108.681 25.092 107.625 25.86 106.353 26.388C105.105 26.916 103.725 27.18 102.213 27.18ZM112.504 27L120.496 16.632L120.46 17.892L112.864 8.1H115.744L121.972 16.2L120.892 16.164L127.12 8.1H129.928L122.26 18L122.296 16.632L130.36 27H127.444L120.856 18.36L121.864 18.504L115.384 27H112.504ZM141.716 27.216C139.844 27.216 138.044 26.916 136.316 26.316C134.612 25.692 133.292 24.9 132.356 23.94L133.4 21.888C134.288 22.752 135.476 23.484 136.964 24.084C138.476 24.66 140.06 24.948 141.716 24.948C143.3 24.948 144.584 24.756 145.568 24.372C146.576 23.964 147.308 23.424 147.764 22.752C148.244 22.08 148.484 21.336 148.484 20.52C148.484 19.536 148.196 18.744 147.62 18.144C147.068 17.544 146.336 17.076 145.424 16.74C144.512 16.38 143.504 16.068 142.4 15.804C141.296 15.54 140.192 15.264 139.088 14.976C137.984 14.664 136.964 14.256 136.028 13.752C135.116 13.248 134.372 12.588 133.796 11.772C133.244 10.932 132.968 9.84 132.968 8.496C132.968 7.248 133.292 6.108 133.94 5.076C134.612 4.02 135.632 3.18 137 2.556C138.368 1.908 140.12 1.584 142.256 1.584C143.672 1.584 145.076 1.788 146.468 2.196C147.86 2.58 149.06 3.12 150.068 3.816L149.168 5.94C148.088 5.22 146.936 4.692 145.712 4.356C144.512 4.02 143.348 3.852 142.22 3.852C140.708 3.852 139.46 4.056 138.476 4.464C137.492 4.872 136.76 5.424 136.28 6.12C135.824 6.792 135.596 7.56 135.596 8.424C135.596 9.408 135.872 10.2 136.424 10.8C137 11.4 137.744 11.868 138.656 12.204C139.592 12.54 140.612 12.84 141.716 13.104C142.82 13.368 143.912 13.656 144.992 13.968C146.096 14.28 147.104 14.688 148.016 15.192C148.952 15.672 149.696 16.32 150.248 17.136C150.824 17.952 151.112 19.02 151.112 20.34C151.112 21.564 150.776 22.704 150.104 23.76C149.432 24.792 148.4 25.632 147.008 26.28C145.64 26.904 143.876 27.216 141.716 27.216ZM164.081 27.18C162.257 27.18 160.613 26.772 159.149 25.956C157.709 25.116 156.569 23.976 155.729 22.536C154.889 21.072 154.469 19.404 154.469 17.532C154.469 15.636 154.889 13.968 155.729 12.528C156.569 11.088 157.709 9.96 159.149 9.144C160.589 8.328 162.233 7.92 164.081 7.92C165.953 7.92 167.609 8.328 169.049 9.144C170.513 9.96 171.653 11.088 172.469 12.528C173.309 13.968 173.729 15.636 173.729 17.532C173.729 19.404 173.309 21.072 172.469 22.536C171.653 23.976 170.513 25.116 169.049 25.956C167.585 26.772 165.929 27.18 164.081 27.18ZM164.081 24.912C165.449 24.912 166.661 24.612 167.717 24.012C168.773 23.388 169.601 22.524 170.201 21.42C170.825 20.292 171.137 18.996 171.137 17.532C171.137 16.044 170.825 14.748 170.201 13.644C169.601 12.54 168.773 11.688 167.717 11.088C166.661 10.464 165.461 10.152 164.117 10.152C162.773 10.152 161.573 10.464 160.517 11.088C159.461 11.688 158.621 12.54 157.997 13.644C157.373 14.748 157.061 16.044 157.061 17.532C157.061 18.996 157.373 20.292 157.997 21.42C158.621 22.524 159.461 23.388 160.517 24.012C161.573 24.612 162.761 24.912 164.081 24.912ZM179.379 27V5.724C179.379 4.044 179.871 2.688 180.855 1.656C181.839 0.623998 183.255 0.107999 185.103 0.107999C185.823 0.107999 186.519 0.203999 187.191 0.395999C187.863 0.588 188.427 0.887999 188.883 1.296L188.019 3.204C187.659 2.892 187.239 2.664 186.759 2.52C186.279 2.352 185.763 2.268 185.211 2.268C184.131 2.268 183.303 2.568 182.727 3.168C182.151 3.768 181.863 4.656 181.863 5.832V8.712L181.935 9.9V27H179.379ZM175.995 10.224V8.1H187.695V10.224H175.995ZM197.122 27.18C195.346 27.18 193.978 26.7 193.018 25.74C192.058 24.78 191.578 23.424 191.578 21.672V3.924H194.134V21.528C194.134 22.632 194.41 23.484 194.962 24.084C195.538 24.684 196.354 24.984 197.41 24.984C198.538 24.984 199.474 24.66 200.218 24.012L201.118 25.848C200.614 26.304 200.002 26.64 199.282 26.856C198.586 27.072 197.866 27.18 197.122 27.18ZM188.194 10.224V8.1H199.894V10.224H188.194Z" fill="white"/>
</svg>
