<svg width="383" height="338" viewBox="0 0 383 338" fill="none" xmlns="http://www.w3.org/2000/svg">
<path d="M111.118 268.699L141.409 317.44L238.89 256.858L287.63 226.567L293.722 222.781M44.6162 107.333L68.9863 92.1882L117.727 61.8974L215.207 1.31592L336.37 196.277L324.185 203.849" stroke="white"/>
<path d="M211.338 20.9019L200.802 27.4494M127.053 73.2823L116.518 79.8298M105.982 86.3774L95.4473 92.925M169.196 47.0921L158.66 53.6396M148.125 60.1872L137.589 66.7347M190.267 33.997L179.731 40.5445M263.718 105.186L257.171 94.6506M237.528 63.044L230.98 52.5085M224.433 41.9729L217.885 31.4374M250.623 84.1151L244.076 73.5796" stroke="white" stroke-width="3"/>
<path d="M192.617 300.967L137.216 335.397L102.786 279.997L85.571 252.297" stroke="white" stroke-width="3"/>
<path d="M65.4297 223.788H32.4219V118.71L0 128.183V103.183L62.4024 81.6006H65.4297V223.788Z" fill="#DA22FF"/>
<path d="M106.439 158.896C110.219 158.896 113.045 156.178 113.045 152.488C113.045 148.798 110.219 146.08 106.439 146.08C102.623 146.08 99.8152 148.816 99.8152 152.488C99.8152 156.16 102.623 158.896 106.439 158.896ZM106.439 157.708C103.397 157.708 101.129 155.494 101.129 152.488C101.129 149.482 103.397 147.268 106.439 147.268C109.463 147.268 111.713 149.482 111.713 152.488C111.713 155.494 109.463 157.708 106.439 157.708ZM115.918 149.32V158.788H117.196V150.454H123.136V158.788H124.414V149.32H115.918ZM132.924 149.248C131.358 149.248 130.044 149.932 129.27 151.192V149.32H128.046V162.28H129.324V157.006C130.116 158.23 131.412 158.878 132.924 158.878C135.624 158.878 137.64 156.934 137.64 154.054C137.64 151.192 135.624 149.248 132.924 149.248ZM132.834 157.744C130.818 157.744 129.306 156.268 129.306 154.054C129.306 151.858 130.818 150.364 132.834 150.364C134.832 150.364 136.362 151.858 136.362 154.054C136.362 156.268 134.832 157.744 132.834 157.744ZM148.684 154.054C148.684 151.21 146.758 149.248 144.094 149.248C141.43 149.248 139.468 151.246 139.468 154.054C139.468 156.862 141.484 158.878 144.436 158.878C145.93 158.878 147.244 158.338 148.09 157.33L147.37 156.502C146.65 157.33 145.624 157.744 144.472 157.744C142.402 157.744 140.89 156.43 140.746 154.45H148.666C148.666 154.306 148.684 154.162 148.684 154.054ZM144.094 150.346C145.948 150.346 147.298 151.642 147.46 153.496H140.746C140.908 151.642 142.258 150.346 144.094 150.346ZM159.078 157.672V149.32H152.094L151.968 152.488C151.842 155.044 151.608 157.582 150.204 157.672H149.664V161.074H150.87V158.788H159.348V161.074H160.554V157.672H159.078ZM153.138 152.56L153.246 150.454H157.8V157.672H151.896C152.85 156.952 153.048 154.72 153.138 152.56ZM171.343 154.054C171.343 151.21 169.417 149.248 166.753 149.248C164.089 149.248 162.127 151.246 162.127 154.054C162.127 156.862 164.143 158.878 167.095 158.878C168.589 158.878 169.903 158.338 170.749 157.33L170.029 156.502C169.309 157.33 168.283 157.744 167.131 157.744C165.061 157.744 163.549 156.43 163.405 154.45H171.325C171.325 154.306 171.343 154.162 171.343 154.054ZM166.753 150.346C168.607 150.346 169.957 151.642 170.119 153.496H163.405C163.567 151.642 164.917 150.346 166.753 150.346ZM174.788 149.32L174.626 152.704C174.5 155.206 174.356 157.744 172.79 157.744C172.664 157.744 172.502 157.708 172.34 157.672L172.25 158.77C172.592 158.86 172.88 158.914 173.168 158.914C175.202 158.914 175.616 156.106 175.778 152.794L175.904 150.454H180.44V158.788H181.718V149.32H174.788ZM188.645 149.32C186.197 149.32 184.613 150.4 184.613 152.56C184.613 154.09 185.441 155.08 186.899 155.476L184.541 158.788H185.927L188.123 155.656H188.483H191.453V158.788H192.623V149.32H188.645ZM185.909 152.596C185.909 151.084 186.917 150.454 188.681 150.454H191.453V154.702H188.591C186.827 154.702 185.909 154.036 185.909 152.596ZM204.565 154.054C204.565 151.21 202.639 149.248 199.975 149.248C197.311 149.248 195.349 151.246 195.349 154.054C195.349 156.862 197.365 158.878 200.317 158.878C201.811 158.878 203.125 158.338 203.971 157.33L203.251 156.502C202.531 157.33 201.505 157.744 200.353 157.744C198.283 157.744 196.771 156.43 196.627 154.45H204.547C204.547 154.306 204.565 154.162 204.565 154.054ZM199.975 150.346C201.829 150.346 203.179 151.642 203.341 153.496H196.627C196.789 151.642 198.139 150.346 199.975 150.346ZM216.79 149.32L212.704 156.142L208.69 149.32H207.394V158.788H208.564V151.282L212.398 157.636H212.974L216.808 151.3V158.788H217.978V149.32H216.79ZM234.66 157.672V149.32H233.382V157.672H227.604V149.32H226.326V158.788H234.984V161.164H236.19V157.672H234.66ZM246.928 154.054C246.928 151.21 245.002 149.248 242.338 149.248C239.674 149.248 237.712 151.246 237.712 154.054C237.712 156.862 239.728 158.878 242.68 158.878C244.174 158.878 245.488 158.338 246.334 157.33L245.614 156.502C244.894 157.33 243.868 157.744 242.716 157.744C240.646 157.744 239.134 156.43 238.99 154.45H246.91C246.91 154.306 246.928 154.162 246.928 154.054ZM242.338 150.346C244.192 150.346 245.542 151.642 245.704 153.496H238.99C239.152 151.642 240.502 150.346 242.338 150.346ZM250.374 149.32L250.212 152.704C250.086 155.206 249.942 157.744 248.376 157.744C248.25 157.744 248.088 157.708 247.926 157.672L247.836 158.77C248.178 158.86 248.466 158.914 248.754 158.914C250.788 158.914 251.202 156.106 251.364 152.794L251.49 150.454H256.026V158.788H257.304V149.32H250.374ZM260.937 158.788H262.089L268.389 151.264V158.788H269.667V149.32H268.533L262.215 156.844V149.32H260.937V158.788ZM106.385 174.2C107.717 173.786 108.509 172.778 108.509 171.428C108.509 169.268 106.385 168.008 103.865 168.008C102.533 168.008 101.111 168.35 99.8152 169.124L100.265 170.222C101.399 169.502 102.677 169.178 103.829 169.178C105.665 169.178 107.177 170.042 107.177 171.572C107.177 172.922 106.133 173.714 104.351 173.714H101.723V174.794H104.423C106.493 174.794 107.717 175.604 107.717 177.08C107.717 178.79 105.953 179.762 103.937 179.762C102.551 179.762 101.039 179.294 99.9052 178.322L99.4192 179.276C100.751 180.392 102.479 180.896 104.081 180.896C106.709 180.896 109.049 179.546 109.049 177.26C109.049 175.73 108.041 174.614 106.385 174.2ZM115.308 171.248C113.814 171.248 112.41 171.716 111.456 172.526L112.032 173.48C112.806 172.796 113.958 172.364 115.182 172.364C116.946 172.364 117.864 173.246 117.864 174.866V175.442H114.858C112.14 175.442 111.204 176.666 111.204 178.124C111.204 179.762 112.518 180.878 114.66 180.878C116.226 180.878 117.342 180.284 117.918 179.312V180.788H119.142V174.92C119.142 172.472 117.756 171.248 115.308 171.248ZM114.858 179.87C113.346 179.87 112.464 179.186 112.464 178.088C112.464 177.116 113.058 176.396 114.894 176.396H117.864V177.944C117.36 179.186 116.298 179.87 114.858 179.87ZM129.475 180.788H130.987L126.991 175.91L130.717 171.32H129.331L126.001 175.478H123.823V171.32H122.545V180.788H123.823V176.576H125.983L129.475 180.788ZM136.086 171.248C134.592 171.248 133.188 171.716 132.234 172.526L132.81 173.48C133.584 172.796 134.736 172.364 135.96 172.364C137.724 172.364 138.642 173.246 138.642 174.866V175.442H135.636C132.918 175.442 131.982 176.666 131.982 178.124C131.982 179.762 133.296 180.878 135.438 180.878C137.004 180.878 138.12 180.284 138.696 179.312V180.788H139.92V174.92C139.92 172.472 138.534 171.248 136.086 171.248ZM135.636 179.87C134.124 179.87 133.242 179.186 133.242 178.088C133.242 177.116 133.836 176.396 135.672 176.396H138.642V177.944C138.138 179.186 137.076 179.87 135.636 179.87ZM147.736 175.856C148.834 175.496 149.572 174.74 149.572 173.75C149.572 172.202 147.916 171.212 145.756 171.212C144.604 171.212 143.416 171.482 142.246 172.094L142.606 173.084C143.614 172.562 144.658 172.31 145.63 172.31C147.142 172.31 148.258 172.886 148.258 173.93C148.258 174.866 147.286 175.424 145.9 175.424H144.352V176.36H145.972C147.556 176.36 148.528 176.954 148.528 177.962C148.528 179.114 147.25 179.798 145.54 179.798C144.388 179.798 143.164 179.438 142.282 178.772L141.85 179.726C142.858 180.5 144.244 180.896 145.594 180.896C147.952 180.896 149.842 179.78 149.842 178.07C149.842 176.954 149.068 176.162 147.736 175.856ZM158.612 171.32V175.82C157.55 176.27 156.542 176.522 155.624 176.522C154.04 176.522 153.05 175.802 153.05 174.362V171.32H151.772V174.434C151.772 176.576 153.176 177.566 155.39 177.566C156.452 177.566 157.55 177.314 158.612 176.846V180.788H159.89V171.32H158.612ZM163.519 180.788H164.671L170.971 173.264V180.788H172.249V171.32H171.115L164.797 178.844V171.32H163.519V180.788ZM182.842 180.788H184.354L180.358 175.91L184.084 171.32H182.698L179.368 175.478H177.19V171.32H175.912V180.788H177.19V176.576H179.35L182.842 180.788ZM189.453 171.248C187.959 171.248 186.555 171.716 185.601 172.526L186.177 173.48C186.951 172.796 188.103 172.364 189.327 172.364C191.091 172.364 192.009 173.246 192.009 174.866V175.442H189.003C186.285 175.442 185.349 176.666 185.349 178.124C185.349 179.762 186.663 180.878 188.805 180.878C190.371 180.878 191.487 180.284 192.063 179.312V180.788H193.287V174.92C193.287 172.472 191.901 171.248 189.453 171.248ZM189.003 179.87C187.491 179.87 186.609 179.186 186.609 178.088C186.609 177.116 187.203 176.396 189.039 176.396H192.009V177.944C191.505 179.186 190.443 179.87 189.003 179.87ZM201.4 180.788H202.552L208.852 173.264V180.788H210.13V171.32H208.996L202.678 178.844V171.32H201.4V180.788ZM223.111 175.856C224.209 175.496 224.947 174.74 224.947 173.75C224.947 172.202 223.291 171.212 221.131 171.212C219.979 171.212 218.791 171.482 217.621 172.094L217.981 173.084C218.989 172.562 220.033 172.31 221.005 172.31C222.517 172.31 223.633 172.886 223.633 173.93C223.633 174.866 222.661 175.424 221.275 175.424H219.727V176.36H221.347C222.931 176.36 223.903 176.954 223.903 177.962C223.903 179.114 222.625 179.798 220.915 179.798C219.763 179.798 218.539 179.438 217.657 178.772L217.225 179.726C218.233 180.5 219.619 180.896 220.969 180.896C223.327 180.896 225.217 179.78 225.217 178.07C225.217 176.954 224.443 176.162 223.111 175.856ZM231.377 171.248C229.883 171.248 228.479 171.716 227.525 172.526L228.101 173.48C228.875 172.796 230.027 172.364 231.251 172.364C233.015 172.364 233.933 173.246 233.933 174.866V175.442H230.927C228.209 175.442 227.273 176.666 227.273 178.124C227.273 179.762 228.587 180.878 230.729 180.878C232.295 180.878 233.411 180.284 233.987 179.312V180.788H235.211V174.92C235.211 172.472 233.825 171.248 231.377 171.248ZM230.927 179.87C229.415 179.87 228.533 179.186 228.533 178.088C228.533 177.116 229.127 176.396 230.963 176.396H233.933V177.944C233.429 179.186 232.367 179.87 230.927 179.87ZM246.371 179.672V171.32H239.387L239.261 174.488C239.135 177.044 238.901 179.582 237.497 179.672H236.957V183.074H238.163V180.788H246.641V183.074H247.847V179.672H246.371ZM240.431 174.56L240.539 172.454H245.093V179.672H239.189C240.143 178.952 240.341 176.72 240.431 174.56ZM253.595 171.248C252.101 171.248 250.697 171.716 249.743 172.526L250.319 173.48C251.093 172.796 252.245 172.364 253.469 172.364C255.233 172.364 256.151 173.246 256.151 174.866V175.442H253.145C250.427 175.442 249.491 176.666 249.491 178.124C249.491 179.762 250.805 180.878 252.947 180.878C254.513 180.878 255.629 180.284 256.205 179.312V180.788H257.429V174.92C257.429 172.472 256.043 171.248 253.595 171.248ZM253.145 179.87C251.633 179.87 250.751 179.186 250.751 178.088C250.751 177.116 251.345 176.396 253.181 176.396H256.151V177.944C255.647 179.186 254.585 179.87 253.145 179.87ZM266.7 171.32V175.82C265.638 176.27 264.63 176.522 263.712 176.522C262.128 176.522 261.138 175.802 261.138 174.362V171.32H259.86V174.434C259.86 176.576 261.264 177.566 263.478 177.566C264.54 177.566 265.638 177.314 266.7 176.846V180.788H267.978V171.32H266.7ZM271.607 180.788H272.759L279.059 173.264V180.788H280.337V171.32H279.203L272.885 178.844V171.32H271.607V180.788ZM100.607 202.788H101.885V198.612H107.843V202.788H109.121V193.32H107.843V197.514H101.885V193.32H100.607V202.788ZM116.011 193.248C114.517 193.248 113.113 193.716 112.159 194.526L112.735 195.48C113.509 194.796 114.661 194.364 115.885 194.364C117.649 194.364 118.567 195.246 118.567 196.866V197.442H115.561C112.843 197.442 111.907 198.666 111.907 200.124C111.907 201.762 113.221 202.878 115.363 202.878C116.929 202.878 118.045 202.284 118.621 201.312V202.788H119.845V196.92C119.845 194.472 118.459 193.248 116.011 193.248ZM115.561 201.87C114.049 201.87 113.167 201.186 113.167 200.088C113.167 199.116 113.761 198.396 115.597 198.396H118.567V199.944C118.063 201.186 117.001 201.87 115.561 201.87ZM127.959 193.32V202.788H129.237V194.454H135.177V202.788H136.455V193.32H127.959ZM144.965 193.248C143.399 193.248 142.085 193.932 141.311 195.192V193.32H140.087V206.28H141.365V201.006C142.157 202.23 143.453 202.878 144.965 202.878C147.665 202.878 149.681 200.934 149.681 198.054C149.681 195.192 147.665 193.248 144.965 193.248ZM144.875 201.744C142.859 201.744 141.347 200.268 141.347 198.054C141.347 195.858 142.859 194.364 144.875 194.364C146.873 194.364 148.403 195.858 148.403 198.054C148.403 200.268 146.873 201.744 144.875 201.744ZM156.333 202.878C159.105 202.878 161.139 200.862 161.139 198.054C161.139 195.246 159.105 193.248 156.333 193.248C153.561 193.248 151.509 195.246 151.509 198.054C151.509 200.862 153.561 202.878 156.333 202.878ZM156.333 201.744C154.317 201.744 152.805 200.268 152.805 198.054C152.805 195.84 154.317 194.364 156.333 194.364C158.349 194.364 159.843 195.84 159.843 198.054C159.843 200.268 158.349 201.744 156.333 201.744ZM172.169 198.054C172.169 195.21 170.243 193.248 167.579 193.248C164.915 193.248 162.953 195.246 162.953 198.054C162.953 200.862 164.969 202.878 167.921 202.878C169.415 202.878 170.729 202.338 171.575 201.33L170.855 200.502C170.135 201.33 169.109 201.744 167.957 201.744C165.887 201.744 164.375 200.43 164.231 198.45H172.151C172.151 198.306 172.169 198.162 172.169 198.054ZM167.579 194.346C169.433 194.346 170.783 195.642 170.945 197.496H164.231C164.393 195.642 165.743 194.346 167.579 194.346ZM181.928 202.788H183.44L179.444 197.91L183.17 193.32H181.784L178.454 197.478H176.276V193.32H174.998V202.788H176.276V198.576H178.436L181.928 202.788ZM191.923 193.32H183.481V194.454H187.063V202.788H188.341V194.454H191.923V193.32ZM201.63 198.054C201.63 195.21 199.704 193.248 197.04 193.248C194.376 193.248 192.414 195.246 192.414 198.054C192.414 200.862 194.43 202.878 197.382 202.878C198.876 202.878 200.19 202.338 201.036 201.33L200.316 200.502C199.596 201.33 198.57 201.744 197.418 201.744C195.348 201.744 193.836 200.43 193.692 198.45H201.612C201.612 198.306 201.63 198.162 201.63 198.054ZM197.04 194.346C198.894 194.346 200.244 195.642 200.406 197.496H193.692C193.854 195.642 195.204 194.346 197.04 194.346Z" fill="white"/>
<path d="M251.58 213.316H380.285M251.58 213.316L247.58 209.316L243.58 213.316L247.58 217.316L251.58 213.316ZM380.285 213.316L375.285 216.847M380.285 213.316L375.285 209.847" stroke="#DA22FF" stroke-width="2"/>
</svg>
