<svg width="393" height="338" viewBox="0 0 393 338" fill="none" xmlns="http://www.w3.org/2000/svg">
<path d="M121.853 268.699L152.144 317.44L249.624 256.858L298.364 226.567L304.457 222.781M79.7207 92.1882L128.461 61.8974L225.942 1.31592L347.105 196.277L334.92 203.849" stroke="white"/>
<path d="M222.072 20.9017L211.537 27.4492M137.788 73.2821L127.253 79.8296M116.717 86.3772L106.181 92.9248M179.93 47.0919L169.395 53.6394M158.859 60.187L148.324 66.7345M201.001 33.9968L190.466 40.5443M274.453 105.186L267.905 94.6504M248.263 63.0438L241.715 52.5083M235.167 41.9727L228.62 31.4372M261.358 84.1149L254.81 73.5794" stroke="white" stroke-width="3"/>
<path d="M203.351 300.967L147.951 335.397L113.521 279.997L96.3059 252.297" stroke="white" stroke-width="3"/>
<path d="M102.434 223.788H3.21484V202.304L48.918 154.257C60.181 141.431 65.8125 131.242 65.8125 123.69C65.8125 117.571 64.4779 112.916 61.8086 109.726C59.1394 106.535 55.2657 104.94 50.1875 104.94C45.1745 104.94 41.1055 107.089 37.9805 111.386C34.8555 115.617 33.293 120.923 33.293 127.304H0.285156C0.285156 118.58 2.46615 110.539 6.82816 103.183C11.1901 95.7608 17.2448 89.9665 24.9922 85.7999C32.7396 81.6332 41.3985 79.5499 50.9688 79.5499C66.3334 79.5499 78.1498 83.098 86.418 90.1944C94.7509 97.2907 98.9179 107.479 98.9179 120.761C98.9179 126.36 97.8759 131.828 95.7929 137.167C93.7097 142.44 90.4545 148.007 86.0274 153.866C81.6654 159.66 74.6016 167.44 64.836 177.206L46.4766 198.397H102.434V223.788Z" fill="#DA22FF"/>
<path d="M111.648 145.716V158.316H112.962V146.868H120.936V158.316H122.25V145.716H111.648ZM130.101 158.406C132.873 158.406 134.907 156.39 134.907 153.582C134.907 150.774 132.873 148.776 130.101 148.776C127.329 148.776 125.277 150.774 125.277 153.582C125.277 156.39 127.329 158.406 130.101 158.406ZM130.101 157.272C128.085 157.272 126.573 155.796 126.573 153.582C126.573 151.368 128.085 149.892 130.101 149.892C132.117 149.892 133.611 151.368 133.611 153.582C133.611 155.796 132.117 157.272 130.101 157.272ZM145.344 157.2V148.848H138.36L138.234 152.016C138.108 154.572 137.874 157.11 136.47 157.2H135.93V160.602H137.136V158.316H145.614V160.602H146.82V157.2H145.344ZM139.404 152.088L139.512 149.982H144.066V157.2H138.162C139.116 156.48 139.314 154.248 139.404 152.088ZM153.9 149.082C152.118 149.082 150.696 149.964 149.94 151.422C150.066 148.398 151.29 147.048 153.972 146.454L157.968 145.536L157.752 144.366L153.504 145.338C150.282 146.094 148.716 148.074 148.716 152.196C148.716 156.048 150.48 158.424 153.666 158.424C156.492 158.424 158.436 156.498 158.436 153.708C158.436 150.972 156.564 149.082 153.9 149.082ZM153.702 157.362C151.686 157.362 150.246 155.868 150.246 153.744C150.246 151.638 151.668 150.234 153.702 150.234C155.736 150.234 157.14 151.638 157.14 153.744C157.14 155.868 155.718 157.362 153.702 157.362ZM161.176 158.316H162.328L168.628 150.792V158.316H169.906V148.848H168.772L162.454 156.372V148.848H161.176V158.316ZM178.446 148.776C176.88 148.776 175.566 149.46 174.792 150.72V148.848H173.568V161.808H174.846V156.534C175.638 157.758 176.934 158.406 178.446 158.406C181.146 158.406 183.162 156.462 183.162 153.582C183.162 150.72 181.146 148.776 178.446 148.776ZM178.356 157.272C176.34 157.272 174.828 155.796 174.828 153.582C174.828 151.386 176.34 149.892 178.356 149.892C180.354 149.892 181.884 151.386 181.884 153.582C181.884 155.796 180.354 157.272 178.356 157.272ZM189.113 148.776C187.619 148.776 186.215 149.244 185.261 150.054L185.837 151.008C186.611 150.324 187.763 149.892 188.987 149.892C190.751 149.892 191.669 150.774 191.669 152.394V152.97H188.663C185.945 152.97 185.009 154.194 185.009 155.652C185.009 157.29 186.323 158.406 188.465 158.406C190.031 158.406 191.147 157.812 191.723 156.84V158.316H192.947V152.448C192.947 150 191.561 148.776 189.113 148.776ZM188.663 157.398C187.151 157.398 186.269 156.714 186.269 155.616C186.269 154.644 186.863 153.924 188.699 153.924H191.669V155.472C191.165 156.714 190.103 157.398 188.663 157.398ZM204.647 153.582C204.647 150.738 202.721 148.776 200.057 148.776C197.393 148.776 195.431 150.774 195.431 153.582C195.431 156.39 197.447 158.406 200.399 158.406C201.893 158.406 203.207 157.866 204.053 156.858L203.333 156.03C202.613 156.858 201.587 157.272 200.435 157.272C198.365 157.272 196.853 155.958 196.709 153.978H204.629C204.629 153.834 204.647 153.69 204.647 153.582ZM200.057 149.874C201.911 149.874 203.261 151.17 203.423 153.024H196.709C196.871 151.17 198.221 149.874 200.057 149.874ZM216.872 148.848L212.786 155.67L208.772 148.848H207.476V158.316H208.646V150.81L212.48 157.164H213.056L216.89 150.828V158.316H218.06V148.848H216.872ZM233.338 158.316H234.85L230.854 153.438L234.58 148.848H233.194L229.864 153.006H227.686V148.848H226.408V158.316H227.686V154.104H229.846L233.338 158.316ZM240.439 158.406C243.211 158.406 245.245 156.39 245.245 153.582C245.245 150.774 243.211 148.776 240.439 148.776C237.667 148.776 235.615 150.774 235.615 153.582C235.615 156.39 237.667 158.406 240.439 158.406ZM240.439 157.272C238.423 157.272 236.911 155.796 236.911 153.582C236.911 151.368 238.423 149.892 240.439 149.892C242.455 149.892 243.949 151.368 243.949 153.582C243.949 155.796 242.455 157.272 240.439 157.272ZM257.372 148.848L253.286 155.67L249.272 148.848H247.976V158.316H249.146V150.81L252.98 157.164H253.556L257.39 150.828V158.316H258.56V148.848H257.372ZM265.455 148.776C263.961 148.776 262.557 149.244 261.603 150.054L262.179 151.008C262.953 150.324 264.105 149.892 265.329 149.892C267.093 149.892 268.011 150.774 268.011 152.394V152.97H265.005C262.287 152.97 261.351 154.194 261.351 155.652C261.351 157.29 262.665 158.406 264.807 158.406C266.373 158.406 267.489 157.812 268.065 156.84V158.316H269.289V152.448C269.289 150 267.903 148.776 265.455 148.776ZM265.005 157.398C263.493 157.398 262.611 156.714 262.611 155.616C262.611 154.644 263.205 153.924 265.041 153.924H268.011V155.472C267.507 156.714 266.445 157.398 265.005 157.398ZM272.691 158.316H273.969V154.14H279.927V158.316H281.205V148.848H279.927V153.042H273.969V148.848H272.691V158.316ZM292.596 157.2V148.848H285.612L285.486 152.016C285.36 154.572 285.126 157.11 283.722 157.2H283.182V160.602H284.388V158.316H292.866V160.602H294.072V157.2H292.596ZM286.656 152.088L286.764 149.982H291.318V157.2H285.414C286.368 156.48 286.566 154.248 286.656 152.088ZM303.348 148.848L299.784 156.894L296.22 148.848H294.888L299.118 158.298L298.704 159.216C298.164 160.404 297.588 160.8 296.742 160.8C296.058 160.8 295.482 160.548 295.014 160.08L294.42 161.034C294.996 161.61 295.842 161.898 296.724 161.898C298.074 161.898 299.082 161.304 299.874 159.45L304.608 148.848H303.348ZM111.342 170.848V180.316H112.62V171.982H118.56V180.316H119.838V170.848H111.342ZM127.376 180.406C130.148 180.406 132.182 178.39 132.182 175.582C132.182 172.774 130.148 170.776 127.376 170.776C124.604 170.776 122.552 172.774 122.552 175.582C122.552 178.39 124.604 180.406 127.376 180.406ZM127.376 179.272C125.36 179.272 123.848 177.796 123.848 175.582C123.848 173.368 125.36 171.892 127.376 171.892C129.392 171.892 130.886 173.368 130.886 175.582C130.886 177.796 129.392 179.272 127.376 179.272ZM142.619 179.2V170.848H135.635L135.509 174.016C135.383 176.572 135.149 179.11 133.745 179.2H133.205V182.602H134.411V180.316H142.889V182.602H144.095V179.2H142.619ZM136.679 174.088L136.787 171.982H141.341V179.2H135.437C136.391 178.48 136.589 176.248 136.679 174.088ZM155.257 180.406C156.859 180.406 158.209 179.758 158.965 178.534L158.011 177.886C157.363 178.84 156.355 179.272 155.257 179.272C153.187 179.272 151.675 177.814 151.675 175.582C151.675 173.368 153.187 171.892 155.257 171.892C156.355 171.892 157.363 172.342 158.011 173.296L158.965 172.648C158.209 171.406 156.859 170.776 155.257 170.776C152.431 170.776 150.379 172.756 150.379 175.582C150.379 178.408 152.431 180.406 155.257 180.406ZM172.711 175.564C172.711 172.648 170.659 170.938 167.131 170.776V166.96H165.889V170.776C162.361 170.92 160.345 172.63 160.345 175.564C160.345 178.534 162.379 180.28 165.889 180.424V183.808H167.131V180.406C170.659 180.262 172.711 178.534 172.711 175.564ZM161.605 175.564C161.605 173.368 163.081 172.054 165.889 171.91V179.29C163.081 179.128 161.605 177.814 161.605 175.564ZM167.131 179.29V171.91C169.957 172.054 171.451 173.35 171.451 175.564C171.451 177.832 169.957 179.146 167.131 179.29ZM179.32 180.406C182.092 180.406 184.126 178.39 184.126 175.582C184.126 172.774 182.092 170.776 179.32 170.776C176.548 170.776 174.496 172.774 174.496 175.582C174.496 178.39 176.548 180.406 179.32 180.406ZM179.32 179.272C177.304 179.272 175.792 177.796 175.792 175.582C175.792 173.368 177.304 171.892 179.32 171.892C181.336 171.892 182.83 173.368 182.83 175.582C182.83 177.796 181.336 179.272 179.32 179.272ZM191.735 170.776C190.169 170.776 188.855 171.46 188.081 172.72V170.848H186.857V183.808H188.135V178.534C188.927 179.758 190.223 180.406 191.735 180.406C194.435 180.406 196.451 178.462 196.451 175.582C196.451 172.72 194.435 170.776 191.735 170.776ZM191.645 179.272C189.629 179.272 188.117 177.796 188.117 175.582C188.117 173.386 189.629 171.892 191.645 171.892C193.643 171.892 195.173 173.386 195.173 175.582C195.173 177.796 193.643 179.272 191.645 179.272ZM208.593 170.848L204.507 177.67L200.493 170.848H199.197V180.316H200.367V172.81L204.201 179.164H204.777L208.611 172.828V180.316H209.781V170.848H208.593ZM213.418 180.316H214.57L220.87 172.792V180.316H222.148V170.848H221.014L214.696 178.372V170.848H213.418V180.316ZM230.688 170.776C229.122 170.776 227.808 171.46 227.034 172.72V170.848H225.81V183.808H227.088V178.534C227.88 179.758 229.176 180.406 230.688 180.406C233.388 180.406 235.404 178.462 235.404 175.582C235.404 172.72 233.388 170.776 230.688 170.776ZM230.598 179.272C228.582 179.272 227.07 177.796 227.07 175.582C227.07 173.386 228.582 171.892 230.598 171.892C232.596 171.892 234.126 173.386 234.126 175.582C234.126 177.796 232.596 179.272 230.598 179.272ZM242.056 180.406C244.828 180.406 246.862 178.39 246.862 175.582C246.862 172.774 244.828 170.776 242.056 170.776C239.284 170.776 237.232 172.774 237.232 175.582C237.232 178.39 239.284 180.406 242.056 180.406ZM242.056 179.272C240.04 179.272 238.528 177.796 238.528 175.582C238.528 173.368 240.04 171.892 242.056 171.892C244.072 171.892 245.566 173.368 245.566 175.582C245.566 177.796 244.072 179.272 242.056 179.272ZM255.624 175.42C256.614 175.06 257.226 174.34 257.226 173.278C257.226 171.712 255.912 170.848 253.77 170.848H249.594V180.316H253.896C256.362 180.316 257.55 179.38 257.55 177.742C257.55 176.5 256.938 175.726 255.624 175.42ZM250.836 171.856H253.68C255.138 171.856 255.948 172.378 255.948 173.44C255.948 174.502 255.138 175.06 253.68 175.06H250.836V171.856ZM253.842 179.308H250.836V176.014H253.968C255.57 176.014 256.29 176.536 256.29 177.67C256.29 178.804 255.444 179.308 253.842 179.308ZM263.803 170.776C262.309 170.776 260.905 171.244 259.951 172.054L260.527 173.008C261.301 172.324 262.453 171.892 263.677 171.892C265.441 171.892 266.359 172.774 266.359 174.394V174.97H263.353C260.635 174.97 259.699 176.194 259.699 177.652C259.699 179.29 261.013 180.406 263.155 180.406C264.721 180.406 265.837 179.812 266.413 178.84V180.316H267.637V174.448C267.637 172 266.251 170.776 263.803 170.776ZM263.353 179.398C261.841 179.398 260.959 178.714 260.959 177.616C260.959 176.644 261.553 175.924 263.389 175.924H266.359V177.472C265.855 178.714 264.793 179.398 263.353 179.398ZM271.039 180.316H272.317V176.14H278.275V180.316H279.553V170.848H278.275V175.042H272.317V170.848H271.039V180.316ZM283.185 180.316H284.463V176.14H290.421V180.316H291.699V170.848H290.421V175.042H284.463V170.848H283.185V180.316ZM299.31 174.196L296.61 174.16V170.848H295.332V180.316L299.076 180.334C301.578 180.37 302.964 179.236 302.964 177.22C302.964 175.276 301.686 174.214 299.31 174.196ZM304.548 180.316H305.826V170.848H304.548V180.316ZM299.004 179.362L296.61 179.326V175.114L299.004 175.15C300.768 175.168 301.668 175.816 301.668 177.22C301.668 178.642 300.75 179.38 299.004 179.362ZM317.763 175.582C317.763 172.738 315.837 170.776 313.173 170.776C310.509 170.776 308.547 172.774 308.547 175.582C308.547 178.39 310.563 180.406 313.515 180.406C315.009 180.406 316.323 179.866 317.169 178.858L316.449 178.03C315.729 178.858 314.703 179.272 313.551 179.272C311.481 179.272 309.969 177.958 309.825 175.978H317.745C317.745 175.834 317.763 175.69 317.763 175.582ZM313.173 171.874C315.027 171.874 316.377 173.17 316.539 175.024H309.825C309.987 173.17 311.337 171.874 313.173 171.874ZM119.676 201.2V192.848H118.398V201.2H112.62V192.848H111.342V202.316H120V204.692H121.206V201.2H119.676ZM131.944 197.582C131.944 194.738 130.018 192.776 127.354 192.776C124.69 192.776 122.728 194.774 122.728 197.582C122.728 200.39 124.744 202.406 127.696 202.406C129.19 202.406 130.504 201.866 131.35 200.858L130.63 200.03C129.91 200.858 128.884 201.272 127.732 201.272C125.662 201.272 124.15 199.958 124.006 197.978H131.926C131.926 197.834 131.944 197.69 131.944 197.582ZM127.354 193.874C129.208 193.874 130.558 195.17 130.72 197.024H124.006C124.168 195.17 125.518 193.874 127.354 193.874ZM135.39 192.848L135.228 196.232C135.102 198.734 134.958 201.272 133.392 201.272C133.266 201.272 133.104 201.236 132.942 201.2L132.852 202.298C133.194 202.388 133.482 202.442 133.77 202.442C135.804 202.442 136.218 199.634 136.38 196.322L136.506 193.982H141.042V202.316H142.32V192.848H135.39ZM145.953 202.316H147.105L153.405 194.792V202.316H154.683V192.848H153.549L147.231 200.372V192.848H145.953V202.316ZM163.056 202.316H164.208L170.508 194.792V202.316H171.786V192.848H170.652L164.334 200.372V192.848H163.056V202.316ZM184.768 197.384C185.866 197.024 186.604 196.268 186.604 195.278C186.604 193.73 184.948 192.74 182.788 192.74C181.636 192.74 180.448 193.01 179.278 193.622L179.638 194.612C180.646 194.09 181.69 193.838 182.662 193.838C184.174 193.838 185.29 194.414 185.29 195.458C185.29 196.394 184.318 196.952 182.932 196.952H181.384V197.888H183.004C184.588 197.888 185.56 198.482 185.56 199.49C185.56 200.642 184.282 201.326 182.572 201.326C181.42 201.326 180.196 200.966 179.314 200.3L178.882 201.254C179.89 202.028 181.276 202.424 182.626 202.424C184.984 202.424 186.874 201.308 186.874 199.598C186.874 198.482 186.1 197.69 184.768 197.384ZM193.033 192.776C191.539 192.776 190.135 193.244 189.181 194.054L189.757 195.008C190.531 194.324 191.683 193.892 192.907 193.892C194.671 193.892 195.589 194.774 195.589 196.394V196.97H192.583C189.865 196.97 188.929 198.194 188.929 199.652C188.929 201.29 190.243 202.406 192.385 202.406C193.951 202.406 195.067 201.812 195.643 200.84V202.316H196.867V196.448C196.867 194 195.481 192.776 193.033 192.776ZM192.583 201.398C191.071 201.398 190.189 200.714 190.189 199.616C190.189 198.644 190.783 197.924 192.619 197.924H195.589V199.472C195.085 200.714 194.023 201.398 192.583 201.398ZM208.027 201.2V192.848H201.043L200.917 196.016C200.791 198.572 200.557 201.11 199.153 201.2H198.613V204.602H199.819V202.316H208.297V204.602H209.503V201.2H208.027ZM202.087 196.088L202.195 193.982H206.749V201.2H200.845C201.799 200.48 201.997 198.248 202.087 196.088ZM215.252 192.776C213.758 192.776 212.354 193.244 211.4 194.054L211.976 195.008C212.75 194.324 213.902 193.892 215.126 193.892C216.89 193.892 217.808 194.774 217.808 196.394V196.97H214.802C212.084 196.97 211.148 198.194 211.148 199.652C211.148 201.29 212.462 202.406 214.604 202.406C216.17 202.406 217.286 201.812 217.862 200.84V202.316H219.086V196.448C219.086 194 217.7 192.776 215.252 192.776ZM214.802 201.398C213.29 201.398 212.408 200.714 212.408 199.616C212.408 198.644 213.002 197.924 214.838 197.924H217.808V199.472C217.304 200.714 216.242 201.398 214.802 201.398ZM228.356 192.848V197.348C227.294 197.798 226.286 198.05 225.368 198.05C223.784 198.05 222.794 197.33 222.794 195.89V192.848H221.516V195.962C221.516 198.104 222.92 199.094 225.134 199.094C226.196 199.094 227.294 198.842 228.356 198.374V202.316H229.634V192.848H228.356ZM233.263 202.316H234.415L240.715 194.792V202.316H241.993V192.848H240.859L234.541 200.372V192.848H233.263V202.316Z" fill="white"/>
<path d="M262.315 213.316H391.02M262.315 213.316L258.315 209.316L254.315 213.316L258.315 217.316L262.315 213.316ZM391.02 213.316L386.02 216.847M391.02 213.316L386.02 209.847" stroke="#DA22FF" stroke-width="2"/>
</svg>
