<svg width="349" height="338" viewBox="0 0 349 338" fill="none" xmlns="http://www.w3.org/2000/svg">
<path d="M122.662 268.699L152.953 317.44L250.434 256.858L299.174 226.567L305.266 222.781L335.729 203.849L347.914 196.277L226.751 1.31592L129.271 61.8974L80.5298 92.1882L68.3447 99.7609" stroke="white"/>
<path d="M222.881 20.9017L212.345 27.4492M138.596 73.2821L128.061 79.8296M117.525 86.3772L106.99 92.9248M180.739 47.0919L170.203 53.6394M159.668 60.187L149.132 66.7345M201.81 33.9968L191.274 40.5443M275.261 105.186L268.714 94.6504M249.071 63.0438L242.523 52.5083M235.976 41.9727L229.428 31.4372M262.167 84.1149L255.619 73.5794" stroke="white" stroke-width="3"/>
<path d="M204.161 300.967L148.76 335.397L114.33 279.997L97.1145 252.297" stroke="white" stroke-width="3"/>
<path d="M34.102 138.925H50.1177C54.2192 138.925 57.5721 138.209 60.1763 136.776C62.8455 135.279 64.8312 133.196 66.1333 130.526C67.4354 127.792 68.0864 124.569 68.0864 120.858C68.0864 117.994 67.4679 115.357 66.2309 112.948C65.0591 110.539 63.2361 108.619 60.7622 107.186C58.2882 105.689 55.1307 104.94 51.2895 104.94C48.6854 104.94 46.1463 105.494 43.6723 106.601C41.1984 107.642 39.1476 109.14 37.52 111.093C35.9575 113.046 35.1763 115.422 35.1763 118.222H2.16846C2.16846 110.149 4.382 103.248 8.80912 97.5186C13.3013 91.7243 19.1932 87.2973 26.4848 84.2374C33.8416 81.1124 41.7518 79.5499 50.2153 79.5499C60.3065 79.5499 69.1606 81.1124 76.7778 84.2374C84.395 87.2973 90.3195 91.8545 94.5513 97.9092C98.8485 103.899 100.997 111.321 100.997 120.175C100.997 125.058 99.8575 129.647 97.5785 133.944C95.2995 138.241 92.1098 142.017 88.0083 145.272C83.9067 148.528 79.089 151.099 73.5552 152.987C68.0864 154.81 62.0968 155.722 55.5864 155.722H34.102V138.925ZM34.102 163.436V147.03H55.5864C62.6828 147.03 69.1606 147.844 75.02 149.472C80.8794 151.034 85.9249 153.378 90.1567 156.503C94.3885 159.628 97.6435 163.502 99.9225 168.124C102.201 172.681 103.341 177.922 103.341 183.847C103.341 190.487 102.006 196.412 99.3365 201.62C96.6675 206.828 92.9236 211.223 88.1059 214.804C83.2882 218.384 77.6567 221.119 71.2114 223.007C64.7661 224.83 57.7674 225.741 50.2153 225.741C44.2908 225.741 38.3664 224.96 32.4419 223.397C26.5174 221.77 21.1137 219.296 16.2309 215.976C11.3481 212.59 7.40932 208.293 4.41455 203.085C1.48486 197.811 0.0200195 191.529 0.0200195 184.237H33.0278C33.0278 187.232 33.8416 189.966 35.4692 192.44C37.1619 194.849 39.408 196.77 42.2075 198.202C45.007 199.634 48.0343 200.351 51.2895 200.351C55.326 200.351 58.744 199.602 61.5434 198.104C64.408 196.542 66.589 194.459 68.0864 191.854C69.5838 189.25 70.3325 186.353 70.3325 183.163C70.3325 178.345 69.5187 174.504 67.8911 171.64C66.3286 168.775 64.0174 166.692 60.9575 165.39C57.9627 164.088 54.3494 163.436 50.1177 163.436H34.102Z" fill="#DA22FF"/>
<path d="M117.173 145.716C118.781 145.716 120.041 146.1 120.953 146.868C121.865 147.636 122.321 148.692 122.321 150.036C122.321 151.38 121.865 152.436 120.953 153.204C120.041 153.96 118.781 154.338 117.173 154.338H113.789V158.316H112.457V145.716H117.173ZM117.137 153.168C118.385 153.168 119.339 152.898 119.999 152.358C120.659 151.806 120.989 151.032 120.989 150.036C120.989 149.016 120.659 148.236 119.999 147.696C119.339 147.144 118.385 146.868 117.137 146.868H113.789V153.168H117.137ZM127.925 148.776C129.161 148.776 130.109 149.088 130.769 149.712C131.429 150.324 131.759 151.236 131.759 152.448V158.316H130.535V156.84C130.247 157.332 129.821 157.716 129.257 157.992C128.705 158.268 128.045 158.406 127.277 158.406C126.221 158.406 125.381 158.154 124.757 157.65C124.133 157.146 123.821 156.48 123.821 155.652C123.821 154.848 124.109 154.2 124.685 153.708C125.273 153.216 126.203 152.97 127.475 152.97H130.481V152.394C130.481 151.578 130.253 150.96 129.797 150.54C129.341 150.108 128.675 149.892 127.799 149.892C127.199 149.892 126.623 149.994 126.071 150.198C125.519 150.39 125.045 150.66 124.649 151.008L124.073 150.054C124.553 149.646 125.129 149.334 125.801 149.118C126.473 148.89 127.181 148.776 127.925 148.776ZM127.475 157.398C128.195 157.398 128.813 157.236 129.329 156.912C129.845 156.576 130.229 156.096 130.481 155.472V153.924H127.511C125.891 153.924 125.081 154.488 125.081 155.616C125.081 156.168 125.291 156.606 125.711 156.93C126.131 157.242 126.719 157.398 127.475 157.398ZM139.751 149.082C140.627 149.082 141.407 149.28 142.091 149.676C142.787 150.06 143.327 150.606 143.711 151.314C144.095 152.01 144.287 152.808 144.287 153.708C144.287 154.632 144.083 155.454 143.675 156.174C143.279 156.882 142.721 157.434 142.001 157.83C141.281 158.226 140.453 158.424 139.517 158.424C137.945 158.424 136.727 157.872 135.863 156.768C134.999 155.664 134.567 154.14 134.567 152.196C134.567 150.168 134.951 148.614 135.719 147.534C136.499 146.454 137.711 145.722 139.355 145.338L143.603 144.366L143.819 145.536L139.823 146.454C138.467 146.754 137.471 147.288 136.835 148.056C136.199 148.812 135.851 149.934 135.791 151.422C136.175 150.69 136.709 150.12 137.393 149.712C138.077 149.292 138.863 149.082 139.751 149.082ZM139.553 157.362C140.213 157.362 140.801 157.212 141.317 156.912C141.845 156.6 142.253 156.168 142.541 155.616C142.841 155.064 142.991 154.44 142.991 153.744C142.991 153.048 142.847 152.436 142.559 151.908C142.271 151.38 141.863 150.972 141.335 150.684C140.819 150.384 140.225 150.234 139.553 150.234C138.881 150.234 138.281 150.384 137.753 150.684C137.237 150.972 136.829 151.38 136.529 151.908C136.241 152.436 136.097 153.048 136.097 153.744C136.097 154.44 136.241 155.064 136.529 155.616C136.829 156.168 137.243 156.6 137.771 156.912C138.299 157.212 138.893 157.362 139.553 157.362ZM150.932 158.406C150.02 158.406 149.198 158.202 148.466 157.794C147.734 157.374 147.158 156.798 146.738 156.066C146.318 155.334 146.108 154.506 146.108 153.582C146.108 152.658 146.318 151.83 146.738 151.098C147.158 150.366 147.734 149.796 148.466 149.388C149.198 148.98 150.02 148.776 150.932 148.776C151.844 148.776 152.666 148.98 153.398 149.388C154.13 149.796 154.7 150.366 155.108 151.098C155.528 151.83 155.738 152.658 155.738 153.582C155.738 154.506 155.528 155.334 155.108 156.066C154.7 156.798 154.13 157.374 153.398 157.794C152.666 158.202 151.844 158.406 150.932 158.406ZM150.932 157.272C151.604 157.272 152.204 157.122 152.732 156.822C153.272 156.51 153.692 156.072 153.992 155.508C154.292 154.944 154.442 154.302 154.442 153.582C154.442 152.862 154.292 152.22 153.992 151.656C153.692 151.092 153.272 150.66 152.732 150.36C152.204 150.048 151.604 149.892 150.932 149.892C150.26 149.892 149.654 150.048 149.114 150.36C148.586 150.66 148.166 151.092 147.854 151.656C147.554 152.22 147.404 152.862 147.404 153.582C147.404 154.302 147.554 154.944 147.854 155.508C148.166 156.072 148.586 156.51 149.114 156.822C149.654 157.122 150.26 157.272 150.932 157.272ZM164.778 149.982H161.196V158.316H159.918V149.982H156.336V148.848H164.778V149.982ZM169.884 148.776C171.12 148.776 172.068 149.088 172.728 149.712C173.388 150.324 173.718 151.236 173.718 152.448V158.316H172.494V156.84C172.206 157.332 171.78 157.716 171.216 157.992C170.664 158.268 170.004 158.406 169.236 158.406C168.18 158.406 167.34 158.154 166.716 157.65C166.092 157.146 165.78 156.48 165.78 155.652C165.78 154.848 166.068 154.2 166.644 153.708C167.232 153.216 168.162 152.97 169.434 152.97H172.44V152.394C172.44 151.578 172.212 150.96 171.756 150.54C171.3 150.108 170.634 149.892 169.758 149.892C169.158 149.892 168.582 149.994 168.03 150.198C167.478 150.39 167.004 150.66 166.608 151.008L166.032 150.054C166.512 149.646 167.088 149.334 167.76 149.118C168.432 148.89 169.14 148.776 169.884 148.776ZM169.434 157.398C170.154 157.398 170.772 157.236 171.288 156.912C171.804 156.576 172.188 156.096 172.44 155.472V153.924H169.47C167.85 153.924 167.04 154.488 167.04 155.616C167.04 156.168 167.25 156.606 167.67 156.93C168.09 157.242 168.678 157.398 169.434 157.398ZM185.4 153.978H177.48C177.552 154.962 177.93 155.76 178.614 156.372C179.298 156.972 180.162 157.272 181.206 157.272C181.794 157.272 182.334 157.17 182.826 156.966C183.318 156.75 183.744 156.438 184.104 156.03L184.824 156.858C184.404 157.362 183.876 157.746 183.24 158.01C182.616 158.274 181.926 158.406 181.17 158.406C180.198 158.406 179.334 158.202 178.578 157.794C177.834 157.374 177.252 156.798 176.832 156.066C176.412 155.334 176.202 154.506 176.202 153.582C176.202 152.658 176.4 151.83 176.796 151.098C177.204 150.366 177.756 149.796 178.452 149.388C179.16 148.98 179.952 148.776 180.828 148.776C181.704 148.776 182.49 148.98 183.186 149.388C183.882 149.796 184.428 150.366 184.824 151.098C185.22 151.818 185.418 152.646 185.418 153.582L185.4 153.978ZM180.828 149.874C179.916 149.874 179.148 150.168 178.524 150.756C177.912 151.332 177.564 152.088 177.48 153.024H184.194C184.11 152.088 183.756 151.332 183.132 150.756C182.52 150.168 181.752 149.874 180.828 149.874ZM198.831 148.848V158.316H197.661V150.828L193.827 157.164H193.251L189.417 150.81V158.316H188.247V148.848H189.543L193.557 155.67L197.643 148.848H198.831ZM207.178 148.848H208.456V153.042H214.414V148.848H215.692V158.316H214.414V154.14H208.456V158.316H207.178V148.848ZM222.583 148.776C223.819 148.776 224.767 149.088 225.427 149.712C226.087 150.324 226.417 151.236 226.417 152.448V158.316H225.193V156.84C224.905 157.332 224.479 157.716 223.915 157.992C223.363 158.268 222.703 158.406 221.935 158.406C220.879 158.406 220.039 158.154 219.415 157.65C218.791 157.146 218.479 156.48 218.479 155.652C218.479 154.848 218.767 154.2 219.343 153.708C219.931 153.216 220.861 152.97 222.133 152.97H225.139V152.394C225.139 151.578 224.911 150.96 224.455 150.54C223.999 150.108 223.333 149.892 222.457 149.892C221.857 149.892 221.281 149.994 220.729 150.198C220.177 150.39 219.703 150.66 219.307 151.008L218.731 150.054C219.211 149.646 219.787 149.334 220.459 149.118C221.131 148.89 221.839 148.776 222.583 148.776ZM222.133 157.398C222.853 157.398 223.471 157.236 223.987 156.912C224.503 156.576 224.887 156.096 225.139 155.472V153.924H222.169C220.549 153.924 219.739 154.488 219.739 155.616C219.739 156.168 219.949 156.606 220.369 156.93C220.789 157.242 221.377 157.398 222.133 157.398ZM239.053 157.2V160.602H237.847V158.316H229.369V160.602H228.163V157.2H228.703C229.339 157.164 229.771 156.696 229.999 155.796C230.227 154.896 230.383 153.636 230.467 152.016L230.593 148.848H237.577V157.2H239.053ZM231.637 152.088C231.577 153.432 231.463 154.542 231.295 155.418C231.127 156.282 230.827 156.876 230.395 157.2H236.299V149.982H231.745L231.637 152.088ZM121.385 179.2V182.602H120.179V180.316H111.701V182.602H110.495V179.2H111.035C111.671 179.164 112.103 178.696 112.331 177.796C112.559 176.896 112.715 175.636 112.799 174.016L112.925 170.848H119.909V179.2H121.385ZM113.969 174.088C113.909 175.432 113.795 176.542 113.627 177.418C113.459 178.282 113.159 178.876 112.727 179.2H118.631V171.982H114.077L113.969 174.088ZM127.782 180.406C126.87 180.406 126.048 180.202 125.316 179.794C124.584 179.374 124.008 178.798 123.588 178.066C123.168 177.334 122.958 176.506 122.958 175.582C122.958 174.658 123.168 173.83 123.588 173.098C124.008 172.366 124.584 171.796 125.316 171.388C126.048 170.98 126.87 170.776 127.782 170.776C128.694 170.776 129.516 170.98 130.248 171.388C130.98 171.796 131.55 172.366 131.958 173.098C132.378 173.83 132.588 174.658 132.588 175.582C132.588 176.506 132.378 177.334 131.958 178.066C131.55 178.798 130.98 179.374 130.248 179.794C129.516 180.202 128.694 180.406 127.782 180.406ZM127.782 179.272C128.454 179.272 129.054 179.122 129.582 178.822C130.122 178.51 130.542 178.072 130.842 177.508C131.142 176.944 131.292 176.302 131.292 175.582C131.292 174.862 131.142 174.22 130.842 173.656C130.542 173.092 130.122 172.66 129.582 172.36C129.054 172.048 128.454 171.892 127.782 171.892C127.11 171.892 126.504 172.048 125.964 172.36C125.436 172.66 125.016 173.092 124.704 173.656C124.404 174.22 124.254 174.862 124.254 175.582C124.254 176.302 124.404 176.944 124.704 177.508C125.016 178.072 125.436 178.51 125.964 178.822C126.504 179.122 127.11 179.272 127.782 179.272ZM139.279 180.406C138.343 180.406 137.503 180.202 136.759 179.794C136.027 179.386 135.451 178.816 135.031 178.084C134.611 177.34 134.401 176.506 134.401 175.582C134.401 174.658 134.611 173.83 135.031 173.098C135.451 172.366 136.027 171.796 136.759 171.388C137.503 170.98 138.343 170.776 139.279 170.776C140.095 170.776 140.821 170.938 141.457 171.262C142.105 171.574 142.615 172.036 142.987 172.648L142.033 173.296C141.721 172.828 141.325 172.48 140.845 172.252C140.365 172.012 139.843 171.892 139.279 171.892C138.595 171.892 137.977 172.048 137.425 172.36C136.885 172.66 136.459 173.092 136.147 173.656C135.847 174.22 135.697 174.862 135.697 175.582C135.697 176.314 135.847 176.962 136.147 177.526C136.459 178.078 136.885 178.51 137.425 178.822C137.977 179.122 138.595 179.272 139.279 179.272C139.843 179.272 140.365 179.158 140.845 178.93C141.325 178.702 141.721 178.354 142.033 177.886L142.987 178.534C142.615 179.146 142.105 179.614 141.457 179.938C140.809 180.25 140.083 180.406 139.279 180.406ZM151.946 171.982H148.364V180.316H147.086V171.982H143.504V170.848H151.946V171.982ZM153.794 170.848H155.072V178.372L161.39 170.848H162.524V180.316H161.246V172.792L154.946 180.316H153.794V170.848ZM174.484 176.104H172.432V180.316H171.154V176.104H169.102L166.204 180.316H164.674L168.076 175.438L164.944 170.848H166.33L169.102 175.006H171.154V170.848H172.432V175.006H174.484L177.274 170.848H178.66L175.528 175.456L178.93 180.316H177.4L174.484 176.104ZM189.003 175.978H181.083C181.155 176.962 181.533 177.76 182.217 178.372C182.901 178.972 183.765 179.272 184.809 179.272C185.397 179.272 185.937 179.17 186.429 178.966C186.921 178.75 187.347 178.438 187.707 178.03L188.427 178.858C188.007 179.362 187.479 179.746 186.843 180.01C186.219 180.274 185.529 180.406 184.773 180.406C183.801 180.406 182.937 180.202 182.181 179.794C181.437 179.374 180.855 178.798 180.435 178.066C180.015 177.334 179.805 176.506 179.805 175.582C179.805 174.658 180.003 173.83 180.399 173.098C180.807 172.366 181.359 171.796 182.055 171.388C182.763 170.98 183.555 170.776 184.431 170.776C185.307 170.776 186.093 170.98 186.789 171.388C187.485 171.796 188.031 172.366 188.427 173.098C188.823 173.818 189.021 174.646 189.021 175.582L189.003 175.978ZM184.431 171.874C183.519 171.874 182.751 172.168 182.127 172.756C181.515 173.332 181.167 174.088 181.083 175.024H187.797C187.713 174.088 187.359 173.332 186.735 172.756C186.123 172.168 185.355 171.874 184.431 171.874ZM191.85 170.848H193.128V175.042H199.086V170.848H200.364V180.316H199.086V176.14H193.128V180.316H191.85V170.848ZM203.997 170.848H205.275V178.372L211.593 170.848H212.727V180.316H211.449V172.792L205.149 180.316H203.997V170.848ZM224.669 175.978H216.749C216.821 176.962 217.199 177.76 217.883 178.372C218.567 178.972 219.431 179.272 220.475 179.272C221.063 179.272 221.603 179.17 222.095 178.966C222.587 178.75 223.013 178.438 223.373 178.03L224.093 178.858C223.673 179.362 223.145 179.746 222.509 180.01C221.885 180.274 221.195 180.406 220.439 180.406C219.467 180.406 218.603 180.202 217.847 179.794C217.103 179.374 216.521 178.798 216.101 178.066C215.681 177.334 215.471 176.506 215.471 175.582C215.471 174.658 215.669 173.83 216.065 173.098C216.473 172.366 217.025 171.796 217.721 171.388C218.429 170.98 219.221 170.776 220.097 170.776C220.973 170.776 221.759 170.98 222.455 171.388C223.151 171.796 223.697 172.366 224.093 173.098C224.489 173.818 224.687 174.646 224.687 175.582L224.669 175.978ZM220.097 171.874C219.185 171.874 218.417 172.168 217.793 172.756C217.181 173.332 216.833 174.088 216.749 175.024H223.463C223.379 174.088 223.025 173.332 222.401 172.756C221.789 172.168 221.021 171.874 220.097 171.874ZM238.1 170.848V180.316H236.93V172.828L233.096 179.164H232.52L228.686 172.81V180.316H227.516V170.848H228.812L232.826 177.67L236.912 170.848H238.1ZM120.647 192.848V202.316H119.369V193.982H113.429V202.316H112.151V192.848H120.647ZM128.186 202.406C127.274 202.406 126.452 202.202 125.72 201.794C124.988 201.374 124.412 200.798 123.992 200.066C123.572 199.334 123.362 198.506 123.362 197.582C123.362 196.658 123.572 195.83 123.992 195.098C124.412 194.366 124.988 193.796 125.72 193.388C126.452 192.98 127.274 192.776 128.186 192.776C129.098 192.776 129.92 192.98 130.652 193.388C131.384 193.796 131.954 194.366 132.362 195.098C132.782 195.83 132.992 196.658 132.992 197.582C132.992 198.506 132.782 199.334 132.362 200.066C131.954 200.798 131.384 201.374 130.652 201.794C129.92 202.202 129.098 202.406 128.186 202.406ZM128.186 201.272C128.858 201.272 129.458 201.122 129.986 200.822C130.526 200.51 130.946 200.072 131.246 199.508C131.546 198.944 131.696 198.302 131.696 197.582C131.696 196.862 131.546 196.22 131.246 195.656C130.946 195.092 130.526 194.66 129.986 194.36C129.458 194.048 128.858 193.892 128.186 193.892C127.514 193.892 126.908 194.048 126.368 194.36C125.84 194.66 125.42 195.092 125.108 195.656C124.808 196.22 124.658 196.862 124.658 197.582C124.658 198.302 124.808 198.944 125.108 199.508C125.42 200.072 125.84 200.51 126.368 200.822C126.908 201.122 127.514 201.272 128.186 201.272ZM139.683 202.406C138.747 202.406 137.907 202.202 137.163 201.794C136.431 201.386 135.855 200.816 135.435 200.084C135.015 199.34 134.805 198.506 134.805 197.582C134.805 196.658 135.015 195.83 135.435 195.098C135.855 194.366 136.431 193.796 137.163 193.388C137.907 192.98 138.747 192.776 139.683 192.776C140.499 192.776 141.225 192.938 141.861 193.262C142.509 193.574 143.019 194.036 143.391 194.648L142.437 195.296C142.125 194.828 141.729 194.48 141.249 194.252C140.769 194.012 140.247 193.892 139.683 193.892C138.999 193.892 138.381 194.048 137.829 194.36C137.289 194.66 136.863 195.092 136.551 195.656C136.251 196.22 136.101 196.862 136.101 197.582C136.101 198.314 136.251 198.962 136.551 199.526C136.863 200.078 137.289 200.51 137.829 200.822C138.381 201.122 138.999 201.272 139.683 201.272C140.247 201.272 140.769 201.158 141.249 200.93C141.729 200.702 142.125 200.354 142.437 199.886L143.391 200.534C143.019 201.146 142.509 201.614 141.861 201.938C141.213 202.25 140.487 202.406 139.683 202.406ZM152.35 193.982H148.768V202.316H147.49V193.982H143.908V192.848H152.35V193.982ZM157.456 192.776C158.692 192.776 159.64 193.088 160.3 193.712C160.96 194.324 161.29 195.236 161.29 196.448V202.316H160.066V200.84C159.778 201.332 159.352 201.716 158.788 201.992C158.236 202.268 157.576 202.406 156.808 202.406C155.752 202.406 154.912 202.154 154.288 201.65C153.664 201.146 153.352 200.48 153.352 199.652C153.352 198.848 153.64 198.2 154.216 197.708C154.804 197.216 155.734 196.97 157.006 196.97H160.012V196.394C160.012 195.578 159.784 194.96 159.328 194.54C158.872 194.108 158.206 193.892 157.33 193.892C156.73 193.892 156.154 193.994 155.602 194.198C155.05 194.39 154.576 194.66 154.18 195.008L153.604 194.054C154.084 193.646 154.66 193.334 155.332 193.118C156.004 192.89 156.712 192.776 157.456 192.776ZM157.006 201.398C157.726 201.398 158.344 201.236 158.86 200.912C159.376 200.576 159.76 200.096 160.012 199.472V197.924H157.042C155.422 197.924 154.612 198.488 154.612 199.616C154.612 200.168 154.822 200.606 155.242 200.93C155.662 201.242 156.25 201.398 157.006 201.398ZM170.722 197.42C172.006 197.72 172.648 198.494 172.648 199.742C172.648 200.57 172.342 201.206 171.73 201.65C171.118 202.094 170.206 202.316 168.994 202.316H164.692V192.848H168.868C169.948 192.848 170.794 193.058 171.406 193.478C172.018 193.898 172.324 194.498 172.324 195.278C172.324 195.794 172.18 196.238 171.892 196.61C171.616 196.97 171.226 197.24 170.722 197.42ZM165.934 197.06H168.778C169.51 197.06 170.068 196.922 170.452 196.646C170.848 196.37 171.046 195.968 171.046 195.44C171.046 194.912 170.848 194.516 170.452 194.252C170.068 193.988 169.51 193.856 168.778 193.856H165.934V197.06ZM168.94 201.308C169.756 201.308 170.368 201.176 170.776 200.912C171.184 200.648 171.388 200.234 171.388 199.67C171.388 199.106 171.202 198.692 170.83 198.428C170.458 198.152 169.87 198.014 169.066 198.014H165.934V201.308H168.94ZM183.383 192.848V202.316H182.105V193.982H177.569L177.443 196.322C177.347 198.29 177.119 199.802 176.759 200.858C176.399 201.914 175.757 202.442 174.833 202.442C174.581 202.442 174.275 202.394 173.915 202.298L174.005 201.2C174.221 201.248 174.371 201.272 174.455 201.272C174.947 201.272 175.319 201.044 175.571 200.588C175.823 200.132 175.991 199.568 176.075 198.896C176.159 198.224 176.231 197.336 176.291 196.232L176.453 192.848H183.383ZM195.296 197.978H187.376C187.448 198.962 187.826 199.76 188.51 200.372C189.194 200.972 190.058 201.272 191.102 201.272C191.69 201.272 192.23 201.17 192.722 200.966C193.214 200.75 193.64 200.438 194 200.03L194.72 200.858C194.3 201.362 193.772 201.746 193.136 202.01C192.512 202.274 191.822 202.406 191.066 202.406C190.094 202.406 189.23 202.202 188.474 201.794C187.73 201.374 187.148 200.798 186.728 200.066C186.308 199.334 186.098 198.506 186.098 197.582C186.098 196.658 186.296 195.83 186.692 195.098C187.1 194.366 187.652 193.796 188.348 193.388C189.056 192.98 189.848 192.776 190.724 192.776C191.6 192.776 192.386 192.98 193.082 193.388C193.778 193.796 194.324 194.366 194.72 195.098C195.116 195.818 195.314 196.646 195.314 197.582L195.296 197.978ZM190.724 193.874C189.812 193.874 189.044 194.168 188.42 194.756C187.808 195.332 187.46 196.088 187.376 197.024H194.09C194.006 196.088 193.652 195.332 193.028 194.756C192.416 194.168 191.648 193.874 190.724 193.874ZM198.143 192.848H199.421V197.042H205.379V192.848H206.657V202.316H205.379V198.14H199.421V202.316H198.143V192.848ZM210.29 192.848H211.568V197.042H217.526V192.848H218.804V202.316H217.526V198.14H211.568V202.316H210.29V192.848ZM226.414 196.196C227.602 196.208 228.508 196.472 229.132 196.988C229.756 197.504 230.068 198.248 230.068 199.22C230.068 200.228 229.732 201.002 229.06 201.542C228.388 202.082 227.428 202.346 226.18 202.334L222.436 202.316V192.848H223.714V196.16L226.414 196.196ZM231.652 192.848H232.93V202.316H231.652V192.848ZM226.108 201.362C226.984 201.374 227.644 201.2 228.088 200.84C228.544 200.468 228.772 199.928 228.772 199.22C228.772 198.524 228.55 198.008 228.106 197.672C227.662 197.336 226.996 197.162 226.108 197.15L223.714 197.114V201.326L226.108 201.362ZM242.491 202.316L239.485 198.356L236.461 202.316H235.021L238.765 197.456L235.201 192.848H236.641L239.485 196.556L242.329 192.848H243.733L240.169 197.456L243.949 202.316H242.491ZM260.619 201.2V204.692H259.413V202.316H250.755V192.848H252.033V201.2H257.811V192.848H259.089V201.2H260.619ZM271.339 197.978H263.419C263.491 198.962 263.869 199.76 264.553 200.372C265.237 200.972 266.101 201.272 267.145 201.272C267.733 201.272 268.273 201.17 268.765 200.966C269.257 200.75 269.683 200.438 270.043 200.03L270.763 200.858C270.343 201.362 269.815 201.746 269.179 202.01C268.555 202.274 267.865 202.406 267.109 202.406C266.137 202.406 265.273 202.202 264.517 201.794C263.773 201.374 263.191 200.798 262.771 200.066C262.351 199.334 262.141 198.506 262.141 197.582C262.141 196.658 262.339 195.83 262.735 195.098C263.143 194.366 263.695 193.796 264.391 193.388C265.099 192.98 265.891 192.776 266.767 192.776C267.643 192.776 268.429 192.98 269.125 193.388C269.821 193.796 270.367 194.366 270.763 195.098C271.159 195.818 271.357 196.646 271.357 197.582L271.339 197.978ZM266.767 193.874C265.855 193.874 265.087 194.168 264.463 194.756C263.851 195.332 263.503 196.088 263.419 197.024H270.133C270.049 196.088 269.695 195.332 269.071 194.756C268.459 194.168 267.691 193.874 266.767 193.874ZM281.733 192.848V202.316H280.455V193.982H275.919L275.793 196.322C275.697 198.29 275.469 199.802 275.109 200.858C274.749 201.914 274.107 202.442 273.183 202.442C272.931 202.442 272.625 202.394 272.265 202.298L272.355 201.2C272.571 201.248 272.721 201.272 272.805 201.272C273.297 201.272 273.669 201.044 273.921 200.588C274.173 200.132 274.341 199.568 274.425 198.896C274.509 198.224 274.581 197.336 274.641 196.232L274.803 192.848H281.733ZM293.646 197.978H285.726C285.798 198.962 286.176 199.76 286.86 200.372C287.544 200.972 288.408 201.272 289.452 201.272C290.04 201.272 290.58 201.17 291.072 200.966C291.564 200.75 291.99 200.438 292.35 200.03L293.07 200.858C292.65 201.362 292.122 201.746 291.486 202.01C290.862 202.274 290.172 202.406 289.416 202.406C288.444 202.406 287.58 202.202 286.824 201.794C286.08 201.374 285.498 200.798 285.078 200.066C284.658 199.334 284.448 198.506 284.448 197.582C284.448 196.658 284.646 195.83 285.042 195.098C285.45 194.366 286.002 193.796 286.698 193.388C287.406 192.98 288.198 192.776 289.074 192.776C289.95 192.776 290.736 192.98 291.432 193.388C292.128 193.796 292.674 194.366 293.07 195.098C293.466 195.818 293.664 196.646 293.664 197.582L293.646 197.978ZM289.074 193.874C288.162 193.874 287.394 194.168 286.77 194.756C286.158 195.332 285.81 196.088 285.726 197.024H292.44C292.356 196.088 292.002 195.332 291.378 194.756C290.766 194.168 289.998 193.874 289.074 193.874ZM296.493 192.848H297.771V200.372L304.089 192.848H305.223V202.316H303.945V194.792L297.645 202.316H296.493V192.848ZM300.795 191.48C299.979 191.48 299.331 191.276 298.851 190.868C298.371 190.46 298.125 189.884 298.113 189.14H299.031C299.043 189.608 299.211 189.986 299.535 190.274C299.859 190.55 300.279 190.688 300.795 190.688C301.311 190.688 301.731 190.55 302.055 190.274C302.391 189.986 302.565 189.608 302.577 189.14H303.495C303.483 189.884 303.231 190.46 302.739 190.868C302.259 191.276 301.611 191.48 300.795 191.48Z" fill="white"/>
</svg>
